<mxfile host="65bd71144e">
    <diagram id="WDNDjbwyXfIO4cTTBkrm" name="Page-1">
        <mxGraphModel dx="526" dy="538" grid="1" gridSize="10" guides="1" tooltips="1" connect="1" arrows="1" fold="1" page="1" pageScale="1" pageWidth="827" pageHeight="1169" math="0" shadow="0">
            <root>
                <mxCell id="0"/>
                <mxCell id="1" parent="0"/>
                <mxCell id="2" value="AsyncLog&lt;br&gt;(后端)" style="rounded=0;whiteSpace=wrap;html=1;" vertex="1" parent="1">
                    <mxGeometry x="240" y="200" width="120" height="40" as="geometry"/>
                </mxCell>
                <mxCell id="3" value="Logger&lt;br&gt;(前端接口)" style="rounded=0;whiteSpace=wrap;html=1;" vertex="1" parent="1">
                    <mxGeometry x="240" y="270" width="120" height="40" as="geometry"/>
                </mxCell>
                <mxCell id="4" value="" style="shape=image;verticalLabelPosition=bottom;labelBackgroundColor=default;verticalAlign=top;aspect=fixed;imageAspect=0;image=data:image/png,iVBORw0KGgoAAAANSUhEUgAAAggAAAHACAYAAADHr5AnAAAAAXNSR0IArs4c6QAAIABJREFUeF7snQdYz9sfx9/tPWRWVBpSaUiIbLLKLLIapMyKSsnKlq2BQkKUhhUhTZStUlEKaQmV2dD0f87p6uoaZdy/e69znuc+br/f+Z7vOa/z/X3P+3w+n3MOB6+gyHuwxAgwAowAI8AIMAKMwEcEOH5HgcDHxwdBQQG8fPnqlzwMHBwcEBMVQ8W7ClRWVn5XHTopKaGurg45ubmorq7+rjLYRYwAI8AIMAKMwJcIfFEgyIiJo6e8LC6k38frd+/+kQTbSEhCXakbEpKi8a6qoll1JIOzsbExxowahWlmZs26pqlMUqKiGKCkiIDbiV/MOl23B64+eoyM58/Bx8uLbdu2IT4+HkHBwXSgb27i5+PDls2bod2tGzLS07F0+XIUFhY293KWjxFgBBgBRoARaBaBLwoE8+7d4DBMH6Z+h3Cn4EmzClttOAJkAF5++myz8v9oph5d+mDFnK2wXDEWz0qaN0i2bdsWgQFHEHbqFHZ4eP5oFej1o9TVsHPyRMguccWX/DUvtm2Ea1g4POMuUUYW5uawmT8P/QYMRGlpabProT9kCHbt2olLly5job093rx50+xrWUZGgBFgBBgBRqC5BD4RCNycnGgjLAzVtm3RU14OexOu4HlpGbg4ONBWRASllZVoKyoCfh4ePCwuQXlVFf1/aTFRBFiag5OTE1P2HkBVbS1yXr78Yj04OTghId4avNy8kBBrhcKifLQQbYWcwoeorqmi17Vp0Q5tWkqipqYGuU+zUf6ufiDlACek2nSAdJsO6KKojaCI/SirqP+OWBXqamvBy8sHcREJZBdkoaKyvKEeQ/X1sX3bVkyZZoo7d+7Qz1sLC4OPmwv5r1435JOTaIGX5RXUesLJwQHlNm3Ay82F7OIXeFP5p0WFsFJp2wbD1VTgEhbeqL3tREQoq/yXr5C11rVBIJBM3bvrwGe3N7Zt247DAUea218wNjLCli2bYTPfBqfDG9+v2YWwjIwAI8AIMAKMQBMEPhEIchIScDUYDqU2bZD38iWWh4XjQXExJAQFsXncaAjw8kK+VUvw8fAg+FYiNkfFoIuUJDxNjKEqJQkODuB+4TO8LC/HyJ0+X7y9sKAIbKcshYZyN7QQbYknz/PRUqwVHuZnwX7zdPTU6AtrowWQbitLBcLD/Eys83HCsxdPICwgit3LA8HPJ4C8p4+xxmcRXr4pofdaOXc7JFvJQExYFGIiLZCRfZeW9/59vRnfz9cX4i3EMXfePBQWPqWf2Q3sD0ONLhjhuRs1dXVoJyyMw5bm2HUxHmEpqdhmPB695OXAy8WFh8XFWH7qDO4+fUav3W0yAertpfEe79Fvq3uDBaGHTAesHmMISTFR5JS8QL9OSvQ6YkEgSUhICD4+3mjXpg2GDB3W7Ad12tSpWL9+HczNzBB7sb4slhgBRoARYAQYgZ9N4BOBQGbLfNzcIC4G2yGDMHX/QSTlF6CdqAhOzraCXEsJzPA7jGHqqpio0w2KK1bjXXU1+Lm5cd52DohlYKj7TjpQEuvClxKZ3W9x2IeSV8/By8sPDSVtRF07h6mGlpjkqA8xEQmoymvi6Hk/aKn0wNr5O5B8/ybs3MyoiZ6fVwDdu/TGEquNMF86Cs9K6t0g/hvCoa3SE257l0GuvSKmGFhizurJiLt1nn5/4/o1xMXFYcnSZVR4kDReSwMHLUwx/YA/QpNTsHzEUMzsq4dxu/ZAt6McNk8Yj72X4pFe+BSbJozDubR7mLTvAL2WWE9Gq6vB3cQYUs7LGgTCnWWLwc/DjZVhZzCnf39odmiPZadONwgEKi527sSwYUMhr6jUrH4lomLN6lWYNm0a1NTUUVRc1KzrWCZGgBFgBBgBRuBbCXwxBmFGDx04Dh/6iUBIePAIDsdPwlC9C3zNpkBh2SrqdiApzt4WXJyc6LtlR5P1+CAQIq+chgC/IIb3GQvv4K3wcDmIBW7TceteAlQVtKGjpouWYq0xpJcBXr19hVHzezaU3VO9L1bN2/GJQJBqJYPBVurQUNLBkY1nsdlvJQ6d3kWvu5+RjqCgYKxwXQn8MZzzcXEjY/UykLZZHw5EjL0tyiorMXiHFwItLTBERRlKy1fjVUUF4hbago+HG2N37cGzP2IHxmh0we4pkyC9uF4gSIqK4O7KZQi9lQTrgKMYoKiAU/NmfyIQ3HdsxwTjCZBq375JXtLSUoiOjIKYuBjOnzuP6ZaWTV7DMjACjAAjwAgwAt9L4JsFglfsJRy+eQtDVTpjv/lUdHZd+0MC4fTFEAjxCcFggBG8jrjBe2UwnLbOQkvx1nC0WI3IK2HIyk2HyfDpqH1fh+GzujYpEIg3wWypAaRby+Ks93V4BmzEvmPb6XWx0VFIz7iPRU5OKCsrayhr4xhD6KupYmfsReoaWHz8JPxv3MbJOVboISdLrQMkHbYwhZqUJCbu2Y+s4mL62V8Fgnq7drjsZI9dcRexJCwcbQSFkLVuZSOBQKwgu3ftQt8+faCmrt5k//Hy8mCo/lBMMjGBbi9daGhqobz8z9iKJgtgGRgBRoARYAQYgW8g8M0CYUd0HI7eTvysQIheYANxQX50W7+5ySp8sCCcjguGIL8wDAcYwfOIG3xWBmOF5wIag9C5ozqmuQxHu5bS8FpyGFzcvBg2S6tJgVBTU4vpy0d/ViDs2LYVKiqqsJo1C7m5uQ1lifLx0UDCktJStBASgtwSV1TW1OCg+TSM0lCH1pr1yH31GklLnFBaWQWDnd5488fyz78KBFE+fmSvX4lzaXcxzc8fJl21sMdsaiOB0Lp1a/h4e4OLixNjxo5rkteHDFOnTsH6deswdeo0xCckNPs6lpERYAQYAUaAEfgWAp8IBKU2rWHYRRXaMh0wqLMyAm/cwuPiEoQm36ExCDui4nA08fMCYZvxOJj27IEzd1KQlJcPj4uXv1iXzwuEDfBZGUItCHLSipg90REBZ/ZCW60XNDp1Rf6zPCoQNDt1R3c1PchIdYR+L0MEnz+Ep8UFOHXxKHxWBOETgXDEDfuO17s91NRUceLYccyYOZPuQ/BxirKdh76dFHEg4RpmBQbRr4ardKYBi1nPnuP5m7cYpKIM74vxWHTiFMT5BWDVRxed27XD+K5aWH/uPBUP4Wl3scVoHPp3UkRsRiZ6KnSkQZ7LPgpSHDx4MLw8PTDT0goJV680u8/GjxuHrVu3wNnZGcEhoc2+jmVkBBgBRoARYAS+hcAnAkFDWgoTdbTBAY6Gcohpf3NEFMx0u+Ny1iOkPHkCIiQmdOuKrZExdKZNUlthYZj31oWYgAAqa6qxOrw+MPBziaxAMOhnjPSHKXSpY2d5dSQkx8JIfyrOXjqBd5UVGNnPCEoynVHwPA+VVe/oZki+x93Rr5s+enTRo8GKH9LbsjcIOn8AQ/VG042HQi4chJiQOKaPm0/LvZlWP9sWExOD+44dePvmDWzs7BpVbVAnJQxW6YxDV67hftGfAYBmPbtDt2NHCHBz40FJMXZfjMeL8nKQDZLmDezfqAwSsBl8OxEvy8phO2gApMXE8KikhFoKLtxNx5VH2eDm5saK5cuhqqKKqabTvmk3RS1NTRw5chg5OTnYt88XFyIjv2kfhW95OFheRoARYAQYgd+XwD9+q2VhQVFUvCtHbV29CPnRRERFd53u0NXtCQ/P5m+UJMDDA7JHBAnIbO7hFSRgU5CHB2VVVah7/+dVRCBMN7dASmoKbty8ifcffddU+3h4eDCgX39MmTqZukjcPTzx4sWLpi5j3zMCjAAjwAgwAt9E4B8vEL6pNSwzI8AIMAKMACPACPwUAkwg/BSMrBBGgBFgBBgBRuC/RYAJhP9Wf7LWMAKMACPACDACP4UAEwg/BSMrhBFgBBgBRoAR+G8RYALhv9WfrDWMACPACDACjMBPIcAEwk/ByAphBBgBRoARYAT+WwSYQPhv9SdrDSPACDACjAAj8FMIMIHwUzB+XyEiIiLg5+dH0UebMn1fSf/uqwQEBCAhIQFOTk56vkRJSf3R3X9nIvci93zz5g2qvnLq6LfUQVRUFL166eLGjVt4+fLX7U3BycmFurraT6rOwcEJbl5eVFe++5Zm/UBeDtqnn9SFgwO8fAK0Hh+OYW/qJqKiIujXty+uXrv+f3k+mqoP+54R+B0I/CMEwkxLS5ANgM6dO4fHOTn/d+58fHywmjkTmVlZuHDhwv/t/jbz56OPnh5MJk/+v93zn3ijQYMGwslxEd3lMio6Gq4rV9LdMP/O1KpVK2za6AZPTy8kJSf/hFtxwGTiBLi6rsAQfX08eVJIyxxkMg+8AgIN5b8ueoqr4Yd/6H4iLdtCQ28EhMVbIjX+PJ48ukvLI8JArfcwyKpoo6a6ErkZybh3LZJ+pzVgDKTkVSEs0Qqvi54gO+0mshLjGw3Q8uq66KTdB49SryMz8cvbpH+ovHhrSaj1GgYhMQlkJcUjO+0G/YpsRkbKUtTqA15+fuRlptB6VFe9g0rPIZBR1oJE2w548TwPj1Ku4UHyFdTV/rkRGjevAAZNnI0Xz/KQGHMCdbW1aNu2DU6dPIlbt25hvo3tD/FjFzMCjEDzCPxygUBm0A8fZNGZxqzZsxEWdrp5Nf+JucjAlHInGeHhZzF33ryfWPLXi7KZNw99+/XFRJNJ/7d7/hNvJNGiBTrIyMDLwwMZmZmYNWv2Z2fAP7PuLVu2xOZNG+HptRNJSUk/XHSLFi3gvWsXiotLMM9mfkN5m8/ngoOTEyVPHtPPsu/extHNjbf4/pabi7WWxrytIWjTQQE8fAI4vMEGV08fpEXIdO6GedtC8PJ5IUQkWqGqogxHNtjiQXI8XIOSwc3Di5LCHMipatN//dfOxeN7t+i1/EIimL/jJDqq6SDysAdO7lr+1WqJt5aCtVsApORVaLnhvm4457eRXtNOThkz1hyAgJAYXhY9QTtZJexdYorHaTcwb/sJtJSUwdPHmZBT7YqKsrfYPncEXj7Lb7ifieN29Bs3HRm3L2O3ozFqquqPk1++bBk9zdTM3By3ExO/BRvLywgwAt9B4JcLhBnTLeDm5oanT58iKjIKzi4uqK6uBhcXF8gsb5bVTMjLK+B0+BkcO3Yc7dtLY9yYMQgMCkVx8XPa5MGDBkOlszL2+/lhzOjRqK2tgUTLVtDuqoXdPj5ISqqfIZIyZTp0wOxZs9C2bVucDDtFRYGQoBDu3EnC2XPnMGfO3EYYyWyoTZs2WLjADsSEfDQwCNduXKdmaVJeN+1uMDc3xb27d+mWx8+fFyE6NhbEKjF2zBgMGjgQJ0+HQaZ9ByQkJCDt7l1qLbGynAEhISEUFRXjwKFDDfe0X2CHx48fo2dPXRDT+6YtW5CfX//y7CgnB0vLGeDj5cOp06chLSmJs+fO423p2y92PSmDHPA0bNhQvHjxEkFBwbh1+xZlTLZ8VuncGTNmTAdxd4SEhCI6Jobe18LcDCdPhSEvL4+KN/0hQ9CqZUucDg+HiclEZGVlYcyo0SgrL8OevfsaTsYk7dbu2hWTJplAgF8Avvv9cP3G9WY9mufPnkVeQUEjgUAEpOHIkRg5cgQePHyEw4ePIDev/hROwm/2LGsod+qE6Oho2k8HDvqjtKwUHdp3gK3tfNTU1CA5KYn23Z59vvS6gQMGQqdbV7rFdVBwCPL+4Nu3b19oaqjj4cOHGDt2LGLj4ugzR1jx8vLSLa6NjMfjcnw8RIREkJqW2nCiZseOHREXE4NJkyfj6rVrDe3dEpGHzKR4+LnOQE11Fd5/xvTfLDh/ZJJSUMMUZw/kZqZAd4QJQt2X4kqYH/124e4L4OMXgN9KS2gNGIvRs5biuOcyRB/1gqS8GgofptF8HZS7wnl/LPxcLXE76hgVMMPMHTFwwhzwC4ogNsQbJ3cuo88HYaTSWQXhZ05Dt3dvPH9e/5sTbyONaUt343b0SUxy3ISzvptwdv8G+h2xVpiv8MF6017gFRCG074Y3L99CbsXTYB4Gxm8LsqnFgNFzd6w8zqD3U6Tce9qBL1WqWtf2HmG4c3LIjzNzsRuRyNU/yEQuDi5kJvzGDvc3bF5y5ZG2CzMTCEh0RLnIyJwLz39W5CyvIwAI/AFAr9cIPj5+kKvjx68vHbSgaq3Xh/qhx48cCB2e+/GzRs38ebtWygqKkB/6DAoKijCx2c3HTTNLaZDWFgY586exbuKCowwMEBoSAi66+ggPf0ehEVEINtBBn369cPDR48wZcpkrFu7FikpqXTg695dB46Oi5CamvZFgaCtrY3joSF49uwZXr95Aw11DazfsB4enl4YM2Y0dnl60VmvkJAg5Dt2ROixY5g7bz7c1q/HlClT6HkLioqK1HzutnEj3N09qHjYsH499PR6o22btpCTl2/onufPnuLVq1dITk5G9+7dcfXKVcydTwa6Wpw/F04HbyKmSL0ePHiI6TNm4MGDB198wLU0tbBjxzb60mzdshXUNdRh7+BI3TlETBEze3zCFXpgFC8vD1avXkOFxO3bN7F582Y6wJN27ff1xZUrV+C9Zw/iYqKpC+DKlavoptMN8ZcT6KyZiKm5c+bAzs4Wly5dQnVNDRTk5TFg4KBm/QD/KhD4+fng6OAAa2trOsvv0KEDfTYMR42mA9eWzZswbNgw3L51G6qqKpBo2ZIKmaqaGuz18YGomBiysx+ja1ct8HBzo52UNK2HtZUVevToAX39ITA1Ncely5fo55s3b4SZqRnycnNR8uIFNDQ0sNjZBQf9D2He3LlYsWI5UlJSQKwFsrKytK8/CMquXbsiJCgIEydNQuJHs1siEKrelSPrzhVqak+/FomCB/UD9Y+k7sMnY/KirY0EwtaoAqTFRyAmeDcdZPG+DjcjQ3HM3YXW4UNS1NLD/O3H4bdyJu5cPA1JBTVMd91LhYGJwzbE/SEQrGfOBBc3Nz0YbM8eH4wbOw46Ojp4W1qGw0fq3SRyaj3huOd8I4Ew2ckD8ho9sG+pGcxW+ECqowrelb6Fy2ilRk1W7zMCM1b7wd12NLUuEKvEzHWHUPr6JTg5OcDNw99IIJCL76ffw9GgYKxctarRGSapKXeogF2ydCn8DtRbVFhiBBiBHyPwSwUCmc37HzqE4uIi7N3ni127dmL0qNFIu3cPCxcsgNOiRZgydSqdpZEXMhkIyazdbcN6TJo0CV21tdGrpy7c3d2xZu1a+B04gJMnTkBDXR36Q4fSgDEyyK1evZrOcmOio6i1YPTYsXSQ1dTUpLP193XvvygQvDw9MW7cWEydOo3OksPCTtF/J02egqMBAZBuL40JEyZCUFAIkZERCAkJweLFS5CUdBtpaWmYP9+GCpMFCxY0CIQPXbZj+3ZqZfirQAgJDoHrqpVwcXZG3379qOtFU0MTK1e6Yv269TgXcR7BR4+iprauSYFABJSqigpERITRWbkzbGxtEBh4FOvWrcMiR0eYmZlhvJExHjx8AClJSTx99owO/ls2bYaycieMHT8evXv3pgPumLFjUVpWhrjYGBw4eBDbt++gg7fZtGno2asXpKWl4Ld/P4qLimBmboGa2loqjsig2pz0V4GgqKCA/ft9aRCnjY0tDAwMsGSJCzZu2kRFnY/3bpw5E05nlORZmTZtKobq60OrqzbWr18HIyNjah3wcHdH7166DQKB1EVaWhqnw05hwQL7RgLBwtwCpmbm1EJyLDQUGRkZmDHDEkFBgVQojRozBn379KFWr5OnTjUIhLlz52DmDEtMMzPDvXv3GprruCcaxU+yIdZSEgpaushOvQHfZdPx5sXT5iD5Yp7PCQSPyy+Qfj2amuRFW7ajg/ubkmc4tGYWyt++omWJtZbCAq9wkFiIA6tn4tXzAlis9AUvvwD8183FhtMPGgTC4EGDKG9isVLqpISUO3fAycWFjRs30VNEvyQQ5mwJAZ+gMEoK86DcrS8ybsRCe9BY2A+RamgPBwcPHPdEoKryHXyXmdH6DZo0D/3Gz4S7zSiYOGz5rEC4dDEO9+6mw9FpUaNTTEOCgyAlKUV/Y6fPnPkhtuxiRoARqCfwSwUCMX1v2bIZfvv9UFLyErNmW+H27duYYTkTffv2wb49eyHeQhwvSl5g85at2O+3n1aaRDMHBgZgp9dO8PDyYMb0GXSQJbNKIhDExcXorFVJUQkxMVHw3u2N4yeO08E7KTEJpubmjfpfXEz8iwIhNDiYCgklZWV6TeCRw5BXUICl5Uzs27uXvqSGDB1Kv8vJfoTws2fhf8gfIaEhVPy4LF1GB+fM+/ebJRCeFORj06ZN2OHugcEDB9PZPxEIljOmQ1NLC1ZW1jSobuOGDeitp9ekQJCRkUHkhQg66yV8iMAKDg6G3YKFdGYdEhxMV1I8LXyKlatW00GPRJaPMjTErp1e0OzaDR47toNfgB/Ws2ZTU31sdBSmmZoh4coV6r5wc9uArtrdoKLSGYSXhcUMxF26+M2/sb8KhK5aWgg6ehSLFjnh1OkwaGiow3ffPmSkZ+BoUBB8fLyhoamNFy+KMcvamh6hbWAwklqhiGD4ILzI8d4kgPCDBeFrAmHalKmQat+BsroSfxkvXr6Eg4MjDhzwo1YnEi8iKCiA9Hv3GrmkjMaPw6pVqzB5ylSkpqY2tJ0EDr7/4/zPGav80KW3Po5uccT1cwHfzOfjCz4nENzjilBX9x611ZVYPl4NNh5hNNYgwM0GFaVvwC8kilkbj0K+iw7cbcfiUcoVqOqNwPQV3ghws0NS7EnsiCtuEAjkfgoKCti9axe0tbvifsZ9+ryRYN4P6XMWhJnr/KGo2QuCouIIdV8CHj4+jLBYBMehMg3XLfa7DLFW7XBo7RykX49CS0lZLNoXi1B3ZyTHhcF6w5HPCoRbN64jJjYOS5cupRaqD4m4wYgFi4jbbzkd9Yc6gV3MCPzHCfwygUAGKjtbG9jb21MTJknEh0x+6J1VVKnfl8x+rWZaQl9/KMhgodtLDzm59cFeV+Pj6aD16vVrXLt2DS5LltLPiUAQFhTEkGHDGgmEfb77cf78WRTkF8Bw9OhmC4TAgCPQ7amLLhoaKCsrQ8T583SAMDU1g7+/Pzg5ONB/4ECQo50fP87GiRMnsHXbNsTFxtL4htlz5qB37150NvrBxfDh5p+zIBTk58Ftgxs8d+7EoAGD4O6+nQqEUaMMMWbMGMy3sUFMTCyOHPaHjIxskwLh+LFQtJRoSS0sZEAnfvKkpETY2C2gjEkMgtH48ejVuxdkOshQi01qWhqIT53M0J8UPEG//v2o5WLf/v2Qk5NDdFQkFQhXr15tJBA6KSnh6NFAeHp4wWvXzm/+6Zw4dgxlFeU0BoGwJpaggCNHcPDgQWzeupXO3ImV6WJcHMLOhNP6WVlbIyoqGvYL6y1Ow4cPR0/dXnBdsQIdFRRoDAIROsSd0hyBMNlkMtrL1A9kHwTCTCtrBAQcAScHJwYMHIguXbpQt9aZ8DMNFgR5eXnEREVhookJPcL7c0nf1B4Gls447rEMl47vrY/2l5enrpPsR4+Qk1sfW9Gc9DmBsO5kBkRbtsbpPesRdWQH1hy/i5uRITi9Zw0NaBw/fy1UdYfg6BZ7pMWfo7cxtFqOfuNnNBxhLizWEtVVFYgL2YuW5Q8xd95cGndAXFokhoY8I7t374avX33cw+cEgqHVMoyc4YS0K5HYu2QajGzXQ1lnAFaZdKUrHsjf6nojcMxzKa79saKjlZQcHHwiwcnNTcsVEBIh8xcUFWRjzWSdBiSPHz2C735frFm7rhEmUj8RYWFkPXiAJ0+eNAchy8MIMAJNEPhlAoGsQd+3dw+4ubjhvHgxraaZqSlmWM7ApEmTyVopyMnK0kAww5EGmGk1ExbTp9PBgKTx48bCx8cHb9++haHhqIbApC8JhHUbNiA0JBjq6upYuXIldRP06t0b4WfOoLDwGbUgkJlpQGD9zI7MRJKT78DQwAB2C+zg7e2DgoICLF26BNevX6e+a+IDHzV6FPbt20ddF9azrOns3MbWDlcTEsDNzYVD/v4YMGAAevbs2SAQ2rdvDzlZGcybNw999Ppg8pTJ1O9PZmY5j7M/KxBevX6FCxERtP0kPmH+/HkoLHzapEAgpldhYRFqbdHU0oDNfBucPHmCCgSDkSOoayQ9PQOGhgYwMzOFickkJCYl0cGLxGtYmJuj8GkhdSXcTkz6qkAggs7L04PGiSxbvhxl5eXQ1NCAu4dHs36IpP8XLXLE3r37aAxJSmoadnp5oqOsHLZt304tJsQlQ+r4vOg5fLy9aT1DQkOpgOrWrRuNQeggI4vt27fh9OnTyMvNw9SpU6n7gwgEHh5u6q4hwa7EzUJiX1JS7iD7cQ4WLrTD5wTC6DFjQWJlyHJMD09PGrRnOMoQx44fbxAIpLwzYWHYunU7/P/wz3dQ1oJW/1EoeHQPQqItMMhkLgSEReG9aBJdPUCCAFcsX0ZjIoibxG3jpmZx0uhnSAfYHsMn4FbkCaRcDsf9W3EYMmUBhkyZh8jD7jTmYOQMZ4Rsd8aVM4cw0XErehtMQ8ati0hLOE9n2eQa8q+kXOeG+5KVCanx5xDmswo9NZTp7+BtaSkVpMOGDoesnBz9LCo2Fp269YeiRm8MM1uAlPgI3IwMRnLsKXTS7ovZm48i4ZQ/8jKTMXrWciScPoTzfhsxapYr+htZ4WHKDSTHnaT3fZCcgBdP86Cg2RtcXNzg4ubBMHMHcHHz4oTXMmTcjKH5evToTi1ey1eswKFD/o1YEXHWqZMSlq9wpa5GlhgBRuDHCfwygUAG/9jYGCxa5IzQY6G0JdpdtREWdhLHjh1Dbl4+bG3m01kuCTAjKxEmmJjQv0kiFoj0u2m4k5JCZ5zEFEwSEQhCAgLQHz4cxIdN7kFmPOs3uEFSUgqhIUEgZneyCoEDHDCZNAn3M7OQmpJMTe0fyicvwV07d8HDywthJ09ArUsX+mIk35tMNMH1mzdp5P+Jfz05AAAgAElEQVTx0FB0Ue+CivIKGlhFXAzz5ttAuVNnnDx5jAYnkkGqg0wH6rcmwY3uO7bD0NCQBhySFQ1ksx7ityZuCzK7/2BBGNi/P9w93KkF4erVa1js5AybP5bQ5efn4V1lFWZYWtKo+y8lEjwXGhxE/dE83Dw03oPM/IlAWL9uLUxMTP4IUOTF0aNBWL1mDZ29k6TbswdCQ0MRHx+PqdNMUVtb+1WBQAII+/bpS2fswiLClBeJHyAz+uYkIjBIbAWZoVdVVUJJuTNGjxqFbVu3gpePl4pJ8mzYLlhAi5tobExdVERMlr4thbi4OAYMGkgDE9esWgULCwtUvKtAbU0t+Pj5IN2+A+Q7ysPf/xCkpCTpKoiKigrapwcPHoKomMhnBQIJipSVkcXp06fQpk1rKsykpKQoG9LXJJF+JHs5jBw5HHp9+9HPyEA+Y5UvddkQVwMHJzeOey3FpdA9dBknWRlBWJEVEyRG5fCR5rkd1hxLg1jrduDm4UFNdQ1KnuRg71JTulRw1sZAyKl2o7ECd69F4cBKa1SWv8HWC/ngFxZBLVlJ8Z44Pd7Df80c3I4+3qhrdsQVIS7Ymy5zJOKL5JWXk0NgYCAMDA1RTDex4oBoyzawdguETCd1cPPyobamBuVvXmGFsTr93sh2A3qOMKHtLHh4DwdWWeFNcSGc91+CZEflRps1Rfhvx1nf+hUQJJHyrNYfBg8vCVI0bljFEBx0lK5CGjREnwarfpxIfESrVi3h4rIEBz9aFdSc547lYQQYgc8T+GUCoTkdQjZHUVfrQmeSZMb4IZGBmSxTjI2KguuqVXR5Y3MTNet2lKczyCtXr6G6uqrJS+k1ch0hJi6K5DspDZv4kAFLVk4WZWWlEBEWRUL8Zezz9aWR1MRCQupZWVmFUYYjqc/U2dmZLqv73tShQ3vgPQfq3tfhwP79KHlRAltbOzxvYidGYSEhqKqq4vbtRNR+tMyOtIuYjDsrd0JUTBxqa+vFF/lcXEyMBlcuW7YMDvaOCDga+E3VVlFVgbioGLV2kIGb7DvwuUSWaObkfN20zsXFA71evah76WMzPHFJEaHIw8WN2XNmw9zcjIoA4qYiQYjv3r0Dafv6detA6kOCF783iYmK0jaUV1RAr3dveHp6YMeOHdi0+c/ldv3798PqVatgbjGDuptI4uEXgnwXXdTUVCHn7g26gdGHJCgoiCvx8aiuqUa//gOoWPnhxMEJaUUNlL99gZdPm++y+OH7fqYAiXZyEGvdFtmpzVvm+rU6kAmFr+8+BAeHwGfPnkZZpaWkcfVqQv2qnukzkJP7/99s7e/gx8pkBH41gX+0QPgcHDJ42drYYOZMSzx9+oz65O/fv/9LOLZq2QrRUReoe4OIDhITYWU9Czdu3KBmY1PTadQtQfyjJJKf1JXU+XtTSNBROjMkAwtZ+0/iCg4e8v/puw6Sme2mjRsxfNgwauqfNHkqKv9Yi/49dV/k4EBdR59LZP+C790Zb9XKldTs/PLlKxpwGRkZBVs7O+o28SXuK24uCAgK0kC7NWvWNbiPvqcN48aOoSIv834mFVtkrwUSh0FWwXxIxIpA+iUvLx+v37xu8jakH8lKigMHDuBIQOBP78cmK/AvykCEXqdOnf4Q6I23kVZTU8O0qVOQmJhE3U0sMQKMwM8h8K8TCMR82aO7DgQFBPE4N4cGOP6qqGXiQ9bp1g0aGprIy8uley2Q5XGkPm3btKGfk6VxZHMkMqMs+MHgKXX1LtDS0KLlJ6ck08GptLTeHfAzE5mVE1dBdU0VHj54SJc+/khq07o1WrVu9dki3rx527AR1LfegwT36Wh3Q5u2rZGaehf30u/RPSSIBYG4l8jyTOIWIXtRpKXdpf//vYlYhFRVVKGmqopH2dl48CAL2R+Jg+8pl9STtIG4Yf5qMv+e8n7XawhHsodHVVU1E1m/60PA2v23EPgXCoS/hQMrlBFgBBgBRoARYAQ+IsAEAnscGAFGgBFgBBgBRuATAkwgsIeCEWAEGAFGgBFgBJhAYM8AI8AIMAKMACPACDRNgFkQmmbEcjACjAAjwAgwAr8dASYQfrsuZw1mBBgBRoARYASaJsAEQtOMWI7/EwGyxwXZ4bCstIyesfEhde6sTA9KKitrvHve/6la7DaMACPACPyWBJhAaKLb27Vti7179tDdBckeB84uLnSb5r87LXVxQUlJMbz37P3bbsXLJ4DWHRTQTk4ZlRUVeFH4mB6OU11Zv6OfiEQb8AsIo6jg0U+pAy+fICTadcDL5wWorCj9pMx27doh6sIFyjg8PJx+T7YoJqdRviwpweRp0xq2wv4pFWKFMAKMACPACHyRABMITTwcEhItYG5mDrJbGzlRsm+/fnS73b87+e7bS89oWGjv8Lfdqtcoc4ybuwqlr0pQW1sDXn4B7Ftqirz7d+g9R892hXrv4Vhn1ryzFJqqqFLXvjBb7o3gbU5Ija8XAB+nrZs3Q1VNjW6b/PH2y6bTpmH5smV0l8qL33GMdFP1Yt8zAowAI8AIfErglwsEXV1dDB44kB7OE3bmDDIz63ciJImHhxeTTSZCRlYGUdHRuHbtOlq3aoU+er1xPiIKFe/qTc7khEZFeXmcOx+B3r106bbA4uItoKamiiMBASgo+PP4V3Ik7JQpU2g5F6IicePG54/m/SsqI6PxWLLY5ROBQM5bMDOdBl5ePpw4cRKPc/7cerePnh569+pF7yMlKY27d9PoWQJk57dBAweCHKR0+swZemrlnTsp9NREUm/9wYPo6YPkDIqY2NiGqowdMxpPnhSil64uKt69Q0BgIEpL62fisrKymGBkhNy8PDx8+IAe5EQOgPraLpOrj6Ui/XosogI9UFdTDX5hURQXPEZNVQW6DZmAPmPMIauig6Nb7enpgOSI4MqKMrRurwCtAaMhJN4S6deikZV0GXW1NbQeLdp1gKKmHlIuhUNn6AQIi7VAdJA3OnbpBs2+huhvPBNXzwQg++4NZKfexNPH6fQ6Pj4+PHyQhUMHD2Hp8uWN6k2+S0lOhv/hw1i77i/H/GppQVlZGYlJifTQLZYYAUaAEWAEfg6BXyoQxo0di7Vr1tDDh8g+9uR0PWurWTgXcR5ampo4cuQwuDi5UF1TA35+Pih1UqazeG/v3bh06RIWOTnTE/4izp8Dv4AABgwcBHK8Mdn+uKq6ih6ny8XBCWWV+r3zdbrrIORoEGpqa+hBPmQvfEtLS8RdvNQkzc8JhLZt2yHh8iVw83DTAY3UhRz5TITKLCsrrF69GuQwIgF+fnqGgtvGjXB394D9woVwWrSIfickKIjaujosXuxCxUyvXr3h470LrVq1ws0bNzFm3LiGuj17WkjdG+S0RXExcfj6+tLDqsg2wBfjYukgS8QHuR/Z39911Wrazi+lzedzcO1cAKKOeKCi9DUVAXSwFhDC8oCbEBaTAA+/AF4XFdIT9TxsR9GtbG3dwyAgLEL7TVBYHNGBXgj3XY+62lr0N7LGeJu1KC7MhXirtjR/+rUYWo6ipi499rj8bf29roQfxpk9a+k9hwwZjMP+/lixYgX27N33SZUvRJynWxs7Oi6iR3x/SMePhaJfv35YscIVu3bvbrIfWQZGgBFgBBiB5hH4pQJBQUEeKp1VkZmVhS5qqnByWgS8B3R794adrS2cnZ0wYcJEJCYl0X31ycE+REhs37YVI0aMgKaWFjQ1NLF/vy+dea7bsIEe96zdtSvMzc2hqaWJxYsXw8XFhR5qdO5sOKSkpGFmbo7U1FRMMpmIhIQrzdpT/3MCYa+PDwYNHkQH95evXsLP1xfnIyLg6OiEGzeu4UlBAZwWL4aZqSmMjY2pQNi7Zx8yMzNw69YtrFq1GnZ2dhj8RxlEIHxIp06eoCw+FghFz57hxIkTWLt+HbZv20aPkp5pZQ1np0XQ09PD8uWu9HhdHx9v+B861KRAMJy1AgOMrVFVXoaMW3G4FRmKB8kJDUJhqosXdIYYYeFgyYZ68QkKQ6XnYBQX5IJPSBjDzewhraCKlSZdUVVR3iAQnuU+RKiHC6oqysDDJ4CsxEvQ6GuAmesOImDTQlw749/oCXV0sMfChQthZmaO6JiYT55eD3d3qKqq0PZ+fEASOS558ODB2ODmhgMHDjbvqWe5GAFGgBFgBJok8EsFAjn5zsbGBuQQIgEBAZDje6sqq9Cpc2eMMjTAju07kP04G9nZjxEaegwRFyJog8aNGYudu7ywZMkStG3TFvPmzUXXbjooKSmhAoEcE92rtx401DVw9uwZeHntRGBgAMLCwpCVmQXjiRObBPPXDJ8TCHExMdSy0X/AIOrWiI68gMqqKuzauQvePt4IDg6GvYMjPbApISGeCoSrCVdxJvw03N3dsW79BigpKSImOrrBgvA1gVCQnweXJUtw6JA/LMzMMXfeHJiZWyD46FGkpKZi1uzZ1Lpw+9ZNREVGNikQBITFINNZG2q99NF96AQQRbJ70UTkZiTTanxOIPALiUDf1AEq3QdAUEQM5G8SfOgySom6Hz5YEELclyD+RGNLwNcEgoO9PeztvywQPD3coaKiAisr60aCjrBt3bo1dd08ffr0m/uVXcAIMAKMACPweQK/VCDMnTMHritWYPmK5TgaGIytW7dg4MABUOzUida2RYsW2LxpIwYNGgQRYRFId5BFVVW9yTzj7l0qCIpKiqkfnhy9SxIRCMKCghgybBiUFJUQExMF793e9DjdsFMnqbXCeAIZDL8tEYFAVhb0IUGK5fVBihdjY0GORu6lp0f/JoNyTXU1vHZ6wdvbG8eOHYfdggXopNyJ5iUCISEhAWfDw+HptRNr1qyBWhc1nD97tlkCIfdxNpwXuyDw6FEYjzfC4sXOMDU3x9GAAKTdTcOs2XMoi+TE24iIiGgQCMQFIdOhPWrq6pCWmvbZhpPVBY57ohFzdCeiAty/KBDayChiReBtXDrhizM+a9BFbwQmLdoGF0NFujLhg0BYbKhE3RYfp68JhCGDB+Hw4cNwXeEKn72frtyIuhCB7Mc5cHB0pMGbHxJxqZAVJsSV8atO9fy2J4nlZgQYAUbg30HglwkE4ipwXrQIEydOgNGEiVDvokYtAi3EW0BBSQkK8vIQb9GCzgpHjzLEYmdnLLC3p4GAJDnaL4STszPeVbzDmHFjkZRUP+v9kkAg7gcSq0DiBswtzOmxwLIyssjIyMDzoqIme2v0qFFUwFjOnImC/AJ6dPNOL0/07dsXTk7OtJ7BQUGIuHCBrjy4fvUKnj4txIqVKzHReAImmkykAmH3bm9kZmTg1u1b2LZtO6ZbWGD4iOENAoFYRAQE+KmboK7uPebMmYOXL1/i9Zs3+JJAmDNrFvoP6I9NmzbjSWEhAo4cxqGDBxsEgrWVFY31KCsvQ0d5hYa26uhPwIunuXQVQ3ulLpjktAPn/DYjNmgnzWPisA19xk3H1ln6ePuyGK+e54OsRLBcewABbnZ49bwAY+augqyKNhYbNC0Q5DV7w87jJK6GByIueDdeFz9FRekrei8SD3I/Ix3+h/w/H6R4J5laTtatX9+or9zWr4ep6TRscNuInbt2MZHQ5JPMMjACjAAj0DwCv0wgkOoZjByJLZs34emzZ1QYSLSUoC4GYkEggXzTpk1FQUEBpCSlUFZWinFGxtRqQJKwsDDSUu4gMzOTWg8+DPJEIAgJCEB/+HAoKSggJjaGDsrrN2zAwAEDsG3bNtTUVKO4uJhG/s+cORNXrl5rkpZK587YtGkj5GTl8ODBAzpQlZeX47D/IQgICKLu/Xs6sNvY2CL87FlMMJqADW7rUFtbi4ryCrRp2wZubhvh4ekJCzMLLF+xFNVVVXj3rhItW0pQywBZlbB/3z5ISUvRyHwyIybtCwkOxoFD/sh++ADOzosRGBQEo3HjsNhlMfXZl5aW4YCfL2RkZWmQIoldOBochNWr16CyshJfEgiuQYng4xfE65JndH+CV0WF8F1ugee59asB1PsYwHSpF41JKHmaDz/X6cD795i3/RQNzCR7FAiLt6IzeJdRnagFoZ+RNYxs1mCxYadPLAgkfmH+9hOQkldFceHjeqEQ5NXAftuWLVBRVcXsOXOQk5PT8Lm5mSmWLl0Ka+tZiLt4sVFfBR45An19faxavRpeO3cygdDkk8wyMAKMACPQPAK/VCAQKwIZ6IcPHY7bSbfpoE3SixcvICggAAVFBehoa+PmrUTk5uU2Mi2TfPk5Odi4eRO8dv45cxQVFaUD1uvXr8HFxQVxcTFUVLyjgzn5XFxcHKoqqpCTk0FMTByKiotQU1O/RO9riQy8ZMUBLx8f3r+vQ+nbUlRVV0OiRQu64oKXj5cumSQzfSIKSH7iIiHLH/v11cOWLVuo+Xz/gQO0XuQ7Hm5eDNUfhBWurnBwcMDJU2H0czrIf5TISgQSW9BSQgKlZWV00CcrFgQFBfDmzVtqXiccW4iLo7yiHFcTrsDd0wM7/+DCz89PV4gQwUHYfkhCYi3RTq4z2itr4UlWKvKzkvGuvBTv6+poFrLyQkBIFBycXDQ+ofzNK1oGiTtQ1NLDq+JCvCjMAQc4UPbmBf2Oh4+froIoe13/918TuZabh49+XF31DpXlf26YRFwhV6/Ew8HRCWfOnGm4lMR6EIuP0YQJlO3HiSx/FBAUwMKF9jjzx+ZKTfUl+54RYAQYAUagaQK/VCA0Xb3P5eDApIkTYGtrSwdJWzs7JFy58n1FASB7FezYvp1aL/6a7mfcx7z58/EoO/uby7ecMZ1aSMheBKNHj8HrN68xfYYltT7YzJtLV2VkZ2fD2HgCMrMyMXfePOTm5n3zfcgFxDxP3AqJiYnQ6aYD5c6d4eTkhFNhYd9V3q+6iAij7t118OTJE+Tl5deLFE4uDB06BHdT7yKvoP6zD4mIotCQYKSnp8PJeTHbZfFXdRy7LyPACPwnCfzrBAKxAkwyMYG8vDySk5Nx7vx5OoP+3iQpKYn+/frRWehfU0lxCeLi4vDmo3X3zb2Pjo4ORo4cibatWyMvPx9XrlzBpcuX6eV6vXtj6LBhaCUhgcc5OXRPh+s3bjS36E/yEUsMWRYqJyeLly9fISUlBWfPnaNWh/96IhYXEodS8e7v393yv86StY8RYAQYgY8J/OsEAqk8GRCJKPirufmf1rWknsTKQdwbfxUxZPUD+Y8M4j8j+p64LchSUbKR0v/jrIh/GmtWH0aAEWAEGIGfS+BfKRB+LgJWGiPACDACjAAjwAj8lQATCOyZYAQYAUaAEWAEGIFPCDCBwB4KRoARYAQYAUaAEWACgT0DjAAjwAgwAowAI9A0AWZBaJoRy8EIMAKMACPACPx2BJhA+O26nDWYEWAEGAFGgBFomgATCE0zYjkYAUaAEWAEGIHfjgATCL9dl7MGMwKMACPACDACTRNgAqFpRiwHI8AIMAKMACPw2xFgAuG363LWYEaAEWAEGAFGoGkCTCA0zYjlYAQYAUaAEWAEfjsCTCD8dl3OGswIMAKMACPACDRNgAmEphmxHIwAI8AIMAKMwG9HgAmE367LWYMZAUaAEWAEGIGmCTCB0DQjloMRYAQYAUaAEfjtCDCB8Nt1OWswI8AIMAKMACPQNAEmEJpmxHIwAowAI8AIMAK/HQEmEH67LmcNZgQYAUaAEWAEmibABELTjFgORoARYAQYAUbgtyPABMJv1+WswYwAI8AIMAKMQNMEmEBomhHLwQgwAowAI8AI/HYEmED47bqcNZgRYAQYAUaAEWiaABMITTNiORgBRoARYAQYgd+OABMIv12Xswb/VwhwcHCA/FdXV9fQJPI3Se/fv//HN5OTk5PW899Q1388TFZBRuBvIPCPEAhcXFwQERHB27dvUVtb26iZ/Pz8UJCXx8NHj/Du3bsfQqChrg4RUVHU1FTj7t17KC0t/aHy2MU/mQAHB/gEhFFdWYG62pqfXPh/qzgODk5MMpmId+8qcOLkKdo4MuAO6N8PPDy8iIyKaiQc/s7Wy6rqoKQwB6Uvi5p9G05OLsy0nI74hCu4d+9es69jGf//BMhzpaGhDiEhYaI8ceXq1X+0qOPl5QMPNzfKysv+/7D+Y3f8pQJBUFAQFhbm0OmmA2FhYbx69QphYWE4Ex7egFlGRga7d+3EQnsHZGZm/hD+w4cOQU1NDbV1tbCytkZSUnKzyuPh4cFMS0tERUcjKyurWdd8byaPHTsQd/Eijp848b1F/Cuv6zbECJp9DcAvJIp35W9x9Wwg0q9daLItGv0MIdKiNRJOHSDzZpq/vZI6+o6zhICIWMP1leVlOLJhfpPlfS0DNw8vBkyci8ToY3jxNO+HyvrRi3v27IkDfvuxdcsW7NvvR4sj1gMLc3PMnTMH/QcORHl5ebNuY+K4DUJiLRrylr1+gcjD7njxNLdZ168MTkJMkDcuHfNpyC/WSgq6BlORcuksCrPvflKOubkZbG1sMHv2bNy8dZuKGwMDA/TS1cWSpUubdd9/SyYBAUFs2uiG27dv48DBgz+l2oYGI9Gvf3/47fdDekbGTynzS4WQSVrgkSOQl5cHmcx11e6G6prq777nIkcHKHXq9Mn1tTW1cF3pCldXV5B3bl1tHR49eoTjx0/gwcMHDfkd7O2hoCBPPyfv5A9Jsp0kFi60Q9u27cDNzY3Hjx9j6bJlGDJkCCZOMCY/kIa8Rc+L6HcsfZ3ALxUIU6dMgduGDSh4UoDExETo6OggLS0NMyxnNtRaWloaK11XYM3atcjN/bGXMnnQO3bsiHPhZzBpylRcu3atWc+HkJAQ7iQlwt7BEWGnTzfrmu/NlJ+Tg337fbFy1ervLeJfd13XgWMw2WkH3tcB927EQF69BwofZ8DbcUKTbZm/7QS4efmww2YU8L7e+iSloIaRMxZDUk4FbWTk8SwnC3lZaTi4yrLJ8r6WgV9QGKtCU3BgpRXSb/z5YvqhQr/jYiIEVixbhqlTp0KFCN6PrG7ESubj7Y1Tp07BbdOmZpU+bckuKGjoonX7jih+koPstJs4vWd1s0WQvXckYoO8kBRbb8kgqVO3/rBcsx9n/TbjYoh3o3pwcXLhbloKFQZm5uZ0NsrNxQ0HB3tMnToFGppazar3vyWTuJg47txJwtmz5zBn7tyfUu0lixdjmuk0zJ9vg5jY2J9S5leffX5+2C9cCDs7W7TvIIvq6qrvvqejgz0GDhgA8j5W19BAUVERHmdno7S0DC5LlyIh/jLu3b0HPj4+KCoq0IF+4OAhqKiooJ9duhhHxYqXlxdWrV5D6yEqIgoPd3eMNBiBaCIa3gM6Ot2gpNyZCmbXFctx69athjqnpqVhscuS727D73LhLxMIZMZAZhAL7OwgJy/fwJs8NMSVwMfHjwV2tmjVqiWI2jt4yB/Pnj+j+YiwaNe2DfgFBKCpoYmw02E4EhBIXzQdOnSAmek0+vnl+AS0l5ZESOgx3Lp9m15LBEJMVCQmT53WSCAoKSnBaNw46HTXwYOsLHo/osxnWVlBU1MDY8eNw/Xr15Gbm4vExCQcPHQIxEw6eNBATJkyGbw8vDh9+gzOX4iglpAFC2whwC9AlbCWlhZOnDiJY8eOo7ziz1kdUePy8h2hqKCIDu07IDDoKDLu3sVe332fFQjaXbVgMnEiOikr48bNmzjsfxh5+flU1Y8bOxZGRuNRkF+A7OxHeJyTi/MREfT+E4yNMXqUIR4+fITCwie4k5KKi5cuQURYGKNGjYKBwUhUVVcjOCgYsbGxqHj3Di1bSsDM1BR5uXnoqCCPHt27Izw8HMJCIrQfyA+MWHQ+9n9/6ESXxYshKiKCo0HBuJNyp6FvieqfbT2LvhB89+9HyYsX4BUQwoQFG9Gl9zAsGa2K9++rwcnFg3ayynjyKA2iEm2g3tcQ6n1HoLK8FDfOBeLu1QuQ7NgZemOmg4gL0v60Kxdo/wdstMP7unqhoDXIGFOctsDPdSbSr0fRz2Q6a0N35BQ8Sr2OroPGovT1C0Qd3o6i/EdkDg5FzV70c0l5VWTfu40LBzaDk4sbAybOpgNot8HjkZl4Ga+KniD1cgRSLp+GolYf6I0xh3hrKTzLzcK1M4fx+B553t7DaMFGvC5+htbSHSHeRgpxwT5Ivx5JvyPPj3qfEdAaMAYS7Trg3rUoJJw+gNKXxZBV0UY3/YmQVlRD9r1buBZ2EMVPHtM2yMrKYu8eH6TcuQNHJ+dG7yoiHnZ6eWHQoIHorKLa7PdYj+GTMWnRVpzatQoX/7AEEIvJ8OkuePviORQ1dcHByYW44N14lHqNslbR1Ye63jDUva9DckwYspIu0fvpjbOEht5wdNbpj5yMZDzLzcS967FIij5GvyfP6s6dXnBycsLhIwH0s68JBNIm0uYZ0y2goaGBO8kpCAoOwr309PoZrVZXWFlZQoCfHykpKSCWydVr14EI+yGDB1PRkZeXj2fPnuHtm7fY7eNNBxpNTS2YmU5F2zZtEBUVjdDjx1FSUkLr4+TogMqqajoQ6uvr4+aNG3D39EJZWRn0eveCsZExHZjDz55t9BsYPHgQDEca4MyZcETHxtCyGgTCuXOYM+dTgaDdtSumTJ4MWTlZXLt6HcGhIcjLy6MD6JjRYzBmzCg8eviQvleysx/j2IkTWOLigmnTpmK+jQ1iYhoLBDExURiMNMSoUQaorKzEYf8jSLh6BSrKyjA2NsKBQ4eQmZlFZ9mzra3xKDubviuUO3XC+HHj0KNHd9y9dw+++/3oDP5DjMgiR0c4Ojp8IhDUVFUxaZIJtWAtW76i0TPXXacbjMYb4eXLF9i4eUuj79RU1XD+/Fn63nFYtIh+Rwb++EsXYTxhIq5eu4bp0y2wcYMb5BUVqQt6zOjR2L59GzLSM1BTW0N5Fjx5QvvIZ/duuG3ciD1799KyPritiUAgde+ooNDs3wPLWE/glwkE8jBZW1lh2dKl2LtvH7UgXI6Px11LeJsAACAASURBVOvXr2nF+PkFYGQ0Dh3lOtIfz+QpU3AnJYV+5+29G2PHjEH85XhwcnNBt0dPjB8/HndSU7Fj+3Y64EWcj6ADu1zHjli1ajU8vbzotZ8TCO2lpeHvfwgSLVrgQmQkBg4cSB9GYsno0kUN8h3l4bTIkfp60+6mITcnF2fPnaM/Xg+PHUhKTEJlVSX69e2HDW4b4OHphVs3r0OynRTiLsZBTEwMnTt3xnwbW5w/fx5cnJz0xaXXR4/eq3Xr1ggNCaUzvvv37n1WIPDy8iI2Jhpk9kV8gGPHjqF1dXFZgp49umPnzp24fv0GhAQF0at3L/jt3w/XVasxZvQorF+/HnFxFyHZrh0VQFu3bsWWrduwyMEBFtMtaFtaSkhAW1sbc+fNw+XL8fRl4ePjDWK2e1L4hLaxnWQ7JCYlUeFQXlZOzXuk38i/b968afhNXb92FZKSkliyZCkOHznS8LnByBHYu3cvcnNyMH2GJRVgZFC1cT+Fx+lJ8F9j3eh3ScSDgaUL+o6dgcTYUxBt2RYyyprYu9QMr4ueQK2XPgYYzwYnFxcuHtsHoA5xoXtQ94f583MCofdoC0xY6Iby169w//YlqPUajCcPM+BuYwBZ1e5Y4BmGe9ej8CjtJlR6DMLRLQ4oe1UMjT4jIdZGEiOnO+H6+SA8y8lEQVYa7t++CGu3AJS9fonigkfoOmgcxFu1g5e9EfIz72Bb9BPU1dYiLSECcmrdwcXDDU+7sXiemwVdA1OMn7+aCp78zBQoaffD5ZP78Tz/EeZvDUFlRTmykhOgM8QYD5Kv4OiWhXSwJlaCgIAjcHR0xPmIT90wG902wNzcHNLtO3wS0/OlF9/nBAKfgBDWh92nA+DV8CNQ1xuONyVPsXeJKcrevIB8l56QVdXGeJu1iDiwDaf31s/mug4cC2Wdfug5YgrSb8TgQXICCrMzkH693urivGgR7B3s0VNXF48f5zQpENq2bUt/10Qgk9/gUH19FBUXYdjwEVBVUcGuXTupIL14+TJGGxpSYdBOShojR47Ejm3bcP9+Bl6/eQsyeBcUFECnew8YjByJrVu3UJF7PzMTY0aNQmRkNObZ1LuhUpKT0apVK+Tk5iAi4gKUlBSxwnUlHj58CJfFznBwcMChgwfh7LIE1dV/mtvXrV2DWbNmwdPDA6vWrG1SIMh37IhTJ09Sf3laahqGjxiOc+fOYcFCe/rec12xAvEJ8RAXF0c3bW2EhIZi7rz5XxUIWzdvwkgDA2qxkJRsRwXUgoULcf9+JuIvX8LmLVvg7uEBUVExJN66AdeVq3Ds+HGEnw6DgKAgFT2EDxFU5J1FmJH0JYEwfvw46uqi71f5xoOw1cyZcHVdgfz8fOj26v1NAuHevXQ4OS2iAq9LFw28LX2Lxc7OmDXLGqZm5vDb74tJkybjdmIiff97uO+AcmcVKuI+TkQgkHHmg3Ag36WmptI2s/R1Ar9MIJBqycnKwX3HdvTu3Zt2/tOnz7Bw4QJcv3GzodYKCgo4ferUJwJhtOEoqKmro5t2V+zevRuHDh6is3cfbx9qAbC0soKtzXzY2tpi7dp1XxUIdjY2WLJ0Cc6Gn0VycjJkZGXoTN3VdSV8/fzoCyct5Q790Z4KC2uo26kTJ9BRXh7GxsZ4XlSEm9ev4catW5g9Zw5io6NQVl4BCwsLVFRUIvH2TWzcuAnp9+5h+YrldOB9+/YN9u7dh9Ph4Xj18iVKy8pAXAyfsyCMHT0Gnl4eWLVqFQICAkH8eCaTJmHy5CnYtGkT+Ph4MX++LR3ME2/fQtDRo1QgnDsbjrLSMtja2aG6poaa74iYIAIhI/0eMu9nIjIqEiLCIphoMhEx0TGwW7iwQSDIdJCBLumft28hICBAzXxETAweNBg28+ehZatWKCwsxAY3N5w+c4ayORoQAAkJCazfsIHGU3xIZKa0betW+rJwdlmMgoInkGgnA6d9MYgN3oOogO0wtF4OZe1+ePuyCGE+qzB7UxBeFRci9fI58IuIotfIKcjPTMNO+3G0WJsdp8DNy4vt8wwbXAwf7vc1gXDp2D6c9XWD1Xp/yKp2w6JhMhgwYQ6M7NbhlPdaRB/ZAUERcVSUvWkImCQuhjXH78LP1ZKKiA9JWLwVxFpLQUZFG4oavdFjuDGOeSxDXPAuKhDy7t/BLscJVBCMnrUUR9zskBh1DBvCsvAsLxN+K62o4BESlaABmhMdtkFHfzxuRR3H05xMSCuoQbXnIHrfjJuxdIYXEhyMwUP08eDBn77ZD/VxdloEe3t7DB6sTwVtc9LXBMKl4/txdv8GqPc1wCSHLdg4oz8NSvyQvBJeNhII5HNlnQGwXONHXQyEw8dpy+ZNmDZtGqSkpVFXVx838jULgk63bggJCcbSJUtx/ORJWM20hIuLC/oNGADVzip0wjBw4GDkF+Rj7Zo1mDx5Etp3kIGjgwOsra3QvUcPEFell6cntS701O2F1atWYrrFdHh4eqCivIJa3zrIyECrqzadpBCBQGKV7O0dkHDlCo2RIiK4pqYGRuPHwcHeAYGBgdjl7d1IhJmZmVIrmY+PDw76+9O2fc2CQMTSgoULsGzZcgSHhGCPjw9UVFUwZ84crF29BmLi4hg6dBh4eHmRlnoHISEhXxUIAgL8yH74CBn3M3DixAnw8fJh9pzZ8Pb2xtZt2xEZEUFN9vaODpg6ZSqNrZo1Zw7U1dSwes1qREZG4saNmzQwnLwPyEyeWE5J+pJAIBaVJcRczwEYGI5q1NfDhw2Fo4MjfS+ZmVs0+u5LFoQr8fF4XvScciWTq8CAAPouayEuTt0I5DNS54hz57B23VpqqZw9axbsFy6AZlftzwqEla6uyMv/00V94vgJrF2/vjk/jd86zy8VCB/Ik5nt/HnzYGRkRAdKXT29JgUCUdPde/SErIwswsJOIfLCBWry27FjO51t7PL2oeao3bt3YcMGt68KBBIHYWk5g5rdPqTa2hr4+u6nroQvCYTLFy/S4Cq9vn3/x951gPXYveEbaQ8UipYVZW9R2XuPslpmUfZqKUVmRUQSZe+GlZUoW1SEIqPsXVaU9b+eJ0VW8fX9+XLOdbmu/N73Pe859znvOfd5Jj+2c/s2SElLw8raGps3bWRJQ68+WXr02zdvYL63N96+eYvRo0ch9Ukq5sybi+hT0SxyJ3LA99248U2C4OriAmNj4yyR4sGD0NXVw949YejTxxgrAwNx7MQJWFlZg9p94tgxREYe4o8qLjYGwSGhvABJS0nicFQUNm/ZzATh7p3bePToEVJT03L6HRsbw6eGbAkCqRjMLCxyfSQk+iSpB0lWyD6kQsUKbCzlOj3rBPkzpWSZ8hi3ZDfOHdmDEB9HdBxMEgMLSMkqwtu2M0sXXqQ+wNvPdJ4Pbl7D0sl9+TW/ShDmDW+HO0nnYOmyAjWNOmJC63JQKFUW1nM2oqxWZRb/n9y7GaGLnVi1QeVbBKG4lDQsnP1Ry7Ajnj66y2L4Eipq2Ok/E3tWzWOCQIZ6K12HQrNaXYxbEobNXpNxfOca+BxNw6ndG7F6hnUuyMb7krShPh7dvp7ze+brVwj2mYrLZyJRt25dbNq4Af36D2AJzpdlupsrrIYPR4WKlXNZcksUKwaJ4hJ49+59rlMvPf89guC+LREb547D6fCtqFLXAFZzNmK2pSEe3fnUtp8lCHSitBk5EpUq6zBJpvIjgqCvr4+gLVtgYGTEIu/u3bsx0XRxdmF12HwvL7bFoJMjnRRtRo6ATtVq8Jg3D3p6ujBs3oIJNNlm1KhRAx06dIS39wKW3pHIPrtkZmbw5puQkMAEgd7Vq3cfVqH8k/IjgrDI2xs9evZAixYt2VNryOBBsLezx7jx4+Ho4MDrQpu2bfn1KdevY1fYrh8ShKZN9bF92zY8efIEDx8+ymk2SSW8vLzQpm0bzHKfiYFmZmzkevr0GdjY2MLbez569OjBZD89/VXWcx8+wHb0qBxj7myCoKGpDcLqn5bvEYSjhw8jKiqSJYMk1Vy0aDEWLlqEWjVrYMOG9Th+7DjOn7+Avn1N8CT1CTp26sxqVE+PedCtXuObBEGoGH5ttH4rQZCSlOTFinRJVHwWLoSJiTHKqKrl9OZ7EoQ6NWsxkficIIRu34YlixfjyJEj/BGNsLZm8Za7+8wcgqCtpYUD4ftham6B48eP83toUaFNu0kTfdbHfVmyCMI5jJswHqEfXcronv379qJkiZJo064t0tKesp7y1s2bTBDCwnYi+XoK+piYcHXZBMHHZzE6duyAhg0aormRIUqVUmYRPYn1SP9/LSnpmwRh+NChsLO3w4QJpOoIZQnHzJnuMDHpy6z6SVoqrK2sWR93OTGBTw9EECIPHkTSlSSMGTsWr19n4GxsLPyX+zNBuH7tKubOnYclS3y/WgSzCQKpcZycP+kVybiofbt2aNuuLet/D0REIPrkKYRs246MjCw3VBKN0kktMjISSZ+dcMnOolOnjnxCI1VL2tOnkFUsyRuskooqZlsa8PNmjktQv60xvKzbwcYrCGtnjUL84U+eLZ+Pj41XCGQVlLBobE+8fpmlnsouP5IguJsZ4NGtK7kIQvZztZt3Qw39tmjY3hjb/WchYr03XyKC4B6aiIBpQ3Dh2F7+TadBSwydHoCE6EiE+DixTUHf8XOxc/ks7Fk5lwlC3MHtTAK+JAjzI+4hMfoQk4dsEkJ10iasoVMT84a1YdLxZalSuTKLV0nP/S1DRNp0unbrAu0Kn8S9RYsURcuWLdC2TWvcu38fC7wX5qr2ewRhRmgCNs4bhzPhQT9FEHTqGWGo+yoc2LgEe1fNy/UuC3MzzJ49G0OHDsWusN187UcEoXHjRgjashV9+/fD0aPH2AaJnu/bty/KlCnD33y9BvXx6OFjuLm5sq2CpnYFODo6wMTYGLp61dk2iQhCmTKlYWjUHHNnz0Hr1i2hV6PmV/jSD0QQEhIT0Ldf/6+u16ldm6WeZO9A6r7P7XDIVoeMraOjT7ERJpUfEQRSSQwaNAiDBw3Gnn37MG/uHPbmGDVqNKsXyIaoRatWIHJ39eoVBAcH/5AgqJdXR0zMaQQEBHzTCE9DXR27du1kSYSNjU3O2ujoYA8LcwteJ3bv2fNNTGxtRsLJyQlNmxkwecoupLaldYFKQGCWR0120a1WDQYGBiyB3LhpU65redkgnDx1CpMnTQJ5vHTp0g01a1aHt7c3457x+jXU1MpBXaM8qlWrzjY3dBgcMGAgq6qp0JwncpeXDUK5cuX4MHnnzh1ez4T7+6dh+q0EgSQGndq3R9SRw1BWVmarbBLlkR6JNhOaECQanDJlChYsWIBr167zJjp/wXx8iyC4uLpi44YNfGog/Vu9enWho6MDN7fpOQSBFhRy2UlLS8XOXWFs2Uob3Y7t23HhwgU2fnr79h3o1EIbKblC0mYXfeoknyyCg4JxOSmJjR6JWBAJIV0WuZSRi9mGjRsxceIknDx57JsEwcPDk9EnckSLFv0jtQoZZo4YaYNzsbGIv3Aehw8fzhmlnTvDcOvWTZw9G4fY2FiE798PCwtLFttZjxiJls1bwn3mdBwIP4AiRYuw7jXbBmHo4CFsWEQnCEUlJdbfenh6MEFYGbCCDdm2h4Yi+kwM62hJx3nq1KkcCcKXBGH92rUgnfDiJb68gJK4ktQOn5fjx45CVVWVbRAIj+zSoX17LPf3Z73u4MFDWPdbpGhRGPUahh4jpuFs1C5cOh0Jgx6DUL5KTTh2r4aBDj5Qr1wD0fuDcPtKPPQatWa9f/TerMXGZIInGrU3wbGda3Hj8lmc3rMRJcuqo17r3qhQvQFqNG2Hs1FhuH7+FA5t8UW2DcK3CEKDdsaoVFMfF05GoEodfTTvMxQRm3yx3Xda1pjJymPunmTEH9nDbb2ZEAOSkI/12Yb7N67i3OFdMOo1lA0Sd62Yhd2BPyYIJhPno2GbXmw3ce1CNKo3ao24yO0oKlEctl5BbCNxYvcGyCuVQlmNyojY6MOGirKyMpg9azar15oZGuXCPmsj9GWplIXloJxrNMdJLD558kS2GG/QqHHONcNeQ6HXuA2q67dB4unDuHh8H07v38Lqju8RBCIuFWs3hYycIoa5r0TMwe04Ex7MEo7056lQUa+IcYt34eWzNEQFr8DVcydx92o8v5PsU44fPcokdtyECfxbNkGwtrbC8uVkT5JVSNJGMR1oPpPIf9PGTWwwTAaveno1UKdObbaVuXf3Hs7Fn0Onjh1ZulVWrRzbytAGTHZAmRmZaNuuHR48eMA2CCTBcLC3w/btO1giRwcHMsYdOdKG3/sjgkDqvUmTJmHVypWwd3RitUN2cZ3mwuoBIu0zZs7in7MJAkkU9+zN2nzJLiUy6jD3idaeUydOslGeubk5UlJSMGDgQIwbN443R/p25eXkmZRv3rw5hyCQLn7vnj1IuZHljvr40WNei0JCgllluG7dOo730ry5EQ4cPIi9e/fyWkaYkM6eLP0bNm7MmJQtWwbRJ0/iwsUErFq1EhRLgAxCFy9ZgusfD001qlfH7t1hOHLkKPbu3YOg4BDe+MkezMMjiwRWrpLbfXHwoEEsZbx56zaaGWQdALJLXgSByBfZkRGxu37tOhMxGltSgZKEhMguqVxJQkxzhOZ92TJlsWLFCrz/8AH6TfRhZmHOBMHJ0YH7kl0Iq6XLlvF/iThv2rCB9wKrESPZQFSULAR+K0Ggk6az81TIysjiAz4gLTUNg4cOwZkzMTyodKonS9vsQha5/fr1w6DBg1FDVw/tOnaEhnp5rF+/HhEREWxsQ94La1avgqycLB4+eIBKlSvD2dkZS/2yJgMtlL179cKUyZOhqKTIfskkYehrYsyTjfTsZLVLhjkkeos7e5afsRo2HDa2Iz+62URi8NBhXF9I0FbUrVeP/ybxHJGca9eTERERjhspN2E5KGuRvng+Hr5L/XKIyvcm4IX4eEhJS+W6PG2aK9atXw+bETbsHSEpJckWzc4uLizRIANGL08PdOjQAZmZmew/HBwSjBnuM9lokcSxhkaGbNFMrHqpX1Y7tLW1WWqjV12PVSWkix1mNRxRUYdBkpv5Xp4sZZk1e85PfS/h+/cxiSBiRoQju9AHvXDhQv4AyT2LiFbWLCyGPqNnoknnASgmIYG3b97gcMgKbF/qCk3dBixRUFZTZyvpN5mZ2OQxAWfCs+otUlQSdoGH+DoVu27VUKV2U/SdMA/yJZQ/zZ30l3DsoYtGHfsxGfEY3gFP7iVjwJSF0NNvA6ceemhhbI3OQ+zYbfLd27fsauk5PEu8y3NHQhL9JnqhdosujBcZ7gV526PfpAVo0K43qyVuXY6HqrYO9q6ZjwPrF8I99CLOHdnNbVarXJOND0MWO+P0vs38niEzVkOnngHPsSf3b2PD3LFIijmM1gPGob35GBSXlMKH9+9xLT4aG+aOydH908l47tw56Nd3AE6c+uSuS14pC7w8Ua9+Qzx99kmiQvXbjLTB6NG2rPpq1aZNTr9cNsVCoeQnrJ49eYgVTpZ4ePsanNaeQPBCB8RF7kDFWk0wyGUFFth25G9krM8uyCqWyDU3Vs2wRXxUlp1OT1t36HceiKLFiuL0gRBsnDMm516fRQtRs2YtmJKnzM2b3P/s9n1eIZ0Uq9N9AwfC3t6OLdOJjE93c8O6DVnkk/TPY8eOZTd32njlFRSgoakFij9A9g4dOrRn7wUiVuSloN/MgL9jMmBs36E9rzGk746LiUXPPn24ziNRUbicdDmXy3V2u8aOHsWqPjqMTHObnosg0EmcJALL/JZh7kfDPQUFRRw9EsWbc3Yh/JYt82eDwamOjvxMMYliyHidwTYJYbuziARtXPUb1Gc7IkVFBZa40LvHjR0LG5vcHhFPHj/BkKFDce/+PWzeuIlVfzRPyXaC1DHk/UCFvK6mOjkh8WJCTn/pd+PefeAyzRmKioq8GV9KuMRGm1euXs1pN6mv+vTqzaqqtu078AGhS5cumDHdjQlHnY9rYfYDRNKmTJmMO7fvoG379rnmSrWq1bB162aEkgr0o5SSiBpJOCwHDUZ0dJYt2qyZM2Fs3IcNo5evCMDiJYt5vEha4ufny393694D9evXg7/fMpRSLsVrBUkE9Js2w5DBg3nufF7oUFOzVm3+yWr4MLi7u2cZh44dx95VomQh8FsJAjVAVlYO1apWZXciEkf/02iJurq6IDefF89fsIsMLSxdunZD9Gc+sN8bfFo0SLT+6vUrJCV9bfz1refoA9TU0OAP5sqVTx/SvzXBSquosBFlfPx5JgNUaHHV128CWiDIOHDN6tVsNEhWu7Qo0Skr9Uka1NXLY9kyP4wbNx6h2z75rJObZYkSSki8dOm3iteKFpNC+Up6eHj7Kl6//OQVQX1UUa/Ep9V7yYl8sv23iqS0HFQrVEXq/VvsMZDfQjYTCqVK4/Gd67yh/0wpWUYdJVU1cDvpHDJefbLApqBRZbWr4sWTh3h895OunOqWlpKG94IFHEPE7aPtB80D0mGT8R+R3s+t63+mPf+Pe2nTXOHvD79lfizWzU+RlZFB9ep6SLqS5fKXPfdr16rFtggy0lK8wFerVhWNGjdByZIloKerx9KUqlWrwcnJgQ3uRo8Zm/M62gx1qlTGjZu3+CT9u4qysgrKq6nh/MULOSoLWo8MDJrx5koSuY0bN7BBdn5ipBBZrVSxApOKhMRL+Q6aRQek6nq6ePr0Oa5eu/p/i8ZZkLhXqKDN5JA8VD6X7nzvHWTQ3aRJY/YIW79hQ0E25T9f128nCAWNIAWQ6dW7F548SYW2libruseMHccW/IW1EAmg4CGk2ycVSmpqKkaNHo2zZ89BS1MTW7duYRuJcuXUWHxJesb8EqDCillh6BeNddGiRdj7hwqdmohAvs7IyOV2+qf2lXS/ZKT4/Pmvhzwng1kySibiQP0ngmxv74ht27eBvGZI9E2nYVJhkuTBwtLy/0LkCwJzFWUVHDt6mO2KaKxfvHgOU1MLtikSpeAQoEi9JNEhgvD0M3ftgnvDf7emQkcQSFyora2FKpV0EHs2lk8PX+Z3+O8O1/dbXqZ0abb4TUlOwdXr1/j0SJOeFk3yEiF7jEuJl5F8I4VZtUiQUxhnwd/ZJzLk02/chF0BT0Wf5Ih8NL9JuicvrwCDpk1x//4DnL94ntVs/5VC3y659FHfkq5e4SBt2VLD/0of/gvtzFZj50fa8F/oT0G2sdARhIIER9QlEBAICAQEAgKBvxUBQRD+1pEX/RYICAQEAgIBgcAPEBAEQUwPgYBAQCAgEBAICAS+QkAQBDEpBAICAYGAQEAgIBAQBEHMAYGAQEAgIBAQCAgE8kZASBDyxkjcIRAQCAgEBAICgb8Ogb+OIFCI43p163H6VIqqdur0p8yR5FZErlHkN/25G2DTJk2gpJR1/+mYM18FD6EANdWrV8fTtKccRrgwFGmKLvfhA968e/dbu0PjJSmVFVmSXNSEm9e/NxxSH6OWZvyLMUPIpUxGWpqCNrAr7j8NjEZoUHj2Bg3q4/jxEz/txkjfe1WdqpwX5caNmwjbk5UbQhSBgEDgD4ik+P8eBHV1dezetYvDIl+8eBFjx4/nJtDvRoaGKKtaFg/uP+DQxtnFz9cXVatVg4KCPAyNjD5lO/t4AyWTWbpkCWbMmImgkN+TY1xRWhq1ypfDievJePuTkfy+HIPixYrBrXMHHL+egh3nL/zWmAmDLCw4OQ9ldqPMmvTvv1Z0qlThiJbnL1zIV2S3vPpHycPq1qnDYcALMrGMa5eOKFqkCKbuCMurCXxdVrI46qir4+rDR7j//Hm+nqFvzNHeHtIyMpwjgcKj/9NCcU8oP0lgYCDcP+Y/yG+dVSpXwe7duzjtedju3fBZvDi/j4r7BAKFHoG/ToKQTRAmT5nCSUeev8ha2FYFBqJRo0aIPh0NTQ1NzqCWXRQVFNGzZw/ODfElQaBwqJTXgTI0NjMw/G2hSRtpacKnnzHaei/B09f/LBSxdPHi2G1jjZC4c/CJjOLEJ7+rVKlSBRUrVoS/31IOHU35Jf5rxW3aNCag4ydO4IiW/7RUq1aN8Rg8ZDiSrlz+p9XlPD+/dw8ULVYEYzZnxezPq1QrUxp+pv2xLPII1p35Ou30t56nkMGUBIhyMcTGxKBv/wF5vSZf1ymnSO3atTF4yJBcGUTzerhb126YPWsmhg4bjmPHj+V1u7guEPirEPhrCYL1yJE4evRozmBfTbrMhGHQkCEcffDL6Iu9e/eCg739VwShfLlynH99/vwFWLt+Xa7JIycpiU561WBYpTJib9zE2ugzePP+PdffUEMdPevUwu20p/A/chwZ77NE+QMoGuKTx9CvWAHSkpJYeDAKzz6mUabTXUNNTfRtUBe3nqRh3anTuP/yBTpU1UHLqjqwNNDHzLDdSH+diRMpNxB/916ek1lOUgq96tREQy1NHE66yhIDEv8SQdgVfwFPnj+HdhkVrDkZjaSP+eUrq6igX/26UFGQx65zF3DwypUcqYVmiRJoUbkSgs7Fw6xRfZRWkMfcfQeR8TGlNyVeIczMLS3zbNvnN1y7ksSpZL8kCN26dEG7du1wLj4ea9etyxVzfszoUVAvXx579uzl7H+r167H63yQJ0r4ZWY2EMWKFoP3ooVITs5SG9FJdYSVFYvGPbwWcEZQKvT+kiWUWLLUvn07lj6RuLtyxYpMHDt37sIqrW3bQvHo0SOEbt+Ohw8fsTrLyMAQvXv35Ch5XvO9ObsfZdbr3rUbLl9JQpfOnXHv3j3Ovkmlc6eOMGhmwKmO129Yj0cPH+JMTGxOitufAvXjzcqysmhVpQpkJIvj+pPHOHw1K+W5RNGi6KRbFSmpqWirWw0SRYoi8OQp3H/+Ao00NNChejUMNTJA+MVEHL9yFfF37uHUzZv5IpTxZ+NYgvclQaihVx0Wluac+O8QFQAAIABJREFUtGj5iuVITrkBJUVFdOzQASejo2HSpzfnb1mydCnu388KMU1Fsrgkrl5JgqOTE1avWZNvGMxNzWA7ygbmFpZITEzM93PiRoHA34CAIAgfR/lgRATk5GQ5R/25+PNfjf33CAJlRDwYcQADB5pybvjsUkpWFpuGWaJ8iZK4+ugRSsrIYEtMHLwjDsHW0ADO3TrhyoOHKFdCCbdSn8I8cDWuPX6M9EWeSH2Rzs/oqpbFvoREDF+7ES8zMzGnRzf0qFsLl+4/gLykJHadvwDP8INYZNIHdTTVWcVw7Op1vHn/DquPn0JQbBwlWPtuqaSsjBUWA1BSRpY3gfIllGC7cStib95iglC9vBq3UUlGBqnp6ejtt4LJTaD5AM5Pn/HuHaqrqmLz6Rg4bt/JJMGiSUPMN+7NYudiRYsg8+07RFxOwu1yGjgVHY2hQwZzSlY7BwfOqkmpfe/nI0nOlwSBYvBT3g3LQZZIupwEVTVVTkvbu48xt23pUl/OQ3/t6jVObkVZAI2MjHAx4fubAG3YLs5TYWFhwam/KfQq6bdbt2mLnt17YInvYt7ISY9O2SoHDjBF5OEo7A7bhbp16uLmrZuMD52SzczMOWOgubkZalSvAWkZaZw/f55zhCxatIjVDZRpsHv37rh8OYkTad2+dRtDhw/nHAL+/suYTNy9cxfVa1RHYOBKODg6Yu6cOZx3gE7LlIr85csX2L1nL1avXv3L0is9NVVM79YZBpUq4fKDBzD0WMBzhghuwjQnSEkUw4U791C5jAoOJSbBdvMWDG3WBF1r1UJtdXXcePIEN1JTcTDxMhYdisqXiutLgkB2PP369oWLizNn4aOwyfJycjDp24+Tka1dsxqlSpbkMS5TVhXXr11Dl27dcs3tK5cvwdNrPnyXLs3X2k0hmufNmY36DRpg0OAhuHIlfwna8lW5uEkgUAgQEAQBgEGzZli82IdzqEccjMCECROhqqqGunXrYsfOHXj58iW+RxAqVayIiIgDMDY24Q0wuzi0bwObls0xbnMwgmLPQr2kEiSLSSDp4UPcnTsD0ck3YLNhM3TKlsHW4UMwfkswAo+fZIKwKToGdiHbYNeuLYx0KsNi5Rqcv3sPF5wdEJGYiCkhOyBTvDjkpCRxIzUrq51h5YpYbWmGejPmIfV1er6m5igjQ0zp1A4DlgfiyNXr0ClTGg9fvGQyQgShuEQxmAeuQT1NdSwZ0Bf6c71wKzUN1dXK4t3b9yijqADLpk1QX0sT9WbORXpmZg5BOHLlGiYHh+L1m7eQk5HG4HHj0bhRQ0hJSUNeQR737t7jNL8u06bhenLuTIXfavyXBIEy+Pn5LeXNZNKkyaDU4dYjrDF23DjOUU+ZDkNCQuHvvxxubq5o164tmjdv/kOCUKtmTezcsR0nTpwESZgyMzPQqFFjTiW+ccN6NG7cGD179gJtLMHBQQgPD+eNhQgCqUFGjrThPADbt4diyZIlcHWbzl2htMIaGhoYZmXFeeyp6DdpjG2hoZzafN36ddCtpgtzC3M4ODhyoiXq2+pVq7HIZzG2bN7Exq9WViOQ9jQNNWvWxPp1a9HHuB8uXUrI11jn56ZD48cwqfucIFyaNhW7zp+HQ+gODGjUALYtjNDa24fnQa1yalg/xBI+ByOx9MjPiee/JAilS5fG6lWrmAQEBARwymZLSwvEnDmDOfM8mCDcu3sXI21sOaX6CGsrqGtq5erWyePHsWfvPrjPdM/TmLVtmzbo1KkTS3i2bNmKOXPnFqg9R37wFvcIBP50BARBAHgzada0KYsnlyxejAXeC/Ds6TO0adOGjRjJe+FHBOHQoYPoY2zCqWSzS+T40ShWtCi6LvZD6qtPNgGl5eSQMssNnvsjMHXHLr799uwZmLsvnKULaQvmYtq2MCw4eAgtKleE78D+MF+5BtEpN7CgT0+Y6jfG45cvcPjyVUzbEYZbT7N02r9CEDYNtoCctBQsVq3F45efSEW2DUJ44iXM3heO2uXLI2TEULRe4IOHz55jds9u6FyzBsjqvbhEUWS8eYfKzq54mfGJIJgtX41dCRdz8KA0slbDhsHO3o5P2cuW+cNr/nzOPJmf8iVBaNO6NW+i1lbW2H/gAKfFXbF8OcLCdiMuLg6zZs1ENd0aePYsDY4ODhgzZjRatGjxQ4JAeePd3WfAeaozli1fntMsSpizefMmtr43at6Cfz8bF8un2R49ezFBKKGkBAOj5nyKv3PrJlatWQM7O/vvEoTJEydi8pTJbHWfnUCIpBXOzi5sQLtgwXxMnDQZQUFB8F/mh/Lly8PKegSTqv8nQbjo4ogpIduw8XQMDCtXwppBZmjuuRApT54UKEHQ0tLCgfBwyMhIMx40R0hKRKmOzSwsmCB4enhg3YaNnMKdVFUaWrkJQuyZ09i4cTM8vTzxNg/vmx7du2P82LGoqlsNPj6LWXX14cPPpenOz7wV9wgE/ssI/PUEgU4ufkuX4t27tzA1NWODQ2trK5w4eZJ1pGRlTfYI3yMIWQvbfgweMhRRUVE5c2G37QiUlpdDL7/lOad8uigvJYUHHrP41DU5eBtbjd+b647pYXux6GAkUufPgWPITiyJOoxmFbSw3NyUJQinUm6wDrh5lUoY1Ewf7avrYv2p05gYFMquiEQQVlmawWDOfNx5/ixfczLArD8qlS4NY/8APPgs5e6XRop11Msj2Hoo2ngvBrk/Hp40FjN37cHSqGPo17A+XLt1RhVnN7zMyMiRIGjZu+B5ZlbmPElJSVBK1fr167PenazwU5+kIjUtFRYWlrhz926e7SXxMXkwTJ/hzve2bNGCCQJtFIGrVrPuf7GPD7Zs2YLz5y9gzuzZ6NK1C+LOnsOM6W4YPnx4ngSBpBCenh5sTzJ33rxP5EZaBkFBWziVcsPGTXjzunA+HpcuXUbPXlkEQV5OHobNm/Mzd2/fYj34lI8EYb6nJypUqIAhw4bi8eMsCYKtzUg4Ojqy9INsJz4v3bt1g5eXJ8aMGYOdu8IYO1JlWVlbsyteNkEwM7NE3NnYXM8SySC7CzIsvXz55wwYvyVBOO/sgInBIQiKOQuDyhWxbpA5mnstRPLjJ6ippooNQwfBL+oIFkUeznMMP78hNuYMkpKSWIVARVNDA/v27cW4ceOxe8+eXHXp6ekxQbC3c8De/fvYq2X2rFlfEYTka9cwa/Ys+C3zz3dbViz3Z/I13MqKsRVFICAQ+ITAX08QyLhpofcCdO7cGRMnTWS9s/uMGVBQVMT06TOw1M+P0foeQVBRUcHqlStx8tQpuLq55SBr3rABPEx6wWt/BIJjz0JbuRRLEkgSkDjNCQ+eP8eMXXugU6YMXLp1gu3Gzdh0OvaHBGFAw/q4fP8BMt++RYCFKdsHjFi/ieutr6mBVZam2B4Xj5C4s0h5kooHL178cK6bNmqAeb17wmnbDhxOugJdNTWcvnETj1++zOXF8DlBUJaRxVbrIbAP3s6SDIeO7VGlbBlUmvpjgmBrY4Njx46x2FhFpTRcXV3RsWNHhISGICkpb93vzu3bkJGZyZIHOkW/efsWfkt92ZBwnocHOnXsiB49e2BA/wFIf/WKycO1a9cQHBzCNgWU7jovGwRtLW3s378XycnJcHGZxtKAypUr8wa+MiAAbdq0xvgJE9m2YM6c2QgOCobt6NF5EoRJEyfA1NQU7u4zeVO8dPkyNDTUEREejpOnorHIZxFevniJKjo6iI6Ohm61aj8kCFWrVsWqlYE4HX0aGzdtYruIGzezNre2bdtiyWIfvMnMhF6Nmvla69QUFaAsJ4dAC1MULVoEFoFrkPoyHWmvX+NHBEGrZEkEWQ3FnadpmL1nP8+5O0+f/tDuJbtB5DVE3hjuM2ciJSUFKTduwHfxYigqKrIxKklndKpWxc0bN5CalpYnQaDx3bxpEyZOmoTQ0G356jfdZGlhARubkTA3t0CCMFLMN27ixr8Dgb+eINAw169XDwEBKzj3Oul/paWkIFG8OPbt3w97e3ukpqZ9lyCQAdUIa2teZHT1qufMGslixeDZuwd616uDtPRXkJSQgMf+A1h6+Cha61TBSkszvldRRgY7zp7DqE1beaMnCYJDyA74Rh2BvrYWE4FsFcOFqQ6QKl4M795/YNG+8/YwrI8+w6dF2eKSmN61MywNGrOR49y94fA/ehwffrBcq8jJYU7P7uhQXRdpr16xdKP/ipWIYSNFKwTHnsPiqMP4nCA8TX+FtYPMUFW1LEs/uC3FiqHqtBksQTBv3BDzTXpD+zMJAvUzOwDVxAnj2Y109NixOb/l51Nr1bIli5gpnsC5+HPo138ABg+yhOs0V7xMfwkZaRmEhISwSojeRWPi6GCPV69e49XrVyAip9+0Ka5cufrD1/Xo1pUJB4m5KVjW40eP2eW1bu062LhpAyhwU5GiRfHk8WP07N2HyUReEoQG9euz0SFJTsgjwc7eHseOHYfpgIFwc5vGxIc8Iz68e49JU6ZARlqK1S/ZEgRSe5EHRbaKgUTvkydPwtAhQ3i+rl27jiUeRGi6du3KErG01FTo1aiRH2hZddWhRnU2mKVyJ+0p9l9MgF3ojh8SBPJycOnUAaNaN8eTF+nYeiYWjjt25Su4lq6uLgJXrICyijIbHLbv2AmGBgbw8vREKeVS3C/yXpgzdx6iDkdh7erVmGxnh/DwA9+UIJDtSNEiRdFvwAB+Nr+lZcsW8PfzQ7/+A3H6zOn8PibuEwj8FQj8dQSBXOy2btkCtXJqvLi3aPkp3kGNGjV4A4qNjeUFO7uciT4FZRUV3LiRgvYdOuHVZzYFdI9OFR0WA9MG5bNkSa6JQy5kddXL4+K9B7jz7JMPvGzx4qhTvhyuPnqM+3mc9LMrJNJRQ1WVPQPO38/bhTG/M5g8LBpoqrMh5N1n+Qt4QwZq958/w/3nL/P7mn/lPgkJSbRsbsSnv1u3b+W8g7wWqEhLSsFpqhP69esLdQ1Ndjf8VqHxpo2FNllSidSvVxdFUBTHTnzyTCHiQd4Db9++YTXG59E2f7VzpHNv1LAhPrwvgqPHj+Pdu0/z7mfrpPYNGzoM06e7wmakLbYEbf3ZKv6I+2vUqA718uo4eeokk/O8io6ODrZvC4Wnpxf8P7Mdyes5uk6qjV07d/K82LVrJ6xH2uTnMXGPQOCvQOCvIwi0+JMOV1FRgfXgFI0ur0ISBkUlRaSlPsXZc2e/6U5Ws2YNFhNfu57lQy7K70Vg0UJvdkUkr4KmTfVx6NAhLPNfzgGxSEXwZSED0wkTJ+LBw4e/t+H/4O3kXTFn9ixoaWphoJlZgYQx/gfN+b89WrJECdSqXQuHDx/F+4/xRPL/8iKoWLECGjVsgFu3buPIZ7FR8l+HuFMgUDgR+OsIQuEcRtGrLxGgWAINGzSEgqI8EhMvc5Q8si8hIkd2C1+WtLQ0JF5KRGbmr5/gf/cokPEkbXZv37zDjZs3CkTC8bv7JN4vEBAI/D4EBEH4fdiLNwsEBAICAYGAQOCPRUAQhD92aETDBAICAYGAQEAg8PsQEATh92Ev3iwQEAgIBAQCAoE/FgFBEP7YoRENEwgIBAQCAgGBwO9DQBCE34e9eLNAQCAgEBAICAT+WAQEQfhjh0Y07G9BgNwuyVXv3mfpi/+Wvhe2fpJrLeVuIY8ZUQQC/3UEBEH4r4/gP2g/haft07sP13A4Kgq79+79B7Xl/9GR1tbYvWc3rien5P+hQnCnorIamnazQPSejXh891MGy9G2thyps/lnQbucHBwgKyeHtLRUzJ3nUQh6/2d1gbKw9u/XjzGmnBVbg4L+cTbHYsWKI3z/Xvj6+mLzli1/VodFawQCv4CAIAi/AFpheaRPr56YMsUO6hrq2LtnLywHD/6/dO1SYgK/N3Rb/mPm/0rDRnoGQ7dxC6x2s0b0vs2/UkWBPlNdvwMGuy3HutljEHMgiOumNNCUU+LK1asYPXpMzvsiDx6EqqoqZGVloKGlXaDt+H9Uplu1GgdtWrhoEcIjIgrklZ4e8ziM9rjxE/5xfUaGhpjm4gItLU1cuXIFw62sOR/EPy3BW7fgyZNUDrr19CdCPv/T94rnBQL/BgKCIPwbqH6ss0b16pwD4OnTpzh/4UKu8M0Ul7+6nh5H9buclIT79++jnJoaJ6u5dDmJU89S4JsK2tp4/vw5Hj56hGrVqvLfGuoanKwoPj4+V957ykpXuVIlTlaUmJjI9+annDxxHAkXE74iCJRQqFLFSiwypYRKrzNec3WUupkSCklKSXGiHSlJKaTcSOHAPNn9or8pS6NEsWK88FJfqH0UX9/czBSrVq/BxYQErk9FWZkjW1JOggraFTgE9u07d3IC/ejoVIFqWVVOSkTRAknyQOGOf1QkpWUwJ+w6ihYrhtP7g7F+ti3evX0DaTlFKKtp4umje1DVroZnj+/hwc2sZFGKKqqQkVfC+zdvoVRGDfeSL+FF6qfIikWLFYembl1IFJfE7aR4vHqRFTq7rJYOMl+/hrScPOSVlJGSEIPM159CUKtV0IWsUikoKathoN2CXASBMjfOmzsXBkZGePDgQa4uDR0yGE6OjtCuWCnX75SLgfCXk5fDlaSruJcTdrsIVFXL8hy4dSsr7DTNPUp2lFehcdOpUgVKJUpwkitKiEVjKCEhwZkoKUPkrdu3cfXqVY4kSjkpaHN98TIddBqnOULzmETrGurl0apVazg7T8XqVasRsi0U9+8/4DlOhVJjV61WFUWLFkNiQgK3jzZ+NTVVvH//AQoK8ihTugwuJlzkzVZOVpYDQPkt9UORokU4q2VmRiYSL13Kq1t5XnebNg2NGzf6iiBQVkz6PmneUrTV16+z5j59j5TdlcagTJkyOHvuXK7vrHGjRli9ahUGmpri9Jkzud6vpakJCgFOOGVmZubZNnGDQOB3IyAIwr80AlOdnDhbIW186enpOH78BKZPn45Hjx9DXl4BgQEreNGj0M9HjhyFg6MDzAYORKfOnWHv4Mj5IGgjDt66lTNKbt+xA3SqpLrKqpblhXjRIh+sWbuWFzF6F6UQVldX58UnODgYCxZ442V6ep49/BZBaNa0GZycHKCpqYlnT5/lyjNhO9IGxsZ9IFFcghf99PRXGDBwIGSkpTF27Fh07dIF7z+8502D8hsYm/TlvtCJzdDQAC+eP+ckPAc+nixJ1DvI0hIoAj413751G31MTPDy5UvQBjp27BhOtUw6+uISErC2HoGEPDaH+m36wNLFD4mnD0O9cg1MM6mNjFcvUa9VT7S3mID0F89RurwW0p+lYt9ab5zetxmdhjigTouu+PDuHeRKlMLjuzewce5Y3L2eiBKly8FkvCfKV6mOYhISeHDzGrbMn4y71y7CxisI0nJKkJFXhLScAlISYuFvbwrgPVqYjIRBdwtIy8oj/fkzKKtp5BAESvRlb2eH9u3aol2Hjl/l+PgeQfDy8ICBoQFvUlevXoOHhweOHjvG82mR90JoaGrg0aNHeP/uHZb5+2Pzlh/nZChXrhzs7aagcePGkJOVY0I3bvx4zjxJYzNs2FBQWvSHDx9imd8ybN66FWpqali9MpBJXfly5UGRKB0cHXH4yBF4z/dCixYtoaqmmjMHtm/bjpmzZzMJmTJlCmfXpHkbGxuHSZMm4dXr17CbMhm1atdmewzKjRATGwsrK2vo6episc8iaJEkpQiYvLx48QJt2rbLc27ndcO3CEKtWjXhaO+AKjpVuI2Ud2PEyJH8Tp9Fi1CxQgXIK8ijhFIJXLp0CX37988Jv07fX9iunZjm6sbf4OeFMnBWqVIFffv15z6IIhD40xEQBOFfGiEnRwdcv56MrUEhmDRhHEaMHJGTPpoWeP2m+nwSunQpCdZWwxEYGAhJSSnEx5+Fp5cXPDw80bZ1G/j6LuYsfrSZPnxwH2fjzmKy3RT4L1vGmQFps3z85AnOnI7OWtD7D0TFihXRoX07JhbP85EI6kuCQBvP9tBQ3qwtLQdh7LgxaN26NQyNjPDhA9krROJAeDj8l6/AypWBTEgaNGwEWliDtm7F9m3bsDMsDD4LF+H5i+eoVbtOLpSvX7uKSZMms96XysgRI+Dm5oo1q1bjdGwMZkyfjmV+fli7bj2L37UrVMDoUWMweswoNG3aFB07dED0mZgfjtyQ6atQvWlbrHSzhoXTEnhat8edqxdg1Gsoeo12R9qDu9iz2gvtzcZDoYQyJnWsiAGTvdC0mznORu3GpTNR6G7liOSEWCwc1QWD3QJRt2V3hCx2YamD2VRfJJ6MgO8kE0zbFAMF5bII8XFG1YYtUNuwI5Y7WeL6hdNw2xKHh7ev4+BmP3QZ6gBpWdkcgkDSow3r1+H5s+cYZmX11anyWwSha5fO8Pf3x/r163Hu7FlOIb1tx3ZMmjyZySQRuqlTXWBi3BstW7XC1KnOOSnLvwfYxPHjmBAMH2aFg5GHYG1lhT1797J0KC7mDOcXGT1mDPx8fVFKWRmdOndhydeJ48dwKOIgnF2ncQK0E8dPYISNDfeDRPjLl/vD08MTfv7+/GqSRrhOmwYzM1PYTbHDm3dvMWvmTKxduxZe8xdgvpcXunTpDDdXN8jIyGLSpImoW78e7ty5y88f2L+PpQ4tW7cusK/2S4JAEirfxT7o2rUbJk2ehGLFJODi4oy9e/bAasRIhIaEsMTBfYY7KlSsADMzM9ja2DJpokJEat3aNbh44SJnFv28HDkcBUrV3US/KUtiRBEI/OkICILwL41Q5cqVoK/fFA3q12OxYqdOneDlNZ/T8rq6uMDYxBh+fstw4cIF/nf3XlZ2xm0hwXjx8iVGjxmL0OAg3L17jxddOo3fvXMbTk5TsSIgAGNHj0a/fv1gQSdvABERB5hI7Ny586d79CVBIHHzxfPnMcPdHctXrADlNdi8aSMcnJyQ/iId3t7zYdy3L86ePQcX56no3bs3EwSTPsZwdLRH67btuL2zZ81E8+bN80UQKH2xdoWK0NbSgp/fUty9cxcLfXz4vS4urli3fh0vxlRnj+7df0gQ5EqowNYrCMUlZbDRYxz6TvTE4zs3sHSySQ5B2LFsJg6s94bxeA8+4S+Z2BcNWvdkguDcuzYbEU4JiIKMvALmDWsDG88tKFe5Bs5F7WJ8dRu1wqM7yfAZ1xuTlu3Dq5cvMGewEfSatMWIeZuwdaED3mS8Qv9JXtjhPxP7VnvCZLwHGnfsl0MQiIjRaTM2JhZ29g5484Xa5FsEYfPGjahYqSKGDRuO2Lg4rAwI4JPuoEGDcejgQbbrsLG1RdGiErh9M5lPskQUf1Ro/JMuJ8F21CikPf2UcZQs8mNjzvC82rFjB/T19RG0dQsMDI34ZB156CB69zFGTEwM5syaBT09PfTo1YvF8d8iCJQp9djRo3j39i1i42JZrcDZMd+8Rdv27ZkgkITBsHlzNGvalOeBk5MzQreF/t8IQu1atZiUliqljMioSH5v61atcfv2bW4XEYQKFbRRu05dNGuqj82bN2PB/AWY5+nJ95YqVQrL/JYySRowkKRIn4qlhTmraxYu8uHvQxSBwJ+OgCAI/9IIhe3cAW3tCti0eROSU25g7uzZWLBgAWbNmQMVZRVYWpqjR48eIL3krrAwuExzZXF9yxYtsWypL2bNmQ13d3cmFfM8sqzYb6Qkw87ODus3bESfXr1hZzcFZhYWqKClhcWLfXgh37d//0/3iDYI0gVbDMoyUpSXk8OlxESMGj0awSEhnP1y/bq1CAgIYDHruHHj0H/AAMTHn8fw4cMwetQoJgg2I0fA1NQUnbt05b5MmTIZJsbG+SIIw4cNQ5169Rgb2hjeZGayJGXLls0w6dsPp06dQl8TE8ydOwd9evfOIQikB5aSkuS0wNQ2KrWMusDU3gfv379lOwKyAZCUlsWEthpMBkiCEOA8BOeidqLDIDt0GjQRga7DodewJRMEm6YlWT0w1icMJcuWg+/k/hgyPRDFJaWxb41XDr7pz9OQGH0IdgGH8PBOChaP64lylWrAYVUUQpZMYxF/r1HTsXbmaJwMW4u2puPQwWJCDkEg9dISHx+UUi6F/gMGIiMjI9fYfYsg7N61C7JysjA1NcPNW7fg5joNXTp3hqm5OQ4eiMCmTZsweuxYrufWzRuYMcM9T4Jw4Xw8QkJCMX3GjFxtqFa1Kvbu3cPzas+ePayCICmFUYsWXP+esDD07deP9fCTJkxE23ZteOy/RxDIliA2JgY7d+3CmZhP+vn0l+ksISOCQGNpamaOBvXr8zyYv2AB1q5d9+8ShCaNMXy4FatWSDrgt3Qprl29hqCQTyoCUrPt2LmTCYKCvDxat22LKpWrICIiHEt9l8J91ixuI0ndtm7ZjJ07d2H2nDk//S2KBwQCfxICgiD8C6Ohqa6BI0cPY1voNoyfOBE9unXF4sVLeLGbNXs2v5HErXRSJ4O90aNHY+zYcUwUyFAraMsWqJQuzWLcJvr6LEVggpB8HVPs7LFhY26CQKqGxISLrG4ICc06bf1MOX70CBtBduvegx+jdp2Li8Oy5f6s6qDFmlQH5ubmSH36FLt27kCvXr1ZR+y/zA8NGzZkgmBoaIiA5f4wMGrOxnH+fn58us2PimHY0CGoW79BLoJAiy4REzq9Ojg6YdjQoZgxYzpviNkqhhPHjkGltApmzpqFgIBAbn/LviPRY+R07Fzmzv+vWKsxahq0x4qpllAoocIE4UhIILZ628Hc2R/1W3WHh1UHGPUcxATB06o9rsWfgNO6UyzSnmHaBGN9dqCsZlVM6VzhK2hJxfDg1nUsmdA7F0F4cvcmBrn6I3KrP4IW2mPIjFXQa9w6hyDQKXzIkMEYaWXNRopkXPp5MR04kEXwGlpaOT8v91/GJ3lb21E4eOgQiDBISkli6LDhiAgPR9Thw7AeYY1SJUohLi4GU51d8iQIB8L3s0EinXg/N5Qkg9krly9OXTl2AAAgAElEQVTBasQIJhCtWrXCujVr0MzQkCUI9O5+/ft/kyDQ6ZoIJakPps/IGgeyQzmwfz+OHTsOOwf7XLEC6F1EEIoXl4C5heU3CcL+vXshJyeLpgaGX43BysBA6Faryi6hQV/o/n/0LQwc0B9jxozhd5JhL9kIkASBDG+pn18WIgjysrJo0779NwkCqXjC9+/j8YiKisr1+AIvLzRvbgTjvv1x5UrSz3yi4l6BwG9BQBCEfwn2I5GRUFRSxOnTp9GsmQGUSijB23shE4SN69ezePVc/DmWIpB3wCjb0SwyJuIwftxYTJo4EVFRh9Hb2DinhZ8ThN4sQZgMc3ML1hHTwq2rp4vNmzahrKoqPrx/zyqBp0+f5dlDL08PdO/eHWfOnMHusD1Yu34dSzzIN3/v3n1o3KQJMl6/QveevfhUvGH9emhpa+Ly5STUqFGDyUDDRo2hqaGBgBUrUFa1DJKvJ6Oari6LUokgkKV7nz69mXwMHToUhw4dYvcyOn316NkTuQmCL1upDx0+HGTsaWFujoSEBGhpa7G6hgwyz8TEcr8SLl5E6dIqcHZ2wRJfX8gqlICZ01KULFMOswcZ8T1qFXUxZcVBxB7aievxJ5ggvMnIxO0r56FRtRbuXkuAx/A2GGi3iAnCk/u3kPbwLjR1aiMyeDmCF9qj7cCx6DR4Ch7cuobLMUegpVsPqfdvItBlMNsgfCII1eGw6jDbKhzc4gf7wCiUKFue7R80dGrxuHzu5tiyRQv2mzcx6cvz4fNSt25dLPReAGlJKRyKjERAYJZR4O6wXXj86DFjW79+fSxcuBAenp4YNWoUxo4ZwwZw5HUgIyvDkqm8VAydOnbEQm9vnqtnz53l+ers4oyLFxMQHLQVlStXRvj+/ejQsSPbwNC4kBEhEQQy0DuXLUFo2wadu2ZJEFRUlJlUqqmqIfxAOMJ270ZY2G4Q6XGd5oLrycmIioxim5IjR49igbc35nt5spdKLoIwfz7bolAh2x2aQ8ePH8f58+cx3X1mDlynTp6EpqYGnJycsHxFQJ5zPvsG2tD3hO3CzRs3cenyZbhOn85z0dbWlo0TY2LOoKl+U/42yU4jN0GozKq9zyUIvXv1gqODPUzNLXDx4sVc7SCJS4MGDdC8ZUtWK4oiEPjTERAE4V8aIdKhtmjeHMoqyrhy5Spv/OT2dOzYMfTp3Qv169Xna2QFfe5cPPaHh+e0ZPCgQZgx3Q1dunZFTGxczu+jRtki4kAELly8CBL/Nm3WFNu3b8ejR49RqVIltnOoVbMGXr5M5439QMSBfLlTlS9XLsvjQkkRKckpfAIj1Qfp+uvUqY2bt2/jwIEDOHr0GFtr161TF0bNjdijgESydK9R8xa8eek3acKEgq41NzLkjUS/mcHH9nXkDeDzQpuISukyqFunDts7yMrIcD/evnuL0NBtbJPQsWMHlCxRko3C6FqduvXYop4KGdSRyD0yMooJDnkRNOrQD6n3biH+6O6cV7UZMBpPH9+HjJwCE4T9axcyiaDfToatZ1dHIgiNOvZH+NoFUCpdjn+LDPJHRvpzFJMojsYdB0Ctkh6UlMuyh8O1c8cRf2Q32zW8fJaKM+FBkC+hwmqMxNORSL5wGhpV66Beq16QVyqF+zezTo3nj+7FveRE/ptc/ry9F7Boun2HjrmwoTlDc4hUPOS1ErY7jL0WSIJiaGgERQV5Pr2TyJ7cGun+Af37sxQq/eUrTJ4yCa5ubli+fMUPZzmRtvbt2qF+g/q8oRPpWr12LUsTataogc5duqCqThV2K6RNntxraVz79+uL4BByYbzP407js2nT5hzJQOtWrVCrVi12TSSCt3v3HpQsWQId2nfgeaWiUhrJKcnYt28f4uLi0LZNWxQtVhTbt+9gLwkiLidPnmQXYSqEUa+ePSAtI8PvWLhwEf8uJSWN8/Fnea7bjhqNgwcP5vurlpaWYhsDkhyQ5826devZRqJPnz6oUqUySpUshWvXk3Hs6BFEHj4MY2NjSEpIYN2GDShVsiSr1EhdQt8GlVMnjuPAgQgmGtmukdmNuRAfz1h07NiZ3YJFEQj86QgIgvAvjhAt2KRnfvXqVY5Pf/brSH1A/yhWAYl3s8sgCwtYWFjwf1u0avVTrSOxr6KCAt6+e8fukI729jAyyjpFf1noVJdXhD6ScmS5ab7KIRrkHz5k8CA8efwYxSWlMGb0aBw+egTjxo3nzW6QpQWfDsuWVcWIEdbYtn07HBwcf6ofn9/cs2fPrGA2SVcwfPhw9v+vUrXqL9eX7cUwtVctZL56iTeZr/H+XVZYXCIIDTv0w/jWamxvkPk6neNRfF4kJKX4GrlMZj+XV2MofoKEpCTecH2fxjr7uYYNG6BDu/aY7p4lis9PIQNHIlufx7pQUy2H0aNscPLUSXTs2AmtWrXE+PET0IHE4VWqfLNaEv8fPnKYr9F8JDUA2XJ8HiqY5jGN+5e/56ed37uH2k/vI1fWfxqWmKQwa9euwaGDhzB46NCvbDl+tZ3URvp+qY0U+yCvIiFRHJMnTUBwcMhXMRqUSykj4eIFLPFdgpmzZueLuOf1PnFdIPBvIyAIwr+N8E/UTwtMXOwZpKU95ah6MbE/duXLq2oyHmzT5tsuYbt2hcFv2bK8qvjqupKSEma6z0DLli1ZD01BdYgA0EmWTn2zZrqjcaPG+IAPrNOdMHESrl+//tPvyX6AXCCtrKzYeI3cAcl4kxbgXy0kBeg8xA5zhrTEy6e5Lcl72sxAnRbd4GJc61er/63PkSSHJEqEFUlztoWGYprrdMyaOQO6urrfbJvb9BmsWvgvF/KyMTUdiICAlTh/4fwf2xVSZzx6+Ajpr/KOTfLHdkI07K9CQBCEP2y4KYIcxd/PfPPjSIG/s9kU4EdDXR3Fi0tmRdb77JRNp00tTS1WRZD4+Fsn5p9te2mV0mxnkJySwpKRf1IkiktBRqEEnj/Jiur3eZGSkUex4pJIf/bkn7zitz5LJ32KtJlyI5klP6IIBAQCAoFfRUAQhF9FTjwnEBAICAQEAgKBQoyAIAiFeHBF1wQCAgGBgEBAIPCrCAiC8KvIiecEAgIBgYBAQCBQiBEQBKEQD67omkBAICAQEAgIBH4VAUEQfhU58ZxAQCAgEBAICAQKMQJ/FUGguP1v3rzhFMTf8mumZDLfillQiMdfdE0gIBAQCAgEBALfROCvIQjks++7ZDFHYTsYcQhBQVs5a2J2obSu5C++YcNGDqsqikBAICAQEAgIBP5mBP4agkCDTLnYJ02cgAb1G2CgmVmueOhEII5ERYICCFHqVpI0iCIQEAgIBAQCAoG/FYG/iiDQIFPOgvB9+2Dct+9XEeQoNTEle+ncuTOn0s0uRB4oAA0F/aGwqwUR/OdvnXCi3wIBgYBAQCDw30Dg7yMIFSviQHg4E4To6Ohco0TZ8zZt3Ij+AwZw4p/sIi0lxVn13rx5y+mbMzIy/hujK1opEBAICAQEAgKBX0TgryMIFSpUwOHIQ3B1mw7/5ctzwVZVRwcrV65k+wQPT6+ca5TtLjHhIqsdataqzVIEUQQCAgGBgEBAIFCYEfjrCAKpCtxcp6F//37IzMjE6DFjsG37Dh5jdfXyWOrri7S0NJiamX+SIEhLI2C5PzIz38BqxAghQSjMX4Tom0BAICAQEAgwAn8dQShXTg0hwcG4efMW543fsWMHbty8yWBkSRACsS10G2bPnSumiEBAICAQEAgIBP5aBP46glCxYkUcPHAAffv1w4mTJ3MNfJYNwgYMGGiay4CRcsI72NlBUkoKrm5uQoLw134uouMCAYGAQODvQeCvIwg/8mLo2rUL5s6Zg/btO+RIFWgqkA1CbEwMZGWkUVVXT9gg/D3fh+ipQEAgIBD4axH4awhCERRB7dq10LNnD/Ts0RMDTE1x/vz5XAN/KCICUVGRcJ81O5eUoGSJkrhwIR4pKTfQqnVrjrYoikBAICAQEAgIBAozAn8PQShSBGtXr4KCohLCwsKwfv16PHv+PGdsKZLiYp+FWL48AKfPnM415n169cYin4WYNs2VPR/ev39fmOeE6JtAQCAgEBAICAT+LiPF0qVLc5AjysWQmZmZa/gpGJKCggKrD77M06CpqQVNTXWWOKSlPRXTRiAgEBAICAQEAoUegb9GglDoR1J0UCAgEBAICAQEAgWIgCAIBQimqEogIBAQCAgEBAKFBQFBEArLSIp+CAQEAgIBgYBAoAAREAShAMEUVQkEBAICAYGAQKCwICAIQmEZSdEPgYBAQCAgEBAIFCACgiAUIJiiKoGAQEAgIBAQCBQWBARBKCwjKfohEBAICAQEAgKBAkRAEIQCBFNUJRAQCAgEBAICgcKCgCAIhWUkRT8EAgIBgYBAQCBQgAgIglCAYIqqBAICAYGAQEAgUFgQEAShsIyk6IdAQCAgEBAICAQKEAFBEAoQTFGVQEAgIBAQCAgECgsCgiAUlpEU/RAICAQEAgIBgUABIiAIQgGCKaoSCAgEBAICAYFAYUFAEITCMpKiHwIBgYBAQCAgEChABARBKEAwRVUCAYGAQEAgIBAoLAgIglBYRlL0QyAgEBAICAQEAgWIgCAIBQimqEogIBAQCAgEBAKFBQFBEArLSIp+CAQEAgIBgYBAoAAREAShAMEUVQkEBAICAYGAQKCwICAIQmEZSdEPgYBAQCAgEBAIFCACgiAUIJiiKoGAQEAgIBAQCBQWBARBKCwjKfohEBAICAQEAgKBAkRAEIQCBFNUJRAQCAgEBAICgcKCgCAIhWUkRT8EAgIBgYBAQCBQgAgIglCAYIqqBAICAYGAQEAgUFgQ+OMJQqlSJVFcojjuP3jwFeaysrIoW6YMbt66hbdv3/62MVFRUcHbt++Qlpb6W9qgrVcbjZt3xsHt66FaXgvV6jfFoW3r8ODOjV9qT5EiRdCoVVe06TmQn4/YtgHH94fy39Ky8uhmYYMq1evh7ZtMrPOZiVtXE37pPf/WQ9KyCuhvY49yWpWQ+ugBtq1chNvJl7/5uuZd+0FbpyZWeTqiSq0GMOjQB/uDVkFeUQmNW3fDtsCFSHt8799qqqj3FxCoX68eunfvBmeXaZCRkYHNiBGoU6cOnj59imX+y3D2XPwv1CoeEQgIBL5E4LcShN69e8Fj3jz06WOMMzExudpWq2ZNLFvmB2VlZRQtUgSnoqNhPWIkLwIVtLWxYMF81K5VGy9evoCivAJc3dywIjDwuyNcQbsC1qxehXLl1KCgqIgXL17gadpT2I4ahcWLfVC6dGm0bNkaly5fgrmZKdxc3TDV2RnXrycjJCQIr1+/5n9U7t27h4mTJiH5ejKW+vqidu3a+PDhA9KepsHUzBwJCf/fDbPvSDvetL0mDYFhZxPUbdYKPlNtEX0wDL674xB37CBWzJqMD/gAywnuqK3fEpP6NUfG61ffxKtI0aLQb9sDLbqYoH6Ldti/dQ2Wuo7he2XlFdFryDjUNWgNLR09eE0ehmN7Q375yzKfMB11m7XGvHHmuJNyhespJlEcq49eR/TB3VhgN+yn65ZTLIG+1lNQvkIV6NRpyLjEHgn/Zj1TFqxBzcYtYKqvgb4j7dF3xGQsn2UPBSUlmIyYghnWJog99u1nf7ph+XxAuZQKzp2Lw6zZs+DjszifT/35t0lISGDGdDdYWlry90ffDJU9YbsxauzYfHfAwtyc69HQ0oa8vDxGjrBGzZq1YGhogImTJmPr1q35rkvcKBAQCHwfgd9KEEyMjTFv7lwYG/fFqdOnclopLS2NGW7T0bNXD4waNRqVKlXEqFGjELAiAN4LF2HOnFno1asXxo+fiPv370FLSxuZmRnYuGnTd3tKJw39Jk2gXUEb7tNnYO68ubh44SLSX7+G31JflClTBls2b8FI21EYOmQQnJ2d4eLsgqvXr2HL5s0IDQ3Ftm3buf709HTExsVh4vjxGDCgP+bOnYfbd+7A13cJgoODMX7CxJ+SaMjLyUFLSwtJV64gMzMzVx/Kli0LaSkp3Lh5M2dB/bKTPyII/uEXcebwPiyfORkfPrzHoCmzUbdpK4zvbYCM1+lQUVWHbj19vHv7BudPH8WzJw9zVb8h+g4id27JIQjZF406m2D0zCVfEQRJKRnoNWgK5TJqSDofg5tXEvm93yv1jNrD1m0hZowwwbWEs3ybeqVq8NwSid3r/bHSwwkalfVQuXodpD66j4SY48h4lZ5TXc3GzfHo7i0QKdDS0UVCzCnc+SgtkJGTx7LwC18RBClZedQzaIPMjNfoPMAKOrUaFChBKFq0KPR0dXnMnj17lqvrJPXS1tLCpcuX8e7du2/CQhKp+HNnMXvOHHh7L/zqHtoUm+rro0SJEjh9+gyuXb/G95Dkp2KFiqhfvy4SExP5twcPHuLe/fugNlXVqYpatWriwoXzKFasGG7duo3HT57wc5UrVUKDBg3w8NFDHDt2nOc4FQUFBVTX00NMTCwaNWwAVTU17A8PZ6IuIyONGtVr8Ck++vRpvHr1iXDKyckygScSEBsbh9cZr1FcQgKzZs5E27ZtMc3VNWeup6Sk4GJCAipXroT3799DuVQpaGpp4ciRo7h79y63Q0pKCs2aNkWpUqV4PbC1sWGC8HlJvn7tmwShRfPmSH+Zzu+gA4UoAgGBQP4Q+CMJgra2NpYvW4YnT57ApF8/yMrKIWjrZiiXUoaVtTVv6JcvXYaphSWAD7zAFS9e/KvN9VsQVKpYEZGRh9DH2BgnTpyEoaEh10fSBBlZGZZS1KxRPRdB2LxpEzzmeWCep2euKg9FREBaWgqGzVvgzZs3CN+3D+/ev4OVlTWSU1LyHAFa6MePG4euXbvgRsoNWI0YgUePHvFzFbS04DTVCY0aNYKf3zIs8fXlxfNb5VcJQrmKOpgwbwVUypbjhTwx7hR8XUbnUk38DEGQU1CC+Xg3GHTsBYnikkh/8QzLZkzKUU98q+3ltKvAY9MhuFr1xKjpS5By5SIuRB/D4CkzsNh5NLfLdKwzFJRKMumKORwOz4k07lllxcFEvHj6FKVKl4WkjAySEy9gyoBWfO1bBEGhpDLsvNehom4tJi4SEpLIzMgoEIJAxNbSwhwWFha8wU6YMBFxZ7NIj2rZMhg/fjzatW2Hg4cOYerUqXjx8uU3xzMvghC0ZQvq1a/Hm/zDhw8xdaozwnbvhp6eLjZt2AilEkos7Xr39i3mzvNA4MqVaNasKZYt9YOCogJev3rF5GTS5CnYuWsXevXoAVc3VyYcNI937dwF52nTkJqaypvygvnzkZxyHfXq1Wd13779+zB02HDUqV0b3t4LmFxTn09Fn87pT9Om+ljkvRBv373FsGHDcS4+Pocg6Os3QZt27XMRCiIiM91nwMDAgEmJpKQkrly5is5duvAcsJs8GWbmZvydU9tlpKWhWq58vgjCtatXWOo3dtx4nDr16SCS5wcqbhAI/OUI/JEEQVdXl9UBBw4cwBQ7ex6ikKAgXgBpA/dbupQlAKtWr0H5cuX4BEMLcsqNvHXu3yMIJJY06WOM5QEBePHiORwdHXMkCEFbtyIzIxMZmRnclqjIKFgMGoQTx4/jVfpLtGzdhn9fGRCAatWqMYk5e+7cN6eWkpIStLQ0MWzwELTv2IFPNpcvX0Jg4Cqcv3AeRI4mjB+HmrVq4cGDB4iLi4P3Qh8kJn5fbaGqXgHV6jZB3LEIlCxTFlqV9fjvtMcPQBKEkqXL4k1GlmSiuJQk7t9KYQmCa8B2lCqtisB5U1G6nDoG2DoicK4T9m5entP2nyEI1f7H3nXA9di978tepajMyCirlFJW9vYaCZkpspKMjArtRBqUdhFKRiERsrIykowoJRUlOysUGf/PfacIpRc/ev2f83k/nzffZ51znec55zr3fZ/7atcRVmt3IWr/TuzZ5INZ1q4Qqy2FGf0Viv3M6jVqCqfg43Azm43FboF4kJmO1GtxUOs5EIt1B2GC4VJIN20JN4tZ6NJ3GHprToDl1OGIjznJ96T60US4b4sfToQH83Wh/q7FEgQNXUNoG1li90ZPpN9IwGRjO1SsWIUJQoOmclDs0B3nTxxCtWrV0bp9Z0Qd2IVXz4uPLalRowakpaUxfuxYaGmNwrv373Hr5i1sCw7G0aNHUbu2BBYsMIJ6F3V2QSUlJsLbxw9Rp6KKtQiVRBC0J4yHvb091vqtxcWLF+DsvArHT57AggULELZrF6g+i5csxYD+/XjSJvLg7eODU1En8eH9eywyMYWOtjZGjhoJff2ZCNsdhoSr8aBVvJmFBYYPGwYdHR2MHTcOUadOoUePHkygq1SuAkcnJ8TFxUG6YQNsDQ5Bu3ZK8HB3B1m5JoyfgOiYmMJ+JmJBFjUidZMnTcblzwiCjq4Ov/cFxdLSAqFhu7F61SoMHDCA2yIhIYmlS5egW/fuTGq2btmCqKgoeHh6MllXkG+DuvUblIog3E6/hTt377I1MlogCP/Ppzyh+f8GgTJJEOTl5REUGIjwveEwM7fg9uzcsR1t5RWgP2sWD1jmZhY4EXUSzo4O6NSpMw9cw4YP/27bSyIITx4/wdixY7F3315MmzatiIsh8kgkIo9G8v3T0zMQceAAos+cYV9qn379+Pe1fr5QVFTEDP2ZuHjx4jfrMlN/BlsnsrOzERISgi1btuJqfDyf679uLYYMHsyD9YYNGxGyYweThJ8pRBAe3c/E2UO7eULq2GcIxCXqMEEIis7Ao3uZeHAnAxUrVmITffz5M1g+a/QPEYQOvQfDaOVaGI3ognsZaRiiPROTFtlhlFLtYpsgWa8hbDfsw42rF9FlgAYe3cnAu3fvIVVfGibj+8DMK4Qn/+0+jiB3wjx7H1w6fQxuS/ULCcK1i9FYpj8K798XNdl/y4Kgu8CW66WlLIly5SvAyi8UzdsoM0H4kTJ0yBA4OTnyxBwWFobAwE04Gx3NtzI1McG8uXPw5MlTbArahM1btnBMy/dKSQRh5/btaNCwAfT0prDJ3NPDHSoqKtCdNAnHIo9ix86dmD1nDsqVK4/bGbdgY2PLBOFuZia8vL1ha7uMY3ASr8XD0HA2k1MiMqmpqbhz5w6qVqkKpXZKWLrUjC0PBQRhz+7dTC4+L2Rx6NO7N8cBhIeHs7uioEhKSqBf3378zkVERODps2eFFoR//vmHLWJkraBy4sQJdtERQZBp3Bh9+/cHWRloIWBtbcNuhu0hIejavTvS0tKgr68PS3OzUlsQ9CZNwrPnz3Hs+HFkZWV9D37huICAgMBHBMokQZCTlcX69f7sRyVTZvnyFThQkHy3tOrx8fHG3r37YGllhUaNGmHzpkC8fv0G3Xv2/G7HlkQQtm0LxsYNG5B5J5MH3YIYhOJcDFEnT5CHgwcuKmE7d6KmuBhbEK5fT/5mXVq2bAkbayv2996/d58tA35r1+HM2bMY2L8/Fi9ZDOmGDdlFERMTAy9vHyYMP1pKikEIir6NPYGeRYIMX73MRmbqp4h/WqGfCA+B18cgxYJ6FMQgrDaZjlMRO/ln9QGamGnligVa3XH/9k327+uZ2GOkUq1iq1+zlgQWrQqAjFwb5L56iZvJ8VDs1AOvXmRjucEYmPtsR4CLDY5s34AWimpY4OSPlKuX4DB/YiFBOH0gDG5mM796xrcIwqRFyzBw7FSMbV+Pz7fy2wVZhfY/TBDo/VtsaoJBgwaxeygpMQmbNgUh4uABdOygBgsLS17tknXr8uXLPDFeu5YfH1BcKYkg7AsPh4ioCCZO1OF72i2zxcCBA/nfRyMjERwcjNlz8wNKM29nMCEggnDvzh14eHjA1s6OJ/SkxGu8on769Bk2blwPtzVuOHzkSGGVaMVNZvkCgjBq5ChcTUj40deQryuIQfiWi6FmzZpMEKpUrgRtHV2otm/P3/lqFxekpqYheOtWdOvRgwnC9OnTYW1pgfoNpYvUh2IQFi0yRogQpPhT/SRcLCBQgECZIAiTJukh9mJsYa+Q/3GlvT3UVFV58qWYADc3NyQkJGDuXCN4eXpAWVkZah078iokYt9eUEB0SQSBgrRoldesWVPsC98LHV1dDqyiHQhkkSAXg7WNLSzMLTgqmoKqvkcQtmzejLZtFTBu3ASkZ9zCxdgLOHHyJAwMZuHVZ4F033rd6tevj/lz5+KfwYPZZ3zgwEHMX7CAg7+UFNtiyeLFUGnfHuTXtrK0xvqNG4qNQSjpdS6JIPgeuoojuzYjdN0q3tFQuUpVDgDM++hKofsGRN1E4uVouJhMQ96bXOR9DKJs3EIBq7efwDZPe+wJ9MLrnJcc7GizLhym2v2QmXYdmlPmYehEA4xVzZ+Mv1XomboLbTF4wgwc3hmI5CsXMNNyNa5dOAsPi9kcL3A/M53jDrr0Hw490xXYsXY1dvg6FRKEk3t3wNNq9jcJgv/R6/CxnY/oyHAOShytbwKtGQsxrV9bNrkvcd+Meo2a/zBBKHhojerVMcvAAGPGjEGdunVw9epVGBrOQUpqCu+cMTcz48lWrKYYNm3aBEtr68JdMV9WvIAguLi48qq/oJAbzcnRgQmBibEJjp04gbDQUOTk5nDcy4GICMRdiWNfex1JKRw+cqjQxZB07RqOHI2ElZU1ZJs1R1hYKFu6wnbvRkb6LTg5OcPXzw/v371HlapV2DJG31YBQejXtz8yMm8XqaqCvDy8PT1B77LW6NG4cOlS4fEOamrw8/Vl94+2zkQkXEssJAjqXdUxXFMTOTn5u4LIDUE7HIggVKpUETq6k4oQBCLbO7aHYNz4Cbh65QqMjIygP2P6Vy6GWzfTsMLengna69xc5H3c+nw9MRHZ2c/ZsnL6zFlh9BcQEBAoJQJlgiDcuZOJnI9bCKney+2Wo1bt2lixYjmvGGiSpDiDCRMm8jZEjWHDYGe3DC9fvkTKjRRQQNTxj3EBxbW7YcMGWOXszKvzFi1bskmVArwcHJzg7di+HLkAACAASURBVO3J5n5LK2uoq6vDf+1aVK9RPZ8gpKYiOHgbHB2d4PRFkCKbQb28ONjs9evXHD9garqY/c+lLdS28ePGcUR4QEAgsl98irJuJN0Io0dr4dLlS4iMPFqsz7qkZ/keTsCFz3cxGK/gbYXkYug7ShejZyzCo/t3kJ4cj5ZKali3YjFiTx4ovOW0pU5QHzgCd2+l4syhMOze6FZ4zD7oMKQaNELmzWS+7nXOC8y194N0U1mkJV6BrLwKjuzahHUrTEqEY5iuIccCLBzbG1J1G2C+4zrs3eyHza42GDltIUZMmYeb169Csm5DvHj+FAvH9sSbjwSMLBzFEYRKVapiidtWzodwNz0V4UHeePHsCebZ+6Jqteoco0HxDbk5L6HduXFpu6zE84jcjhihiUbS0iCLFO1kKCh1pKSgpaWFx0+e8G4Xeme+VSQlJHHtWjyv4OkdpUKBlHbLV/COhV2hoahYoQKePXuO5s2bY8WKFfDx9cOYMaNhZWnJk2HtWrVRtVpVJr1kQZg+bRqMFy1CVtYj1KtbD5WrVIaBoSFCQ3fB2ckRw4YOZVfX48dPONaH3A+09bhH9+68kv8WQVBtrwJfX1+OQRitNRqnzpwpbA5d5+fny5O/trY2Lly8xCRgxXI7jBs3FjeSb+D9x22O5B6knAarVzlzEKTOpEloTxYEb7IgrMaRI5F8rFPHTrgcdxmq7VVRsWKFr1wMmwI2QkGhLY8ZAQEBCA0L42BHsqSQdYcIEbkzhCIgICBQOgT+KEGgAMM28vL8sX9e4q/G88CoqqYGZSVFvMl7y8FFBX59TuTToQOaN2sOmcaNEJ+QwCu21LS0YlstKiLC96NdBwWFkhtdvHABikpKuJOZicSkJI4M76quzquoxMQkJiFqaqo8oN1ISfnq/rRSImsGXUcWjlOnTxf6VkvXBf/bs9p16c0T4a3kBJCZpbFca4jVroOrMSdBWxLlFFTQQkkVomISSEuM4+DGZ59tdRQVl0Bz+XZsXXjy8D6Sr3yKVK8v0xwNZGRRoWJFXL98Hs+fPIJ085ZoqaiGBk1bIDkuBlfOnUT205L9vhSo2Fi2Nc4d2w/x2lL8vNup19lNIS5ZB3JtVNFKpSMe3b+NhNgzuHX9aiFoqj0GIOveHaQlfZ0ch96Teo2pjs25jrdTkpgoEBGSU1Tje9xLT+GoeCJRZaXQpNanT/5OjILy4f0HdlHcvXcPyu3aoWPHTqhVSxzR0dG8U4J2/NA7SFt5JSQlkJuTyzEtFlbWWLduHZNseldrS9TGh3cf4OHhxgRh9+49oGRkqqpqUGvfnnNlXL4cxwGKZM2iPCS0W4G2PpKl4vMiLi4GJaV2vA035nwMk4uCwte1a8ekNjY2lu9F/UHbPxvLFCVjL7JfsItNQUGBc55cuHiRd1QoKSnyAoDiE5o1a4ZuXbuiQf36vMWYdvQcOFi0zyh+QU5ODpUqV0Jaahp/z7179WKCTwuImTNn4sFHwlVW+lqoh4BAWUbgjxKEXwkM7Y8m10OXzl2+ui2Z+83MzBCyfcevfKRwLwGBMoWATOMmsLOzweFDhzB+/ATINJHB3LnzOKC2nVI7GM7KX0FPnTqN3Vq0oj579u82uVMiNm3tCRyvRNuFhSIgICBQegT+GoJACWgmTpiAlq1afdV62hNOMQa0MhGKgMDfikC9evXgvmYNxMTFOe03meY5ruD9e06StHy5HcRq1sSjx1nYvXs3tmzZVmISq78BJ5EaIqgpJop7d+/jfQkJu/6GtgptEBD41Qj8NQThVwMj3E9A4L+IALkSpCSl8ODhg69iHGpUrwEJidrspijYYvhfbKNQZwEBAYHfg4BAEH4PzsJTBAQEBAQEBAQEBP5TCAgE4T/VXUJlBQQEBAQEBAQEBH4PAgJB+D04C08REBAQEBAQEBAQ+E8hIBCE/1R3CZUVEBAQEBAQEBAQ+D0ICATh9+AsPEVAQEBAQEBAQEDgP4VAmScIpANPaZI/15ovQJgys1WvVo0zGRYnhfw7eoMixykhTHGZ8X5HHYp7hrhUXdSWaoDM1ETUrCUJUfHayExLxuvcT2p6IuK18O5NHnJefcri+DvrLFlPmlUfUxKK34Zau24Dlny+nXYd7z6K/PzOOgrP+nkEKFGSVEMZVK8uils34kEqpCQLfudWMqdkFkrZQUBKSoqVcq8lJvKOF0p7TzLcHwBERkb+UFbXstM6oSalReCPEoQuXbpgip4elq9YjpSU1CJ1JkEZEsEhcSMq+/dHYJ2/f+E5c2bPBl1PKYqfP3vOOetPf5bq9UsASGLZxNgY4uKfhIMogx6lZK1VqxaGaQxD+XLlOYc7qeRRPve79+5yelrKCEeqTPScczEx2BQUhDcfNQko/36vXj1ZCyI1NQVm5paoXq0qXFxWo0qVfOJAeRhIVpey1v3uMlxvLtQHjGAxowFaemjaWhFrVxgjNeES6krLYPRMU1Amw/fv3nKWwRAfJzy8833Z7B9pR13pJvhn/Awc2r4Rt1M/CRb115qMnkPHYonOgGJvqzl1AVq0VYaf3SI8fnD3Rx7/3Ws69PoHfUfqoHyFT5k9s58+RpCrDateloUy2Xg5k+EgV1u8zXsN1R4D0bnfMAR7rcT9zB8X9fodbatAaZQX2EBWXhnW0zVhYLUGNWqKwd3MAM8eP/odVSh8xoABAzB+3FhO8fwzYmi/tdKlfNgaV1eQnkdBoTGI9D/2R0SU8g7g9O8jRozAgoULcf/+fRbLomyWFSpWgKJiO+S9zVfiFMrfjcAfJQijtbTg6OAALa0xOHf+XBGkaWJeMH8+Tp85DUqCROqKQwYPQ3RMNBYtWICFixYiJSUFly5e4nSqe/ftw4JFi4rtLWUlJQRtDgKlrE1JucHnETNetXo1+vbti1mzZuHcuXOoX68eGjVuzGmT+/Ttj21bNqNr166c0rZVq5aQkJREYEAAjBYshKbGcPj6eiMu7gpbD1TVVFkxz8vbF+djovHs6VPcv/8Abdq0YfEmEnE6eOjQb32jSG659/DxsJkxElr6xmjeWgmrjKcgIfY09K1c0GvoOFw6dYRz/cspqmLVosm4HvcxnXK5cij3sbY0yBQUWglSoZ/oz/xDXx/PP+fj75Qeu/dgLHLeAG+b+YgMDSw8pjFpNgZP0Mf0fgr59yu4+ccH0vO6Dh4FOXkVBHs7sJ4CFfqd7v+pPp/qUHC8oGZU48/b8K1OGD55DibOt0JGynW8eJr/DEpT7bd8IZ5lkSZCOf6PGvzVMwsrno/Jl23/Fo6lacOX9Vy98zQLY1lOHc7/H6IzC5qT58DOYDRSr10urFeR5+c/KB+zYvqTkCuujnRtsdd9fAe+et7H/imoP2FP1oK5K3zQWrkTZg1pD3PvHRCpKQ6b6Zp4/PDev/4uCvr/WxeWdIzON9DXx1KzpTymXLz8bcvV996rz9v25bfxvWNfvoslvcvF1aPIO/7Z93mN5OPLAcnX81VZSQ9j7Tp/7Nu/v8j7UVKfzZwxA+PGj8dkPT3cuJE/Xi5auBALFy6AdCMZ5OW9KQJ7SXX81x0rXFBmECiTBEFKUhLEgmnV36VrN7Ro0QIb1vsj61EW9GfOhLe3N+rVrYtOXdTx7h0pwVViTQYSViquFBCEY0ePwsCwqPKfpYU5EwT1LupITklBxL59nC+e0tWaLV3KOeHlWraCmFhNXLp4EXGX4zBccwR27doJGRkZDB06FBm3M3El7jLi4xNgYWmJw4cOYs+ecMwyNMTIESOYODg7O8PRKV+F8HuFlCdJLY/UIm/fzsTBg4cKM8GRroS8ggJUVVQ4Dz/lzS+ulEQQSO45PNAbwV72jGP5ChU5sx6pHErUbYj+WpNYevleehoiw7YgIfYUOvXXgFKnniyclHDhNGsx3Ll5A6HrXYD3HyDToi36jtRGk5ZtcePqRRzeGYDMtCQM0TFE+659odChKxIvnsODO+k4e2g3zh7eDSIIwyfPRUSwP+Tbd0H8+dPY4eeEt3lv0LBpC5ZnrlZdBOkpiTiyYyNeZj+DiFgtDBw7DTkvs9GslSJqSdXFweD1OHtkDypWqoS2nXph0Bg91lmgCb9a9epYZ1+yaFQBQXBaoIczB3d9Bek/EwxQs1Ytfn7nvkORlngVO/yc8fjBHQybNJdXVzRQqvUciITzZxC2wQ2i4rXQa/gEtFBUZVXKw9vXI+lSPhmuVLkKtOdZIfPmDcgqtGOTe8S2dYg+vIf741ulJIJAZvp+WpPRvI0inj3OwumIUBbeovoO1Z0NsdqSqC1ZFxL1pXEifCvOHNyNVy+eY7LxClbqbNpSETmvXuJgsD8SLpxis3/9xrLopTEOCh26cT8f3hGA63ExEK1VGyOnLWKdjbYduuNOegp2rl2F+xlpTASay6ug+xAtNG+jhLTEeGz3cWCNj58lCKRTIS8vD8W2bdGokTSW2S0vhIkWEkTGlRQVISpSAy5rPgmLfYllSQShfv16GKmpiZ69eiE7OxshIdt5cqVC4liTdHW4DmfPRoPOJVGus9HRUFNTw7SpU1hOO/b8eVa5XLZ8BZ4+fYq2Cgo8DrRTboe01FQEBG5iTQkqrNhqYYHrycno1q0rC9ORkifdkzQtTI2N2cVqYWVVpBlNmzSB4axZLM5lZWNbeIwIAqnKkuz8l4XGOrJokhBco8aNsHFjAC+uaIHTp08ftqpUqVyF263Qtm2pCIJiWwVoT5jAJNTYxPR7Q5tw/D+EQJkkCEQINq7359TIswxncwxC6I4dkG3eHDNmzmR55q1bt7G2fWlLAUHIfp6NkydP8mUkB+vl5YnJkyfnEwR1dV5HERmpVq06Bg0eDA83NyYIbRTashDOpk2BOHkyCtoTJ+LUyZN4++4tuvfoyfcL3rYVlO7W3MISgQEbmSAsWboU+jNmYPZsQ1hb28Bv7doSqywqIsoKjp06dkTnLp35YyaVyX379vFgoTVqJA9EHTt2RPbz51i4yARRp6KKvSe5F1S69UOw90qo9hwIGdk2CF3viru3UrA69Ay7FmKO7celU0eReDFfjY8mWH0LF3ToMxgR2/yh2n0AqlavAfPJgzFhtjkUOnbD88eP2F1BJKBOg8ZwWjQZTx/cwwLnDXwPmpy6DR6FVy+ysVR3INp3HwBl9d4YMEYPx3ZvQ+LFs8i4kYjES9FMEHQX2PLf9zLSoD5gOFyWzMSZA6GQatAY8qrq6DlsLNdh1aIpeJB5i90ipPrYtJUiTh8IRb1GzSDdrAUmdZeFXNv2mLvCl+Msrl86hy4DNVGlanWMVPzkXvoWYAUEIe7sSZ7oqJA7g7CjYh90hCdfIjcnw0NQp3EzHN6xEQnnT8Ep+AQaybbEg9vpOLlvO+pIN0HEtrXQM14B6aZyOHd0H5Q698SbN6/hMHcibiXHo2p1Eaw/cQMVypdD0uXzuB4Xy3Egeza6F4kR+byuRBBIwOr8sQiewGVayKNOw8ZsQVDo0B0tlNRw9dwJNGulhC4Dh8Pbai6iInbCcetRNGujhJjjESB7QJv2XeBiMgOxJyOwJSbfZUNkTkGtGwtbOcybyC4LM88QSNaXxqGQjejQ+x+IiIrDaroG94V7eCxupyQiKmIXNHQNcCBkA4JcrFGvcTMYu2zC9cvncOPqBTRr0w4RW9dymweNmQrpZi3h72CK4XrzUF2kJrb7ODKJKamQG3C4xjCoqXVAx44dWJhqw/oNcFmzBlJSkjz5kgJkB7UOePf+Hbw8PeG37pNL8st7F0cQypevALOli2Ew0wDhe/eibt06TAb09KYg+lwM3N3WYED//pyqur1qeyYM9F0fOHgAARs3gmKmTkWdxoAB/VC1WjX06tWLxeaCNgWy3Hx4+F4MGNCfJ2S9KVN5dU6E4kbydbx88RJHjx3F/QcPcPHCRWzfsQNNmzbFyRPHkZuTA9kW+e7WgkJjxM6dO/AiOxstWrUu/J0IQvaLbJw4nq9c+SYvD6GhoSxvfz3pGipXqowdO3ZCqZ0SxxWQJsft27cReeQw7t69y2qYwzU0kHwjpVQEgdRLnT8ufJo2a17aIVk47z+AQJkkCMS2g4I2YeeOHYXMeOeO7bwy0DeYxQRhvtECRMecg5WlBRTkFXDp0iXMml3UMvA5/gUEoXq16nj4KF9Clz7SKVOmYuzYMUwQnjx5wgOPSI0a+eIuvn7YHhyM7j26s/WiWvVqbK7T1dHBqTNnEX32DIhw9O3fn+/n7eXJk7e5uSVLSBOxoY9etKYox1AsMjZm1b3iiqmJCXR0JvKAkZSYBJtltqxSmZ39EjbWlhihqYnqNWrg6pUrTI6uXSOd+2xeJRdXaLAnCwtNTBUqVOT20d9kJVDo2ANzbD0gUa8Bcl+95Elso5M5yx+vPXKNrQs71jqjTXt1LHHfAof5OlDvr4lqIqJIvHQO2nPNsM5+CXoOG41zxyJwMyEOSz22ISJ4PbLuZaJluw5Q6d4X0/q0xdNHd/NdDKs2wtvGCEd2BhZWmQjCRCNr6KjLQKp+Y8xz8EN6ciJWG+sVnjPZxB4tlcgFUpQgiIrVxjzNzug3ahJ0FljDbNJgyCm0h57pCuh2k0Vebg7m2fvx5FZagvD8cRZe5+QrF95OTcIyAy3+mwhCA5mmcLeYjdjjB1CxcmW2ctBETQSBrBjOCyezhYCOybVVhYXPdl6pe1gYokv/EZhl64rA1TYsm00EYcPJFL6Xt/U8toaQFYdW88W5Q4ggNGwqhycP7vE51UVFkffmDRMEUsCsVace5FW7QqqeNEZMNULQGnqWOxOE6qI14bRgErIe3MXqHadw+sAubHBaik1nMnDqwE74r1zMVgyHLZGwnKrBFoO1kQmIjtyH5LhY1Jdphh5DRsNqqiaePXkAtz3n+bmkDDrHzhu1pOrBepoGkzZLv13Y7G6H8ABPVK5SBW/f5uH9u3dsXaBJ+M3rHLagkMUlj97Hz0zkX77Lo0aNZEse+dVJpZEscSeiovDq1StMmDAe8+bOBYm1JcQnwNHREedjY1k2vaR00sURBJnGMvDx8UItcXH06t2H44/8/dch5tw5uHt68dhzLeEa9KZMwdw5c2A03wjLltlxTJKFhTkWLTTGzl2hvMigBQcRhGHDNGBiYozwPeGIj49H/Qb1MW7cuMIFA33vN9NSsXjJUgQFBfEYwxP7mzfs8vTz9eHvfNwE7SLQkDImSXWTlPVE3UlFCALJ1T948IB/I5zs7VdyDAIRhBMno7BokTFq1hTD8aORvOgiK8CMGTNgbGzC5+3bG87jRmlcDLRwWrJ4MSuBDtMY/h+Y9oQqlhaBMkkQyNdPbPxU1CkYLVjAgwiRhZYtWkDfwIA/Ui8vb2zZuhVzZhuy3nxGega698xfyX+rlMbFsGvXLl6lk+68paUl1vmvR0jwNnTu3Bnbt4ewtK1cCzn07z8I8QlXcebUKSYZPXvnS/MGBQagSdOmbEGgAYIkpC/HxaFHjx5ITU3FuHHj8ez582Lr6Ofjg779+uJ6UhJWrXZh+erbtzOQk5OL7SHBvEIiIrTaxQWZtzNxOzPzp3dOlK9QCSQJ/c/4aVDs2B0r52qz6yDg1C2sWTKDV8NNW7XFUs9gHAjZiPrSTTiIj2ScZ5g7wdV0JgaN08P1uAvIzXmB0frGSL9xjSetgrLR0YzvWRJBGKozC1N7t4JYLUm2DLzNy4PtzFHfJQg0Ka5Zoo+ug0bCwNoVzsbTIC0ji3GGSzFWrR5fP3uZJ3oOG1dqglCci4EIwrt3eUxSsu4XDVokgkC/uZsbFspb99IYj1k2bghaswyh61ajUsVq2HrhDkJ8HLHVY3mhBcHLcg5O7A0u1TdbkouhcYu2mGHmiCcP7+LF86csmx3gbMmuDiIIFAjoZmbARMRq7W6O5XCcr4OAqDRs8VyB3RvcOHCV2rJmqQGq1RDB3BXeHLz68vmnFX7Y+jW4ef0qVm6JhM2MEUiJv4gx+qZQ7TkAiycOQPUaohg/2xyqvehvMVw8fRhrlxszafyRMm/uHMyZPQfpGensort+PRkZGRk8kS5ebAq9yZNZFtpplTPLst9Kz/jKR/7lc4sjCCRt7e3txbFNNNZUqlQJUVEn8STrMda4rYGLiwtcXV3h4enFq2xPTw+sWGHPboKFCxagSTNZ5OS85BU1WQKJIJB65pQpeoi9cKGwGkQqKRCaxjAiCAnxV3klv/+jK+NHcCq4piQXQ1JiAjZv3gprGxt+bvyVOMycZYgRwzWgrKKC6dNncD2dHR3RoWPHbxKERo2b8CJDKH8/AmWSIDRo0ABeHh6oWq0qBgwcxBrwxKzJP04fEREEMr3/M3gI99Cxo5G8A+FnCQLFINy9fx9BgYFo3LgxB+kss7UtjEGQk5PF3vBw1refPkMfIcHBkJSQQL/+A/Dk6RNEnznDJjpzS0vsDd9TGIMwdswYDsYkq4T/+vXFvlV0LyIIqirt0bdvH7x7/54V+cidkpl5m4Mpybzap3dvXiFFHj2KwI2BuJb0aUfAv3llaQWb+3Fro1SDRli5+QgOBPvzhLLh+A1sWmOLvZu8IddWBZZ+ofC2WQjlLr1QrkJ5XIk+CX0LZ7ia6GPguClIvnKBJw1981UwGqmO+7dvflUV1R6DYOIagA2O5tgb5F14/FOQovy/Jgjk3/ayml2EIBCJmbRoGSZ2acqr8Xkr/dC577BfQhAeP7zDBIEsB58XmlSvX4nBuhUmhVv2VLr1x2K3IBwM2Qg/u4VopdIZy9aHY4v7co5dIPz9jybBw3I2TkXsLFXXlUQQaNJPS7wMH9sFeHTvNgJP38LmNbaFBAHly8N5wSQ8eXgfq3ZGcaCqj7URAs+kc7/Tbg2Jeg3hGnoGdoZjQZaUlVsOc3ujjxTdgdOgiSzsgw7DVn8kUhIuFSEIb3JzULFiZbRR7cKujMETpmOL2wrs2+JTqjZ+eVLNmjXRt08fqLRXwaABA3mlejTyGI4ejcS58+c5SFlZRRkD+w/gievQ4UhERh7h76O4UhxBkJOVhY+3N97kvcHAQf9AVrY5QnfuxPXEJKxydWHXxZkzpzFD3wC0g8nc3Ax2dsvZikdWDp1Jujh8+Ag2+PujT98+TBDGjBmLuXPnQF29G5JvJH9VJZqoL12I5bHtSGRkkeNiYmJssaSFiI9vUblqGie1Ro1iC8HnrsvvEYSgoC2wsbUtQhA6dewALS0tzJ4zF4cPH8bO7SGQqlO3CEGYZTAT5ubm6Na9O5KT8wMXqVAc1j+DBoLiQ9zcPfH+ffEWzR96AYSL/hgCZYIgREREsPpcQdm6dStGjx6DqVOnwNfXF5ISkrzlhrTtd+0OwzIbG+hO0mUJZ2L68+fPR1ZWVqkIApn4j34cON6/e88BOoMGDSwSpKjcrh3279sHJ2dnjgUoCFKk+i35uGIxmr8ATZrIwNTUlP17z549w5QpUzjoZ7WLK85FnykkCJSv4VhkJLswZhoY8Mq/pEJBShT8pKykDKP585ggeHp58fY2cn9QnAOZ9QxnG8LF1RVbtmz9oRfILuAAr/ZvxF9Ae/V+UOnRD45GOoiLPg5zrx1sUt4X5Iv23fvzanTh6J4YOXV+sQTh9MFQmHmFsGn6xN4QVK5SjScI+znjuH4Nm7bEqh0nkHEjCZFhm3El+jgyblzjGIT8XQxfE4TGsm3QSLYNegzRQsOmstgb5MfkgwIfydLwLYKA9+8x284TWXczcftmMtp374dq1UVLTRDOHzvIsRBUaLV9aMdGXv2SBeHfEIQq1arD71A83rzOxcl9O9BOvQ9q16kLh3k6iD8f9csJwkLnDXj9OgeRuzajY+9/oKDWFesdlhYShCatFHBy3058eP8O3QZrwct6Lo6FbcHmc3fwJvcV9m/1R5v2ndGkpTzveslISYLb7nMcyHgkdBMHMLbr3AvrHRaD2lYcQaD4ELIIxZ44iHqNmmCsgSlbUfYEePzQe1pwEfn3aVJUUVHGbENDPH6UhRFa+e4fWsHTsS5dOnPg3tUrVzF1+vTvEoTdYWF4lJXF55FFYtu2bTAyMsKQIUOwefNmDjQkYr5g/gLs3LUL27ZsgaKSIo4cOYK2bdvy1j+KQTh69Bi2bduCnFc5uHjxInr26sl1IoJQtUo17N+/DzdSbvC3TNaDrt26wt3DA+fPx/JEXRxBaNKkCY4fO8oxCC1btynSno4dOrBlk2KRKEaqoBBBePrsKU/0BeXgwcMcq5R4LR7fIghkmYyNicHp06dx/fp1TNSZiLS0m0UIQuuWrXDw0AHExMSAxuyt24Lx/PlzDOjfDy6rXXhB16p1m5+2av7USyJc/EsR+KMEYcjgwViyZDGqV69RpFF2dnYcCOjt5cF5EN5/+MBBeouM86PQyZfu5+MNtQ5qqFSpMnJevYLrmjXYsHFjseC0btUa7u5rICHxaX8wMV1a0VesUAE6uroYPlwT6en5OQCCt23jAaOmqChEREXQs1e+G4HK2TOnOYBozRo3rHFxYUZNu8hu3ryJceMnoGLFCgjfswdHDh+BmYUFX6Ou3oXPnTZDHxc+MzX+0t78lzez8NmJJq3aMoZ5ea9x6VQkxyBQtHlrlc6YbuYEyXoN8To3BxHb1iNsvSu051miXPnyvBNBe5451q4wRW+NsRzRH7rOBf20JmH45NmoISrGPud7GTdhOqFvYc2mLXGCWq+BfI/je7Zhk4s1X9NbYwIWa/fj3QnTljiyi4FyN2jNWMS7KQr3DtKk/SIbtvqjMHWJI8cIBK625J0DE+dbw9fOGFejj0NrOl03Ge/ev0XlqtV4O91oZakSEaLzR04z4jiAgkLBc+uWm+DKuRMwddmMp09o2+Oir5I1mXmEIDXpMrZ62HPgZ0Fp17kPZlq7oGqNGnj75g0H8gV72vNhmmQdtx1DgLMFzh8v3R516jPy368ynsaTep8REzFwtB67DqQaNsHUxfbsGsh58QKv0cOKdQAAIABJREFUXj7HgW3rcDBkA7sYKJjxzZtcJm5Xo6N4V8fjh3eZIOS9zuE4ANo9Qa4k2pFAVpJ2Xfpg0iJb1Jaqxxa8R/fuYPmssRzIarpmM1wXz0B6cgL+0dZHu049sdJoIho3b4X5Tv6c2Ir68WbSVfjaLcS99OJ3Gf3LV/enT584YQJmz5nDq96CQnESFhaWyMi4za4DCn4kK97RyKMw/BjfRPFOvr4+qFG9Op49e4qWrVrB3MICvr5+GDd2LBYtWsgu0Xdv36FO3Tro1LkL7ty5gxGaw7F0yVIeS4jo387IwPyFi3DlyhUOXty/by8WL16CU6dPF2lbo0aNsGN7CHJzcr9aACkrK8PXx5vjnArcnHTxkUOHeDv258Xdwx3+/usReeQQQkPDeLykXR+028rMzJytLSbGi6AzUQflypfD/Xv3kfU4CwsXGfO4VlDMli6BxjAN0KJnuKYmbqWnsxXD0dEBL1++QltFxT+atO6nXwzhBkUQ+KMEoTR9IdO4MU/Ud+7cZdPi54WCbBrWr48bqSkcfNejR3fUq5vvd/680E6D6LPRuJGSUppH/qtzaDCgFX2F8hVwO/P2v7r2T59crlx5iEvUhZR0Izy6exuP798pUiUKtGvSoi1H7T9/nB/YWZpCgWiN5eTx4tljvu/vNjlSQh7alvf8ySNUq1ETE+dZMmGZo9GhNNX/5ecQQanfuBkeZKazReJ/WYgciEvWZQsIBaIWFCIIlCch2NcJIiJivKOgoARFZ2KL+zJcOHmE40i+fA8Iz8ZybZiY3E+/ibdvi7pXvtWeKtVq8BbVJ4/u4cn/KLHV/xJHuncLOTnO0kpuw4IgSgqUph0VtHVRT28yxowejUH/DOYdVz179sTLFy9A35WNjTUaN2qENgoKhdUkCwjtesjNzUFqar6FqiwVGssaNmiI9x/e8XhbmkKuXQN2tSyFsYkJW1CF8vcgUOYJQmmhFhcXw8oVK9Cpc+evLnn18hWW2dmxO0Eofz8CVavVwGL3rbw7gyKxK1epCiejyUi4WHy+iL8dlQKCQMGCXya5KSAI4YFefzsMP90+yiNAvvpnz56jYYP6oMBm2mpMi5Cw0FA0lG7IK2hyi1pYWmBT0OaffmZZvgGRCsrV0qplK+wMDS3cgVGW6yzUrfQI/DUEofRNFs78/4KAvFpXvH3zFjfiY/Hu/3lqWHGJekD5D3j68P5X3S/ZUAavnj3Fqxcl5yL4//LefK+dlKCphWxLXLh0geOKPi/tFBU5KdfFi5eQ+zr3e7cSjgsIlGkEBIJQprtHqJyAgICAgICAgIDAn0FAIAh/BnfhqQICAgICAgICAgJlGgGBIJTp7hEqJyAgICAgICAgIPBnEBAIwp/BXXiqgICAgICAgICAQJlGQCAIZbp7hMoJCAgICAgICAgI/BkEBILwZ3AXniogICAgICAgICBQphEo8wSBFBE5M9k3FAvpd0qQRMdKUoMr0z3wP65cpSpVULlyVZYRpoyJlMSI/qYsh8WWcuVQQ6Qmq+xRmuDiSo2a4pxt73XOq/9xK/77t6fcDJQ98lcmSqK+pO2bv/LdJyEukmCmbJWUVbG4QoqMpA5J51GWy2rVRfi9+v++nbQsvqm1a9XihE+kDklpnatXq8bVJOE40ngQioBAcQj8UYIg27w55yTfu3cfHj4smqmvapUqGPTPIDSRkWEhpnMxMTgZFVXYDhJvoTTMJOSSlfUIRyKPIuU7mRK1tEahlnitwntQZsa4y3GIPneOf1NTU4VyO2WWOyW1OMqz3r1btyLpWOk8uu7smbO4cvUqpyv9Z9AgrsfnQkyDBw9GlSqVERFxgMVU/lTpqTEeHXr9g8BVlujcT4NTKwd72aOBTHPUaSjzVbUo+97B7esxw8IFcWeO4eS+kGInoMVuW1nwJ2zDmp9qXrPWSqzZwNh++MBqiNFH9uJ17p/D7aca9I2LB2vrQ7ppS/jYGv30rSXrSbM+Rt1GTfAs6yGLJV27cPaXTM6S9aUx09IV/g6LkZl6nesqLlEHnftr4FZSPKtyUqEU3LOXebFEdDURMWjNWMjvVdLl/G/pdxWJ2rXRu3dv3H9wHydOnPxdj/0tz+nSuTMUPsvESA+lrI6RkZF4+S/GlNCdO+Du7sFCUEZz50JTUxPlK5TH6tWrsWNn6G9pi/CQ/yYCf5QgFOTw1ho1BjGxMUUQnDB+PKcrpYm6SuXKqCEigtFaY5F4PZFzf1tZWnLWLiIFlP50Q0AAbJctK7EXSJ6ZkpyQ9DIVyrNO+ckDN23if1POc5JmJmU0yoveuXMnmJqYcGpVKUlJiImL8/Mov/wadw8WaSLVx8MHD0JMXAw9e/bCtcR8ZcXw3WFc5/HjtXH3XunSlv4vXqFJi+zQe/h4Ft/R0jdG89ZKWGU8hSWeSX6ZVqEkqPM6JwcP72awNcBcbwgcNh/B8fBgnvwpM9y3ioXvLiScP4ntvs4/VfVhuoaYtHAZUq/FQaJuA1StVh1nD4fDdUnxYjs/9cA/cPFwvblo2EQOHhaGP/30FZsOsZBWSvwlSNZtiDvpqfCymsOppX+2kEqjw5ajsJmhietx5/l2coqqsNuwDweCN2CdvTH/Rue574mB+eQhkKzbCAa2rh9VH8N/tgr/6vq2Cgqs7nrx0iXMMpz9r64t6yc7OqzExIkTkZGejpycHK7u+dhY2Ngu41TPpS0Zt27BdPFiBG3eDDk5OXRVV2dp6vXr/eG0anVpbyOc9/8QgT9KEEZrabEMspbWGJw7/2nlIVZTDKucndGhgyraKrVD+/Yq8PP1ZZUx/ZkG8PHygpqaGlq0ag0SWKlcuQrkW7fGxcuXSuzCs6dP48WLF+jbv/9X55ErIy3lBsjESue0biNfeA65MUhoRWPYUBZmevXxY6UTevfsibVr16IyWwsiMHVa/qS2b88eVKtRAxMmaOPO3aIaB6V5z8h9Qlr0rVu1YpW0c+diClfyBcdU26sg+8VLFnwprhRHEGjlT4UmLZv1e5AUdx4Oc7X5N9IOIIJwJjIc7/Leon6jpti72Qdp1y5zHUhnQalzb3bv0Irx2sdVJV1Lefvb9+iPXsPGIz35GvZv8cXTrE9Knd+qp4bubIwxWIzxHRuAcvgbOaxFx96DoSkvxvaaQeOm4d7tm6hWTRSd+w/Fif2hiDmyGxUqVkTn/pro0HMQUhMv49D2jXj5/CmbvEljQmv6AuS9zUPipfMQrSmGQ9vzpbalGsjwivha7Bl0GaABUfHa2Oa5Aln376Btp97oNWwMizFFhm3BtQunICJWG+oDR+DD+w+o00AaN6/HQ6lzL/ivNM1/XgmlUoWqGKyrj3Ioj/SUBMR+JspEolDN2ihj0Fg9vH/3AWEb3XE7JaHE+xFOGpMM4W1thBN7g1GpchVINZTBwzvpePvmNVuIBo+fgbzXb7Bnkxfu3rrBIkukD9BKuSP6j56M7CdPWG77QeZN7k8SyOqlqQ0ZuTa4cOIgDKzWFCEILZTUsGzDXhwKCYDf8oVcv19BEEjwR1REFGPHjoaXd1EpaDomVrMmdHV1sGq1S7GYkKIiEYTLly9jpsGsIufRd0KqqAYzZ7LlMGDTJlYiJMJL37tSW0VMmz4VcXFX8PTpMzzOysLBw4f4vR42dCgGDhiAiAMHICFRG1EnTyHxehIfI1VD0mEgaemVDk6snFjg5pk9axZizp/Pt0YqK8PT0xPnYy9wvTQ1hoHUGddvDCgywdN3PllXB3l5bxEYFFSYrtjZyRFkiZw8WQ9nzp4t0rauXdQhK9sMWY+fYLjGMEREHMTOXaHsbiUBqpGamlBXV8emzUEI2RZcSBDoJirKyjyebtmyuQhBIBVZUmZs3qw51+PBg5K/29KMY8I5/20EyiRBIE329f7rkJiUxBMuqTeSmYzcDTP09XlAOHDgABaZmP4r9Ikg0MBjbWvD17179x5RUVEsWTpyxAgsW2aLy5cuQ72rOgYOHIj4hGt8XkkEYeeO7Xj58iVbGBo3loGySnu8fvP6hwkCCbq0U1Jiq4iOrg6kpKSwbNlyBG0OAn3A9DsdJzlWcTExLDI2Rfje4ldtQ7RnonO/YfC2MWLlvyYtFbDRyQxpifmkoiSCUL9Jc6RduwJR8VogaWzLqcPw+MFdNm/30hiPTn2H4tierXA3yx+Yq9UQxYylzmit2hk3rl6AuGQ9RAT742T4thL76XOCQL76uSt80KnfUIxtX5/dDJ77LkCkZm1WIrxzMxm1pepjweju0F1gi36jdNnyQEqFpDRoMXkwJOo1xCLnDRCrLclCU01aKDBxGamY717qN2oS9C1W4dnjR9weirO4ei4KyVdioWe6nIkNKS22UemM3QGeuHTqCOat9MWb3FzUrC3BROHF86dMfGxmjMj3wxdTiKhMW+oAklqmSXue5ietkLGGZhg4ehKuXz6PCpUqIvvpE7iYTisRK/e9sRzHYDNjFLK/sBiodB+AhU7+uHsrBdVEajLRW7NEH3FnjqL7kDHc5vSURNSSqMOT0GqTqbhxJRamblvQWrkjMtOSIaugwnjYTP9kQfgWQajToDEWu2/hvhcVl4T2XDNscDLH1ZiSzfz0LTVt0gQtWrSAxnAN9OjeHffu3kXP3n34O5eTk+VjI0doonOnzsjISEeffl8T+gKQSiIIqu3bw8vTE5UqV8L9+/fRqmVLWFvbwn/Dep54XV1c8PDhAxa1kpWVRcK1a+jbrz8WLVyAOXPmICE+gRUZSYzNxXUNVqxYAcNZBlhsuhhxV+L4e5RpLIPRY8cgOjp/gXP/3l28yH7B8vUk634j+QYWL1nCx6JOnmC3KCk8fu4OJTXHxGsJyMvLQ1tFJR5PqBBBIJl7D3cPJF3Pd/dk3L4NkmbesN6fx6ibaWnIfvGCMVuyZClbCVavWoXhwzV4QUXPI8xNTfMtCCURBLKu+nh7o0OHDtCbPBm7w/f+q/FVOPnvQ6BMEgR5eXkEbQpkyWQzC0tGnSbitgptMdPAgF/ipUuX4uChQxg3bhxI8TE1LQ3ePkVXIV92FxGExjKN8ehjvENubi7GT9BmlccD+/ezzKmVlTXLuZJU81yjfH9xcQSByEZKcjJ8/fx4NTFv3jxoa0/E0WPHfoggjBo1klct7YlkvH6NbSHBuBJ3hZXiSBq7T+/evCrJzs7GtuBtuHLlKq9OsrOfF/tmiorVRk2aKDNvseQxBaCRK6Eg+LAkgkAy2w5GOpBTUIbhMk+e3GjyKSibozNx+tCuQoIg3awlTFw34db1BDgv0kMtyboc6PasFBaEiUbWOLR9A8QkpKDQoSvLRBuP7cWPIoJQtYYoXEymsXQwrV4pOHK+wzrcz7gJL5t56DtiIjT15sLLZj5bXqYuccAygzG4n54GQ1t3tG7fuQhBMLByQVREKDa7LWMsKlWqwkF2pLpIK3uK0Rg3azFevciGj+18JghBa+zQ/Z+ReJ2biyvnjmPwhOlwMNLFzY9kq6ThYbKxHVtdPicIvoeu4sHd21htPAWvnj+DRH1p3E7Jd1EVVzZGpTKBMZ88mElai7aqeP40CweC/WG9djdyc17Cw3IOi1TZrg/H7gB3BHuthFtYDB7eu81tqV2nPsw8gxGw2hJR+0Ox7kg89gR6sVVhyhIHKHbsUYQgNGujBPtNBxGx1Z9jE6iQ5aK+THPGnyw2RNAe3slA7qsXxdadVrY21lZQU1WDjIwMTpw4gX379yMhIQH37t/HYlNTnpwa1K+PQ4cO4dCRI4i/ehXXk5OLvWdJBGHatKmwtrSC5siRTEJcXFzQqlVLKCq1g62NDcaOHYNhwzQg3Ugajisd8PDRQ+hNmcoLkCqVq2Cynh7GjBkNQ0NDeHh6Ydu2bTwxi4uJw9PLE9WrVYeRkREiDkRgytR8Yvfo4QMcOnQYK1euxM1bt5jgJ3+s/wZ/f1B9qT4FsvJ0DRGN/XvD8eZNHjQ0NQvdCUQQyMXw5PFjvMnLI2MawsLCWEKe6kEWAitLK5w+cwbHjx3D2nXr4Oq6BteuxTN+JF09e7YhxowZUyqCUKeOFGxtbNGxQwfMmmWAU2eKWi3+vulPaNH3ECiTBKFN69YIDNiIw4ePwGRx/oAUumMH6Hd9Igg+3li50oHNf06OK9n3n5SYVEQT/VsNJ4JAvryhGhqFhymAkMycly9fROK1JLi5uWPZMhsOLFTv1q1EgqA9YQJWrrRHYMAmXlG4uKxmXXgzc/MfIgj79u6Fqmp7nIqKwiITE6Sl3SzcvRETHc3k5tDBgzA2MeUBtbjYgO91+ufHSyII0Uf3Y5vncsjKK8PCJ5Qn7Du3bhRLECiSfZqZM7oPHsUT6+Uzx7DeYQkePyjZxUIWBHKFPHvyEG9ycxB74hA2uVjhZXa+eBARhOdPnsB0Qp/CZ5MVgwiC/XwdXDl9FPKqXWHsEoCYyP3ISEnEWMMlGKdWn8+fvcwTPYeNK0IQpi62x7oVpji4fUPhPSUbNIbd+r0Ql5TiHQe06+Nueio8LecyQbCfq4OhE/XZYhBzPAIzzJ3Z75548fsD6bcIwvg5Fhg51Qi5r16yC8XDYhZSEy6X2H3+R68j81YyzCcNxrSlTug2WIuDE5fN1MKKwIM4fXAXXBdPZ5P36p2nkHkrBZ4Ws7HxRAoTgA3O5qhC6pYhJ3DtYjTizh6DgZUrvKzmcUBqaxV1LPXcWoQgiEnUhc/Bywhd58qumB8tFEGfmnIDWVlZsLSyQljYbo6sp7o2b9YMZ86cZrM2+csPHjzEx75XiiMIRBIXm5qw8iKtyqmQ21JbewLkFdrCzdUVUnWk0KdvP1SrVhU7tm/ngGNahRNBCAwMhIOTM/r27g0vby9s2BiA2PMxcHV15ZikgroR6SEr5IiRo/gZZEFYtWo1Vjo4fFV1IgK02KCx5fNvl1wh9GzCgcanAncFEYQhQ4bAwGAWzsWcY4KQ9/YtaGFDBIHcFRO0tZGZeQeXLl5gPGnM3L49GKtWrcJKB0e2fsSciy4VQaB6VK1aletI9fjWzrHv9Ydw/O9CoEwSBFpd+Pn44Hn2c4zSGg1RUVGEBAdDTKwmZujPZAtCcvJ16OhO4t44djSSdzp079mzxN4pLgZh8iRdNh/eyczkD7dqtWrsx5s2bTqOnzhRrAWBBhUKZKTrqEjVqYOTJ6PYDRKydeu/jkFoItMYBrNmgUyj5E6hYEofPz+OzhatUQOzDA2hoqLMFhPaQbHO3x8nT5xE1uPHP/xWlkQQCoIUyezMBGFcL9y5WTxBKKhElwGa6DpoJBTUuuJUxE5etZZUPncxfOs8IgjpN5JgP2dc4eF2XfpgvuM6bHZbjoitvhxwOWe5F47u2sJuBZ351hin1hDv373FXHtfdB04oghB0F1gjdUmMxB7IqLwnjThDhyjBzczQ8Qc2wcrv12oIVqzkCAsnz0ewybOYhN/TOQ+6Fu7/BRBoAG5ubwKP7Njn8G4k5YCq2mayHlVvEVoeeAhiNSsiRWzx+NuegqatW4HS7+dsJ0xErbr9+FC1EF2HVAgrfeBOMTHnOK4gQ3HU3BkVyD87RejYuXKcA8/j9MRu3Du+AGYe22Dj+0CHN0VhO5Dx2D6UqciBIEAIrzTkq581xpUUj/TxDN+3Dj277dp0wbvP7zH1q1bceDAQcQnJIAI96BBgzjuJic3B5sCNyHy2FFculQ8aSqOINCzjObNg/6M6ZBt0ZK3SrutcYXWKC3ItWwJZ2cntFdRgUp7VTRq1AibAgN4Yl6wcCGPL9HR0Rz0SK5HJydHrF3nj6iok/Bwd8f+ffuZwH+rZN7OwLJly76KqaBz27RpjRo1RDhmiCb5gkLxEO3atWNXx+W4uELyUFIMAhGEhg2lMXbsWP7+L16Ixe7de7Bjx3YcPnwYHh6esLaxQaeOHRASElKEIFBg57p1axEeHs4BjwWFLKLk/iEClJaWhoePfj7o9YcHJuHCMoFAmSAIXl5eSLt5sxAQCiSiwCLyv5mYmqCRdCMYzDKAp4cXvH284eDggGHDhrI74ObNm3BydOTAwh8hCDRwkM9u9GgtZuvkm6XdCtu2boWTkzNWrV79TYJQv3597Avfw75N44+DBbk7aIAjEmNpZob6DRvA28sbT5/lr4Tv37/HWypzckqWga1bty66d+sKZWUV3kLp4+sDH18/HjgaSUuja9euTCL69+8P22W2CA7Z/sMv078lCGRSJtMyBe5Z+4XiyrmT2O63it0W79/loUOvwbh98wYqVawE3YU27Fe30BvyywlCAxlZGDmuQ9Wq1RHi64QOPf9Bp35DYDFFA+ISUjCwXoNjYflkYeCYKagr3eS7BGH6Umf019KF44LJqF23PsbPXorsJ1k/RRDIHVKzlhS7I5rLt8OaJQZ49vgB7mekYdik2byVMPvZE8y0dGFT/YrZ43AvPX+XzbeKQseeMPPYiqh923Fi33a0UFTFUB0DJgjjZptDupkcQv3XsJtF28gKW9ztELbBDTbr9rBlhI6R62f0TGN4WRsxgdt4MgWXTx/Fyf07MHLaAtSVlilCEFq264iOvf/B7ZTriAwL+uF3reBCqhtt4VNRUUH/fn3RoGFDKLVT5sNEzGlrMRHhAf37Q1JKqvDYtx5cQBBIdjkgILDwlKSkJCgpKWK5nR3sVzrwdzpnzmyOH6FxwtTYGIaGs+Dk7AxJSSmMHz8Ot27dguaIkfDy9ICSkhJc17ihm7o6+vbrizVu7vD19UXAxg0cd2Bta8u7C2gbIrkSDh48yM8uiSAcOngA5D7t2q174U4quoZiEMgCkPfmDVQ7dCzcFl0Qg+Dn54eUlPx3gqwvFLDo4e72TYJgt3w5riXEc+zD2nVrmXSptG9fhCCIiopg65YtqCkqCkcnZ8TFxeFWejoTA7KyDBjQn3dxbdi48af7WrjBfxuBMkEQyPf/ucmNXs7Ll+MQELABEhISHHF89uxZTNabwh9P3Tp1sWlTAFrRSiMnB6IiIuwaWG5vX2JvfMuCQKtxb28v1KheHd175vu8qcRfuYLjJ47D2NgEObm5WLpkCTSGDSvcxTBu7BjY29vDyckJbu4efE29enVxITaW4ySmT50GtQ5qRUyGFAA5e84cpGdklOqtoVwQderU4SCkL3XnyVxJ/k3a7kRBlj9aGjaVg43/17sYVgYdzt/muNENcp9ZEF4+fwajlX4cdCdWWwp5r1/j1cvniDm6H+GbvGG8OhAiYuK8GqPBeM2SGbh46kiJ1cu3IJhifMeG3zyPLQjJibCfO77wOCXq6a81CVMWOyDvTS77xI+EboaP7TxUrlIVU4zt0XeUDvvkqVSqXBVa7ST4776jdDFpgQ1Wm0xH7IkDhfeUV+sGE5dA3iNO96egxFcvnn1FELi9x/ZxvoDvuRhs1oWjcYtWnEiItpRmP3uM2OOH4O+wBK67zrC1inbiVKsuij2BntjiZldigiKgHDQmEV4mHIdB7aYdKR4WsznIz3b9XohJSHIMwq3ka7yllQI7m7ZSxBKPraghKoZKlSsj4fwZuJnPwqO7GRgxfQHG6psgL+8NypejxGN5HHxZsM1x0LjpIJfM+WMHsOIzK86PvnMF19Eqn/IYiIiKFpkw6TitZunbp8mzYFvyt57H2xx9vNG0adMiSX8i9u2H9bJl8PRwR8eOHflYzqtXGD1mHK7GX0XDBg3ZTK/QVgGPsx5DtKYoxwqQy6GrelcOkiazP03IklKScHNzwwr7lejSqTM2blzPGJIVQKSGCMc2OK1aVUgQaLu19xe7Mujgd4MU3+ShrdJnQYqOjhyoTM8pMPcT8Zk7bx4TnIbS0hg9ZiyPDQUWBHLdjBiuCdc1Lnj39i2Pq1RXE1NTbN68pRBCHW1tmJub8eLHzd2dCVD9evV4LOzUqRN0dHSwb/8n69rP9rVw/X8TgT9KEEoDmaKCPF6/yeNApS8zxklJ1UFLOVneG0y+uTpSUjzgflnIdPcoK4utDEL53yJQqUpVUNT7+7y3uHbxzP/2YRRAWr4yFDp2xe20JGTdy3f10JY+CnakCbRK1RqYbuYEWQVlTOnVslT1kWvbHo/u3saTR/dLdf6PnkT1lGnRFpWrV8WNy/nb70pbaDsoxV2k34jnuhZOupUqQVa+PXJevkB68tUit6tYuQpateuEJw/vIzOtaDAkbf2k4MWkS9+PpyhtHcvKeeSrb9igPmIvXCw07ZOvXVxcnLcWkkvDxWUVk/vp+jM56Rn74suVh+aI4Rw8Sa6/PR+j+snq2KZ1K9SRqovTZ6Px+nV+joKyVCQlJCDbvBliYi+UOpaAdkdt3bqFCUfnLuplqTlCXf4QAmWeIJQWl1q1xNk81rnzp21kBdeS1cHa2gZhu3eX9nbCef9hBGjyXOi8gff/U9Il2t+/xd0eEdv8/sOtEqr+KxFQV+8CW2tr9rXLybVADZEa0J00GVevXsVM/Rkc3JiamoYOaqrIzMzkIESyJP7NhQJFZ82ahR07d+DUqfw8KUL5/43AX0MQOMCmaRPUrEnJdYoW0h0gH9vjnwjm+//9mvy3Wk/uAUoYJK+qjvdv3yEtKQ5Jl859x3T/32qjUNufQ4CsB4qKilBWasc7J8jtQIG/VChoUVm5HZo3bY7kG8m4cvUKbt1K/7kH/geuJlcuxYCQO+ZX6nv8B5ouVLEYBP4agiD0sICAgICAgICAgICAwK9DQCAIvw5L4U4CAgICAgICAgICfw0CAkH4a7pSaIiAgICAgICAgIDAr0NAIAi/DkvhTgICAgICAgICAgJ/DQICQfhrulJoiICAgICAgICAgMCvQ0AgCL8OS+FOAgICAgICAgICAn8NAgJB+Gu6UmiIgICAgICAgICAwK9DQCAIvw5L4U4CAgICAgICAgICfw0CAkH4a7pSaIiAgICAgICAgIDAr0NAIAi/DkvhTgICAgICAgICAgJ/DQICQfhrulJoiICAgICAgIAc91A+AAAgAElEQVSAgMCvQ0AgCL8OS+FOAgICAgICAgICAn8NAgJB+Gu6UmiIgICAgICAgICAwK9DQCAIvw5L4U4CAgICAgICAgICfw0CAkH4a7pSaIiAgICAgICAgIDAr0NAIAi/DkvhTgICAgICAgICAgJ/DQICQfhrulJoiICAgICAgICAgMCvQ0AgCL8OS+FOAgICAgICAgICAn8NAgJB+Gu6UmiIgICAgICAgICAwK9DQCAIvw5L4U4CAgICAgICAgICfw0CAkH4a7pSaIiAgICAgICAgIDAr0NAIAi/DkvhTgICAgICAgICAgJ/DQICQfhrulJoiICAgICAgICAgMCvQ0AgCL8OS+FOAgICAgICAgICAn8NAgJB+KIrK1WqhMqVK+Hly1el6mQ6t3z5CsjNzS3V+cJJAgICAgICAgICAv8FBMosQRCTaoDWHXqjUpWqeHzvNq7HHkfe65z/KablypXDyJEjoNyuHZaamZfqWX379oGaqip8ff2Q9fhxqa4RThIQEBAQEBAQEBAo6wiUWYLQulNfjFu0GiJiUriVdAGBtvp4fC/9f4pn06ZNsdbPF7vDwuDq5l74rPrNFDDaaCUkGsjATrsjXue8LDzWulUrhO0KxYSJOoiJifmf1k+4uYCAgICAgICAgMDvQqBMEITqouKoWqMmXue+xMtnj4EPHwrbP9zQDrJKnbHeUg9Zd24W/l6hYiWI1JJEOZTD88cP8P7d28JjFStVgYi4BD58+IDnWffx4cN7lK9QAfScN7m5qC4qhndv85D95GERnIf8MxiOjg4YMGgQ0tPzyYjawHGYuMQNOS+eQ0SsNhb0k0buqxeF14mLicHNbQ3ev3sP3cmTi9yP3BViYmLsfnjx4tM1v6tzhecICAgICAgICAgI/CgCf5gglIda/1FQ7D4Y9Zq0RNa9DISsMkbWnbQSCYJkg6boMkwXLdp3ZYKQcPYIDm5azS6IujIt0FVjMpopdsSHd+8QFxWByG0eqF2/MYZOW4qXz56hUQt55LzMxtm9QTh/KKTwWRs3rEflSpUwc5Yhnj59yr83VeiAZgod8O79OwyfaQnTwbJFCAKdM2P6dBgbG6O5rGyRfpCXbwMrS0ucj4nFSkeHH+0j4ToBAQEBAQEBAQGB347AHyUIjVupQM/WH6lx0Ti5yx9t1Qch5mAI7qbGF0sQyleoiFFz7dFNUw+HglxRrnwF9Bg5FceCvbF33QroWvhBqftgRGx0gmjtOug6TBe7fWxx81osptkFoEKlyojatQHynfpCtLYUnPUH4mFGMj/v3Nkz2BUWBgdHJ7x9+8kiQceIxOhZr/smQZiorY3ly+3QrLkc8vLeFNZdXV2d3Q+nok5BQ1Pzt3eu8EABAQEBAQEBAQGBH0XgjxKENp36QcfMC/HRkQjzMMeb16+Q+5JM8cW7GBrKKmCy9TpUF62FmAPBQDmg82BtPHt0D1scjaBnvZZdCxeO7OJjPUfNQPKlU0wYiCBkJMXB3Wg4ug7Xw9iFTtjlZYPDQS6MX0pyMpycneHl7f0VniURhBGamnBycsTEibo4dfpU4bXy8vKwtbbGsePHsOazmIYf7SzhOgEBAQEBAQEBAYHfhcAfJQhVqomgx6gZUO03EhL/x96ZgPW0vHH8S3uS9lUlZAmVPUuRfRcV3eyhrGVtQ2TN2ipKiyVLaLcmpUhFkb1ojxRttG/8nxm3n9u10/+63Jnn8Xj6nTlzZj5zzpnvvO87c2QV8TT1AY7vWIa8jEeNLAgqGv3gbfsuBqGdej8qEKrKS5Fx/wYn36vCfGQ9SMT0NXtR8jIX2cm3Ocfysh4j69FtKhBuR4bgxM5lUOjUHZZekbh4eA9C3TfSvPGx1xF69iy2b9+B2traRn3wJQvCtq1b0KFjZ1RUft3yyH+qg9l1GAFGgBFgBBiB7yHwUwVCQ4VllDtBWbUXRs1ehbR7CTi8cR6nLdp6CzBIfy4OWE9HXmYK5NqqUoFQWVGGPabDG7WZxAsYb/QGEQR7l09udKx994FUIGQnJ2HvisnoP2EOjCx2I8jNDuHHnGjeQz7e4OPjx8JFi1D8ZwxCQyGfEwgkBsHS0gJt2zWOQVBRUcGqlSuQlpZG3RYsMQKMACPACDACvwqBnyoQ1LXHY7DBAtwMD4SUQhtoTzLGzUv+OG6/lMNPSqEd1vreQEpiNF3ueMnXCQZmW9Fv/Aw8iI3Ao5sRNOag4GkGfLcuxKJdp6DabxiSrpxD+v149Bw6GalJMbgXc54KBH5BITyMj4RCRzUItRLFhqm9UPLiKb3e8OHD4Oa6F8NGjEBWVhanDkbWbpBRUoFy1564e/UiCnIzqFuitOgFREREsNfVhbo1ps+Y2ajfB/Tvj6CgQKQkJ2Og9qBf5Z5g9WQEGAFGgBFgBPBTBYJyt74YargEEvJKqKmqRH72E/jtWom6mmpO1/AJtIC2ngnaqfXFm/p6nHKwQn1dDSYsWA9Jhbbg4xdE2asiJIb7I/bMEYhIymPS4o0Qk1Ggmyy9Li5A3FlfuhSSCISivBzU1dWirqYK8eeOI+7cUc61lJSU4OG+H5fCwrFrz27O7wt3nkSz5s04f5N4h7AjDnj5NB0aGuo46uuLOXOMceNv+yDMnjWLLpv08vSClY0Nu90YAUaAEWAEGIFfhsBPFQiEEhc3L0Sk5OjmQ2V/25fgSxQFhcUgICSMkhfPUV/3XlSQ6EQhEQnwCQiiKP8Z3r6pQ4OLIfy4K13eWFNVgeqK0kaXaN68OXQn6kJNrRs22Nl96fL0+BAdHfTo2ROenp6cpZENJ4YGB0OpjRJ0dScjPSP9q8pjmRgBRoARYAQYgX8DgZ8uEP4pCA0C4dIxZ4T7vlu18LHEw80Dbh5uVFZ+3bbOZDOk5s2ao/ovVo+Gcrt26Yaamiqkpaejvr7+n2oquw4jwAgwAowAI/DDBP4zAgHNuCAqJY/XJS9QX80+rPTDdw4rgBFgBBgBRuC3JvDfEQi/dTeyxjECjAAjwAgwAk1LgAmEpuXJSmMEGAFGgBFgBH4LAkwg/BbdyBrBCDACjAAjwAg0LQEmEJqWJyuNEWAEGAFGgBH4LQgwgfBbdCNrBCPACDACjAAj0LQEmEBoWp6sNEaAEWAEGAFG4LcgwATCF7qRl5cXat260VylZWV48uQJ3rx583/v/LbKyqiqrkZubu7//Vr8LVqivq4OtdVft/fDj1ZIX0+Pcrxz9y6nqBHDh0NURBR+p07+aPHsfEaAEWAEGIEmIMAEwhcgKiooIMDfn261nJ2VhT+mTUdV1f9/HwW3vXtRWVGBlatXN0E3f7wIsi/EIANTSLZui/raWhQ8y0R0gAdKXj6nJ3TsrQNphfaIDjjQZHXo1LEjAgL8sW6dLfwDAjjlmi1dghUrVmDSpMm4nZTUZNdjBTECjAAjwAh8HwEmEL7AjYuLC6Kiohg3biyWLl4CLW1tVHzlLovf1yXvztq1cyfy8p5j1+49P1LMZ8+dbLYNWrpzkJoUi9raarRu3xXe62Yj82ECPe8PC0f0GDIJq0cpNVkdzoSEgJuHB1OnTsWr16855fLx8SH18WOc8PPDaguLJrseK4gRYAQYAUbg+wj8VIEgJiYGYm4eNmQIqmtrcObMWZw7fx6lpaUQ4OdHp86dMX2aERQVFHE54jL2u3ugjZISjP74AydP+SM17QltNSlDpX17ODo5Y/p0I/Bwc0NUTAyqnVVx9PgxnD9/gX5tkZ+fHz179sR0IyNISEggLPwS/E744XVp428yfAylnt5k2FhZNxII5NsN/fppYtbMmSCuiMCAIERciaT1FxcTxx+GhtDs1xfhly9DVloW4RGXcfPmTUhLS2PGtOnQ6K6OM2fP0vadO3cO9x88gIKCIhaYzAOaNUNCQiICg4I41dlguw65z59Ds68mKquq4OzsjJTHj0HqMWb0aEydYoCcnKdIS0vF02e59Lqf2+J596WniDy5H+e87fGmvg7Nubnx9s0bcHHzQHfRRnTuOwSS8u1wPfQQ/VZG2JE9qCgtgbRiR/o1TYUOakhOuIL4c8fw6mUuxGQU0W/8TJQVFdAvauY8voPrIYdQlJdN2yAqKoak24kI8A/A8pUrP8Ds6eEORSUlmJouQEZmJuf4+LFjMHCgFq5EReH8hQvfd6ezsxgBRoARYAS+icBPFQgjR46Aybz5iL9xE7KyMnSQO3r0GDZu3oSxY8bAyckRwUHBKCouRvfuGtA3mAJFRUW479+HsrJyGEyZAlEREZw9exYlxcUYP3Ei/E+fRp/evRFzPYbO/LuodsGIkSNx7/59LF68CKtWrkRkZCSSUx5j9KiR1NR9LSbmi9A+JhBGjx6N/W5uuH//PqpraqCp2RebN2+G27792OfmhlEjR+LqtavorqEBCUlJ2G/fDicnZxw5fBh9+/Shx7S1tMAvIAArK2scPXYMSkptoK8/GdOMjJCTnYOJkyZx6vYiPw95z/NwKfwSJk6ciMiISKyysECvnj3g4eGB27eTICgggF69esLHxwfr7TZ+1h2y7vhNlBUX4HZEMFLvxuLp4zv0Wtw8vBg2zRwag8ZDrp0qzvvsoALiapAPuLi4YbLtGFpJytJPaJPPaT+5dQ2HNs6HUueeMHMJQW1NNZIiQ6CqORSZDxLhYW1Eyx09ehS8PD2xedNmuO3f/wHz6UZ/wMLSkgqE2Lg4znHPAx7Q1dXFXjc3rF+/4Yt9xTIwAowAI8AI/DiBnyoQWrRoAXFxcXTu3Akq7VXwxx+GaCnUEmoaGlixfDlWr16FGTNmIvLKFRBrw8uXL+lsecvmTZg1axa69+gJba2B2LlzJ1avWo1T/v4ICgxE1y5d0K9/f2hpacHV1QXbtm6D2353REdFgrgMRo0aTc3brVu3RmFhISoqKr5I8mMCIdDfHyoqKphqaIiXBS8Rc+0a4m/cgLW1DaKjriAhIQEmpgvwh+FUrFu3jgqEo0eO4sHD+wgICICVtQ1M5s+DmZkZRyA0VCQ4KBB4iw8Ewu7de+Di4oKNG+3Qt29fzDGeC2cnRwi1EIKZuTny8vMRHxeLE8ePf1EgdNUaC8OVu9FSRIx+DvtO1FlcOLQDZSWFtBrTrF3Ra5gelg+V5fCRUmiHtUdv4KDdfNy9eg7ak+divKktrMa0Q2uVblQghLpvwdVATwybZoYRM1fAXFuCnr90yWKsXbMGhoZGiIy68gFzKSlJ3IiLh+mCBbgYFsY5vmKZOQwMpuDIUV+4ue37Yl+xDIwAI8AIMAI/TuCnCgStgQPg4uyClsItUV5eAREREdRUV6N9hw7UCkD88MptlVFVWYX97u7Y4+BAXQV9eveBv/8pHDx4CM2bN4OBvgE6dOpEaRCB0KqVMHSGDKWiIyIiHPv37acBcadPn0LSrduYPmvWN5P7mEC4GhVFrz9AS5uWFxocRK0BPt4+2LFzB44cOQJrmzW0PsmPHlGBcDfpDk74ncCuXbuwc9duiIqK4O6dO18lEHKyszj59CfrwcrKEjNmzYL/qVO4HhtLB1biUoi9HoPoqCiOQCCiiggjkmpraxu1vTkXD9S0xmL4NDPqMnBbpY/km+8G748JhE59hmPeZm+4LptEYxW66+hijp0XLEYpQb59Nyx1DsHWGf3wIicV/cfPwtSVO2E9sTMqXhVS19Du3btoMOLxE34f9IG2thYOeHjQdly5EvXNfcROYAQYAUaAEWg6Aj9NIJABi1gJTE3mY7axMVKfpMLZyQk9evSgAoEkQUFBTJ40CcQVMWTIEIwYMQoPHj6gxyLCL0FKSorGD4SEhsLefjtHIAgJCmLYyJGNBAKJX7h06SLy8/MxeszYbyaoN3kyNqy3Rd9+/TkWh/CwMLQSaYWhw4bj9evXuBEXR5clbt6yhUbqX7wYhvkmJhg6dCh8jxymAiE09AziYq/D09MLNmvWYOzYMdi/b99XCYTszAxYWlnj+IkT+KtA8DpwAAWFBTBdsBDPnz9HyqOHCAoK4giE3r16YdTIEaiurcWOHTs5beflF0RN1TvrCYkfWOURjuhAL1zwecdympULeo+aimWDpTjnKHTUwEr3MLiYTUDa3Tj0GjEFM9ftx+qRimjd/p0FYd9qQyTfuAxtvfkwMLfHsmFyqK+pBlnBcOlSGLy9vLHezu6DPiCWocGDB1MXA4nHaEga6upQU1fDo0fJ1CpDRCJLjAAjwAgwAv9fAj9NIJBZ7dIlS2BOzOvW1iCDGJmlk3d/OxUV6E6ciA4dOiD+RjyNR5g+bRoMjYwQHX2VEhmiMxh+fn50YB49ZgweP34XsEgsCB8TCFu2bcMx3yPoq6kJRwcHPElNxYgRI3DE15f67r+URo0aCVcXFxz1PUqX4V29eo2azOfOm4sTJ/xQXl4OU1MT+J08idWrLRAVEYFWoiIIDQ1F3z590alzJyoQXFz24nZiAurr63D+/HkMGTIUrRVacwQC4SAhIQ4bGxvU17/B9u32SEl5TIP2sjLSPyoQ+mv2g63tOlrem7dvoa+vBx9vMgi/i0EwmT8fmzdtQnlFOZTbtuM0lcQSPM9MxrPUB+jUaxB6jzDAwY0muBMVSvPomW2DztQFOOe9A9kpd/A44QpaikrC0vsKspKTkHg5ENqT5kBASATbZg2AQgd1KhDysx4jJuQw+owyRCtxGayd1JmWx83NjZs34pGcnIJp02fgzZv6RtgTbtygwmDR4sWN3D6bNtrBxMSEiirb9es/G3j5pX5kxxkBRoARYAS+jsBPEwikepqamnBycEAb5TaoKK9ATU0N3YSoc5cuWL58OVauWA4eHh7U1tQiKjqKDip/TckPHyAhMRFLlixFyatX9JD/6VMQFBDE6LFj0b5tW4RdCoO7uwe279gBAQFBnAkNQZcuqmjWrBnKSstooOOt27e/SIv4xzfYrsdE3YkoKizEsmXLcTkyEhfOnYVG9+70fGKd0Jush9T0dEhKSCI8PIxaOdJS09C2rTK22W+Hi6srlBTb4OzZEBp/kZKcgrbt2sLS0opaBm4lJEBW7r3Pn5Tr7u6OzVu2IiX5EWysbeB36hQmTZxAA/rmzDFGekYG3FxdqTWipraWiiZiQSDnVFdXY97cubCz20AZq3TsyGmrpXcUFDp0oysmyOqF+7HhOL7dDK8L82keaaWOWLjzJMRlW6OuthZbZ/ZHUV4OhhguwRhjS/Dw8qGy7BWO2JvhblQo2nXTxFKnYFoWDx8ftU4c2rSAIzhImQZ6k7F+wwbaZ2RVQkPSGayDY8d8aSyJ77FjjfrD29MT4yeMp/EHG+zsmAXhi3cry8AIMAKMwI8T+KkCoaH6PXv0pEsWX716vy6eHCMDaAeV9tQ6UFhUxGktGaw7qHTAUV9frFtvi8OHj3w1CSIMSHCijLQ0ku7cQatWraCurg5eHp4PyiA7J96+fZtaBz6ViCWELL0kQoYsOWxISoqKdOXC61evoas7AYsWLcLyFSsQFBQMsksiuS6JuzCcOgVTDadi6dKliIj8MHDvaxpG3DXdu3en1xJuJYyTfieotcLD4/MbHDVr1hwiUvKQbN0OBc8yUJSX9TWXo3kEhcUg364LspOTUF35bploO7V+WOwQgG2zB4JfQBjFL3JQVlLwQZl+J47h1Cl/nPb35xxbt3YNunXtBkOjaY0sC8TqEBlxmQotE1NTREVFf3UdWUZGgBFgBBiB7yfwrxAI31J9MqhZW1li9qxZdEBevGQJsrPfrbP/nqTZty8145N9C/6eklOSsXLlKmR9R/kLTE0wf/58FBQUUDETfTWaCoSiomJqGSEbBZWUlKBzp84IDArE2nW2dOb/PYnEapBBtKioCLIyslTQLDU3x61bt76nuO8+568C4WVO2ifLIUtaq6traH0bkpycLN6+eYvneXmNziPCa8b0aaisrMLJU6eYe+G7e4edyAgwAozAtxH45QQCaR5ZnUDM2Hkv8lFWVvZtLf5bbjJDJQMssQT8PZEVAWSw/Z5vL5CNnpSV26Jjhw7UhUGWQTYspyTXI8sj27ZRRlx8PEpelaDyB3ZnJFYRsj8E2W8hOysbqelplMv31PtHYPIJCEFSoR3yMpNRV1P9I0U1OpeLqzmNTfmn29NkDWAFMQKMACPwCxL4JQXCL8iZVZkRYAQYAUaAEfilCDCB8Et1F6ssI8AIMAKMACPwzxBgAuGf4cyuwggwAowAI8AI/FIEmED4pbqLVZYRYAQYAUaAEfhnCDCB8M9wZldhBBgBRoARYAR+KQJMIPytu1q2bAlhYWE8e/bsqzqS5OXj46MfkmKJEWAEGAFGgBH4XQj8awWCvEo3jJyxEvxCwsh+lISIEy6oKC3+v3InGw5ttLPDkMGD0W/gQM61yN4LXNzcIP/X1lQ1qsP8eXPpngbz55vQ7ZBZYgQYAUaAEWAEfgcC/1qBoNBRHVq6c9FOvT8qy1/DZ70xCnP/vwNwt27dcNDHGxvWb0Do2bO0f0WlW6PXcAPoGCyAsIQ0Vg1vjaqK93svkF0ZQ4KDsH37DvodBpYYAUaAEWAEGIHfgcC/QiAod+0D8pXA/JxUPE6Iwtu/fMRHd8kWtFfv94FAaNFKHF36DaffVEiKOoPqinfb/ZLUUlwaqn2H4k1dHW5FBKG+rga8Ai3QtltfFObmQLlrL5SXFuNBzIVGfbjc3Jx+6EjfYApnR78BusaYMH8NslKS6AeNLEa1aSQQiHth3Zq1GDBwAHSGDGlUnpioKHr16oWcnKd4lPzod7hfWBsYAUaAEWAE/iMEfq5AaMYFk62+UNXUARc3D/3CoYu5HtLuXOPg/5hA6NBzEIztvCAo3ApAM5QWFWDzjH6oLC1G1wGjMXu9B3j5BUC233td+JIek2unirkbvcEn2BK8/PzvPk4UE4YDa6ZzrhUaEkxjD1attuDs0MjNwwduXl507jMEs2zdYTW2fSOBQE4mH0Nab7sOCkptGt02/fr1w6mTfrgecx1TDA3/I7cUayYjwAgwAozA70DgpwqETr3JoLsfNy6eRJDbBnTpPwJPn9xFSf7TTwoE/hbCmL3+ADr11kGAy1o04+LCBJM1eJwQjSPblmDx7tOQUeqA0842aCkmhfHzrRF75ihuhJ3E/C2HUVNdhVMOVug31giqmkPhukwPT26/+wDQvTtJ8PL2hrOL6wfb+qppj6Wi5GMCwdDQEDu226NHz94oKHgfrEi+Vul34jiuRl/F9Jkzf4f7hbWBEWAEGAFG4D9C4KcKBPn2XWG86SDqaqvx8PolZKck0U8Dv/mMi0FJtScdqFuKSuFZ6n1iQIBCB3UU5GbhtKMlneXz8AngefojeqyNai88vnUV5w/upAIh+WYUfNbPQZf+I7Fwxwmc9bLHeZ/ttLuTHz2Eq+te7HVz++CTwp8TCAYG+ti1YwdGjBiFlCfvv+hIvkA4REcHmZmZ9JsLLDECjAAjwAgwAr8KgZ8qEJo354KItDxGzrKAutYoEHO+7zYzJEUGNrIgqGj0g7ftuyDFtt00McfOC0+SYhB2eDcnX11tDWSUOmLGmr24HRWKKyf3cY7VVFVATFaJCoQ70edwzH4JlLtpYuX+C7h4aDdCPTbRvJcvhdFPQK9bZ4uKv3086XMCYc7s2di8aSMUlZRR/xdx86vcBKyejAAjwAgwAozA3wn8VIHAJ9ACAkKtqE9fSrE9Ztjsxauil3A1n8CpZ3cdPUw224jDmxYgN+0BzT/b1gOtJOWwy2QYyOBPyqmvqwUJXJy/9TDeohmcl45DbU01+AVaoLa6CjJtO1OBUPg8G+4WhhhksADDpy3Fse3LEXvmML0ecRN069oNM2fPbrSvQUtRSXTpNwKGq/dgC411eIWKshK8qa+nX4E0NzPDXOM56Kqm3ohv3z59cOLEcdy+dQuT9Q3Y3ccIMAKMACPACPwyBH6qQFAfNB7j56/F88zHaCEiBjnlTvB3tsHNi34cgCJS8ljiEIRmzYDCvGwc3boU3QaMxKQlm/CqIB/52U9oAOLDuMvw27Ucw6ctw5i5Vih4lomC51lQ6KCG+HPH8ehmBBUIPHz8KMp7ChEpOTxPfwi3lQaoLHtFr9dPUxOeBw5gjvFc3Lh5g1OHVQciISwmCXGZ1sjNSEHBswz4u9ig4Gk6pKWlcfyoLy5cDMOOnTsbdTxxL5z080NiYiJGjh79y9wUrKKMACPACDACjMBPFQhCIhIg+x2QZY6vi17g2ZO7yHp4q1EMQnMubkgrtgfJC7xF1qMkvH1bj9YqapBp0xmiUnLISk5CfhYZuNPByy9Il0zKKquipag4Mh7cwovsFIjJKlKBcPtKCHLTk1H+uhBZDxLoYN+QWgm3wu5duyAgIIBpM96vbujQQ4vGMzQkYpHITX+E6ooyjB49CnYbNmCOsTEePHjY6I4ivy9auBAmJiYIDA5mdxsjwAgwAowAI/DLEPipAuGfpNS++0AqEC4dc0a4r+MnL925U2d06KiC4OCQr6pedw0NCAq2wPXYWLx9+6bROZGXL6OmtgYzZ85C/osXX1Uey8QIMAKMACPACPwbCPxnBIJMm04YPccCiRGBuBsV+o+wFxUVRV1tLUrL3u+8+I9cmF2EEWAEGAFGgBH4QQL/GYFAfAR8gkKora7Em/q6H8TGTmcEGAFGgBFgBH5vAv8hgfB7dyRrHSPACDACjAAj0JQEmEBoSpqsLEaAEWAEGAFG4DchwATCb9KRrBmMACPACDACjEBTEmACoSlpsrIYAUaAEWAEGIHfhAATCL9JR7JmMAKMACPACDACTUmACYSmpMnK+mECwsItUVNTg6qqak5ZEhISePXqFWpra3+4fFYAI8AIMAKMwNcRYALhC5xatWqFZWZmNFd2djaOHD2Kurr//zLJyZMmobioCJFRUV/Xkz+QS1yuDWqqKlFalP8Dpfz4qfz8/Djk44P9Hu6IjLxCCyQf9Dro7YXU1FRs3Lz5xzxiDFwAACAASURBVC/CSmAEGAFGgBH4KgJMIHwBUztlZYSGhoIMXsXFxdDS1v7gS49fRfobMwUG+ONN/RvoGfz/PvKk1Lkn5m/zRStxabqNdcHzHBywNkJu2rsto4cYLgXZZnq/xZRvrP3Hs7fuoAEjS0ecdlqD9LsxH2Qy0NOHlbUlTBcsQEJCIue44549GKwzGOPGTcDTZ0+bpC6sEEaAEWAEGIHPE/jpAkFWVhaKCgqor69Heno6ioqLOTUmX0rs1LEjWgq3RHZ2Dp4/f06/kyAvJ4fMrCzOTJ6YoEVatUJmZiZk5WRpWXx8/JAQF8ej5EcoKyvnlMnLw4NOnTrRcrKys5GXl/dV94ie3mTYWFl/IBB4eXnRuXNncHFx0Vnu69evOeWResrKySErKwtCLYRQWFiA16WlaNasGRQUFCAlJYn09AwItxTGy4KXKC8vp/VWUlSA4dQpSEtLx9HjxznltW/XDmXlZZCVlUN9XR0eJSdzzO7CwsJQUWmP0tIyvCopQV19PYqKivD27dtPtm/RngAIi0riZthJ1NbWQFqhHa6cckdBbgakFVUw3mQdumgOx455Oqivr6PfrSBfzSRf1JRUaAdePgH6dcySF88420zzt2gJEUk5vHyaAWklFfpxrJyUuxCWkIa61ljom23FGW973Is+i1cFeSh/XUTrR/jdu3sHERGRWL5iRSN3grSUNOLiYuHk5ARHJ6dG7SEMRUXF8OLFCyrgWGIEGAFGgBFoGgI/VSD07dsXq1auhEr7dnRAS01Nw/r1G5DyOIWKgBUrV6BP794QEhKi5v2JupPQtUsX2K5bh8DgIBw/foJS2LN7N2RlZDDbeC6222+FkqIShFoKQVxMDPfvP8BsY2O8efMGRIxssLWFmroaBPgFkJ6RjnXrbPHgYeOPLH0M7ccEAi8vHxwd9qBnzx70s8/Jj5Kxbbs9Hj58hAH9+8PG2hoysjJUIAgKCML7oA9OnjyFYUOGYtWqlZCkAiEdAgKCcHZxQVhYGLp374E9u3fSb0PFxcXDysaGU53wsIsoKy+nbGrr6uDi4ooTfn4gIsXFxRk9undHWVkZdU2Qgdb9wAHqz/9U2hP+DJf93HDeezvdXbJZ8+ZUUJCBf8X+MIjLKlAx8DzjEXVBeNrMoJ/O1l++HW1Ue9LBnwiEy8ddcTf6LBUJ3XUmYvj0ZUi/fxOdeg4CDx8frgUfpmKhY8+BEJNRRPGLZ/QLmrFnjyPiuDOtXteuXXE5/BLst9nD4W8igByPuXYNN27cgJW1Naqr38cn2G/dgn79+2PvXjecPHWqaZ4KVgojwAgwAowAfqpAGDhwAIYOGYI9Ds7orqEGhz17UFhYiBGjRtGvIK6xsYG+vgHSMzMwa9ZM7NixE4KCgti/bx/U1NSg0b07FQMhIUG4d+cups+ahaDAQGj27UPzKim3wR+Ghli4YAH8A4Pgd/wY+vTtCxubNTh77jwcHXbD3f0A4m/Ef/FW+JhA2LjBDvPmz4W3lzed2a9YsQJHjx7F8hUrcSsxEbw83Ni1ezdmzZyFTp07wX77djg5OeNxSjJKSkqwZ88eWKy2oELBysoaR48do0KDDPinTp7Em/p6TJw0iVO3ly/ycf/ePdisXQu3vXvx9OlTLFy4CIZTp8J8mTmcHJ0hJiaK+Sbz4e3lhfV2G1FVVfXJtpm5hKK9en88fXwfkaf34+aF99YKMvj/scoB3YfowmJMW+qCqKuppl/VHDZ9OWLPHKOz/7kbvSAiKYOtMwegpqoCg/RMMHnpZvoNivMHd9E8ZIvrawGeUNMag9kbDuDkHgvEnz9ORQmxSJC0wNQEtra2tD3BIR9+KOugjzckxCWwYOFCPH32jNOmAP/T0NbWhq3terjt2/fFfmQZGAFGgBFgBL6OwE8VCK2EhaGmpg4dnUF0dk8sCmSm3UlVFfPnzYOt7TpqUo6NjUNWZiae5ebSVpmbLYWNjQ3Gj59AZ+9kpj5hoi5uJyVRgdCubVt0U1fHwAED4Od3Ag4OjvA4cACREZdRWPBOgHxr+phAuHTxIkTFRDF8+EgUlxTjVsJN6vrYsmUrAgMDcPHCBcw3XUBFkK/vESoQzoSeQWzsdXge8KQD/dgxo7F//36OQGioV3BQIBmTGwmEvNxcrF23Dp5eXlixbBmmTJmCWbNn4/Dhw8jPz4Op6UI8z3uO5EcPERwU9EWBIKXUAaNnW0ChgxokZBWR8+QeDm004XwCe5q1K3oN08PyobIcXFzcPJDvoIaOPQZBtm0nSMorQ66tKmwmdEB1ZTlHIET5eyLA5b31gxSgpjUW87YcwrEdyxF35kijLli3dg1MTU1hYDAFsXFxH3SP/batGDBgAOYYz6WunIZkoK+HPn36UlFx7dq1b+1Wlp8RYAQYAUbgEwR+qkDQ15uM7fbbcS3mGhITb2HixIlQUlRE+w4dICcnhwnjx2Pq1CnUSnD33j3o6RtQXzg5di06CrGxsTRgsH379tAZMpQ2kQgE4ZZCGDJsOFTaqyAiIhz79+2H38mTdNB+cP8BDI2MvvmGoALB+s8YhIpKen70lSvg5uZG/4ED6d/nz51D8+bN4OHhQf3lJ074YdXq1ZCTl0PizZtUINy8eROBAQFwdHTCNnt7KCgq4Pq1a18lELKzMmm+Y8ePQ3+yHqysLDFj1iyc8vNDwq1EmJouoOb3hBvxuHz5MkcgCAoKQKSVCN68fftBzEWz5lyQVmgP1X7DMcbYEif3rMaNC+9cNx8TCKLSran7oTj/Ke5fvwhZ5c7Q0B4Hq3HtUV1ZxhEI9sY6eJ7+oBHnzwmEKQYGcHJyxMqVq2j7/p78T59CbW0dlpqZ4eXLl9/cf+wERoARYAQYgW8j8NMEAjGjr7WxwdixY6AzdBgkJSSwb58b2rVth3YqKrQVxNwuLi6O8ePGgcwwV1tY4LR/AD12+KAPhgwZipraGixavBgXLlzkCAQhQUEMGzmykUDYvnMn9WPXVFdDa9Cgb6MEgCw73LZtK3r07Iny8gp6/tkzZyAvL4/xEyYgJycHKY8e4datW1i5ajViY2MQExMDo2nTMc/YGJs2b6ICwcfnENJSH+Oo71EsW7EC5kuXYtXqVV8nEDIzYGlljeMnTjQSCE4ODuDl44XpgoVISUkBERLHjx3jCIRpRkawsFiNiooK9Os/gNN24i4oKymgf5PYgNUHLuP6GV+EutvR34wsXaA51ghm2uKcc7oOGI2Za91wYM1MZNy/gSkrd6P3cH1YjW0sEKzGqdA4g7+mLv1HwnSbL4I9tuDyUcdGx6SkpHD/7h0qnLba23/QP0m3b+Hs2XNYZ2tL40kakrmZGYgVYZ+7B44dO/bZoMxv7nR2AiPACDAC/2ECP00gEOazZs7E5o0bceKkHzTU1NFNTY1G8hOBsMzcHIMHDUJUdBS0Bg6k8QZjx43Do0fJtLvk5GRxOzEReXn59PcGvzSxIHxMIGzZtg0b1tti9uzZVCiQwERdXV1YWVkh4s8195+7D0gd9rq64PnzPMTFxeHg4cPQ7NsX27fbI/VJKurfvEHXrl1ojAEVAl5eGD5iOHWNSElJ06BJe/vtcHJ2xqkTJ6DZT5MGKCoptQEXNxdHIMyZNQvyreWhr69PV2MEBgYiKioa12JikJWRzhEIetSCYIGZM2ehlbAIjh8/SiP5Wwi1AFnVcfDgQWz4MwbBZP58bN60CeUV5VBu247TzK0hKTTIMPPhLXTuNQitJGWxd8VkZD58t8Rw5MxVGDvXEml345F2Lx4RJ1whKNQKlj5X8eTWVXDx8KJT78F4U1f3NwvCJliN6/CBQGglKQdrn2hqBbp3PQy3LwcjJeEypz5XIiORnZWNBYsWoaLi/cqTLqqqOH/+HNavXw+fg4cadZOX5wFqedq0eQucnV04qyn+w880azojwAgwAk1C4KcKBOJOmDBhAnr17IXsnCy6RI9Ewu/ctRtaWlrUuqAgL4+cp89w9+4dHPtz1UJDy9NTn+DUqdPYYGeHyj+D8WbOmAEeHh54eXtDXFwMZHAkqwEir1yhvxsbG6OLameIiIggJeUxDh46hGd/CXr7FFWykmL4sGHo0qULnYmHhIQgNS0N8+fNhYa6Bh3kUx4/pvEAhYVFaNFCCKYm80GWHwq3bIkpU6dg06bNcPfwgKiIKObONaarM0gcxqRJuli1mlhH/KkwIss6/5ri4+IQfjkCFqtX4/z587hz9y66dlHF4ME6OHnyJAqLijBZV5cKrKrqKsyYNh2HDh/Crt176FLQPn36YMTw4XQp4/YdOzlF60xdROMHWknI4nVhPlLvXEdSZDCqKkppHiFRSfQfOx2CwiI0YPLyCVe6iqHXCAO6P0JVeSldqkg2M7p4eBfqamug3LUPuvYfgQsHd6G25sMAyZ7D9dG6fVe61DP9fgLuRody6tNPUxPu7vuw1MyciqKGdOyoL+Tl5DFZT4+29a8pKjISbdu1/cAC0yRPByuEEWAEGIH/MIGfKhAauIuKitLleX/fSpePjxdCQi1RWlraaLle7149MW3adOp6ID7+wKCgb+pCshKCbHxEVhKodeuGFcuXo6Ww8AdlZGdnYcfOXZ8VEGSgayEoSJcIkno2pDGjR0FdTZ3uVUBES5euXTDH2BjXr8diku5EKCsrIzMziwZjSkhKYN58E9y5c+eb2tGQmY+Pj7oQbt+6DQ0NDZiamMCWzrYPfqG8ZuDlFwCfgBANMKypej9r/1JF+FsIo662mq5saKpEBNy8ue8YERFEEhEfK1csw+1bSQiPeG9toAJGSAh37yQhLS0N06ZPx4sXLDahqfqClcMIMAKMwL9CIHxLN5C4BAcHBxr9f+bMWaxctYqa4r83aWiow9rKCmJiYh8U8eTJE2zeshW5f66e+JZrEMuCpaUluLi4UVdXCy9PL9jv2EGLWGZuhiVLltBjZFbv6OAIt/37v6X4RnmJ4ImNiYFwK2HqnyfBmytWrvxPDJhEaJUUl9BVJCwxAowAI8AINB2BX04gkKYTEz0ZWMmmQf/mRNwYcrJydEOmv+9HQNb0k8A8IkJq/9wL4EfaQnaGVG7TBgUvC/CigM2kf4QlO5cRYAQYAUYAP3ejJNYBjAAjwAgwAowAI/DvJPBLWhD+nShZrRgBRoARYAQYgd+HABMIv09fspYwAowAI8AIMAJNRoAJhCZDyQpiBBgBRoARYAR+HwJMIPw+fclawggwAowAI8AINBkBJhCaDCUriBFgBBgBRoAR+H0IMIHw+/QlawkjwAgwAowAI9BkBJhAaDKUrCBGgBFgBBgBRuD3IcAEwu/Tl6wljAAjwAgwAoxAkxFgAqHJULKCGAFGgBFgBBiB34cAEwi/T1+yljACjAAjwAgwAk1GgAmEJkPJCmIEGAFGgBFgBH4fAkwg/D59yVrCCDACjAAjwAg0GQEmEJoMJSuIEWAEGAFGgBH4fQgwgfD79CVrCSPACDACjAAj0GQEmEBoMpSsIEaAEWAEGAFG4PchwATC79OXrCWMACPACDACjECTEWACoclQsoIYAUaAEWAEGIHfhwATCL9PX7KWMAKMACPACDACTUaACYQmQ8kKYgQYAUaAEWAEfh8CTCD8Pn3JWsIIMAKMACPACDQZASYQmgwlK4gRYAQYAUaAEfh9CDCB8Pv0JWsJI8AIMAKMACPQZASYQGgylKwgRoARYAQYAUbg9yHABMLv05esJf8xArKysuDm5kZOTg5tebNmzSAjI42qqioUF5f8x2j8s83l5eWFQmt5ZGRm4c2bN//sxdnV/nMEFFsroLKqCi8LXv6jbf+pAoGLiwuKioqQkpKGokJrZGVlITsnB3l5eRwIMjIyWLViORydnPH02bMfgrNrxw506tQJFZUVWGe7HikpKV9VXvPmzaGkpISXL1+irKzsq8753kxqamooKChAbm7u9xbxS54nIikHEUlZiEgp4HVRPl4+TUNp0YsvtqWVhAy4efhQ+DyLk1dASBjism3Axc3N+e1NfT1yHt/5Ynmfy9CseXNIyiuj5GUuaqoqf6isHz1ZQkICF86fw/WY6zBbtowWR54nK0sL9OndB1MNDVFVXf1VlxFsKQoJeWXIte2Cohc5ePXyGQpys1BfW/PZ8wl3UWl5lJUUorLsFScvn6AQpBTa43nGI9TVfF0dPnchch0J+Taoq61BwbOMr2rTj2TqPWIqBkyYhebc3IgO8ERC2CkAbzlFEiGmN3ky7DZsQB9NTZSXl9NjHTt2pCItOTn5Ry7/rzuXvP+6du2KnOxsFJf8uPAkjJTbtAEpNy09HW/fvmf7/2j8gP79sWTxYggLCyM6Oho7d+3Gm7ffL+qIOGzbti0E+PkbVffxkydo17Yt6t+8wYMHD+gxeTk5kGc1PSMDb+rfoL1KezRv1oxzXn19PR3zSkpK6P0jJyNL60bGurS0NE4+F2dniIqKwHzZchQWFv4/MH20zJ8qEDT7amLXrp2QlJTAs2fPICcrh5DQEFhYWnEqSwbmfW57sWzZcpAO+JH0h6Eh7YS5xnNgMNUQcXFxX1WcoKAgzp05g81btiD88uWvOud7M2VlZMDL2xsbN2363iJ+ufPk2qlC39webVR748WzNIhKyiMhPACn9qz8YluMrFwg1EocHjYzgLf1NH/bbn2hZ7YN4nJt0FJEDKXFBXiZm4XdJkO/WN7nMvAJtMBK90s4sWsl0u/G/lBZP3JyMzTDwoULsHLFcgwZOgxZ2dmc4gYOHAg3V1esWrUKYeHhX3WZGevcoTZwNIrycsDLL4jy18U4ZDcPL5+mf/Z8ubaqMLJyRkzIEcSeOcTJ2169P5Y4BmHrzH54kfP+JfdVlflIJtKPxpt8UJibDe91s763mK8+j9Sf3EM6hosR6bcPl3wd8PYvAwofHx98jxxBZmYGrG3WoK6ujpYdefkyuHm4oaU96Kuv9StkbNGiBR49eADzZcsQGBT0w1UmA6y3lydIuYZ/GKH6K4Xs916YvPOH6OjA1MQENxMTYWq6AG/evHtXfE+SkZaGo6MDOnXsCHn51igsKkRFeTkWLloMP78T1KI0dNhwZGRkYOuWLZg5YwZmzpyJ0rIyBAYGoKamhgoCkl6/fo11trbgas6Fva6uIIKBCH0yiV2wcBESExNpPtXOnXHypB+WL1+BS1/5XH9P2/5+zk8TCERFLlq4CBarV2HYiBGorKgAGYjRrDkeP05B8+ZcGDl8GMTExcDHy4vA4BAUFxfT+vfT7Asebm7w8vGjV8+eOB3gj9TU9y+iYUOHomfPnoiMvAIFBXnExsYj9/m7GbmysjIiwi/hj2nTPxAIgwcNQv/+/ZD8KBkBfz4Ig7S10b59O2zYsAF+fn64k5SE1LR0xP4pLlq2bElvAD4+XgQEBCEzK5NeR0dnMJ1N8PLwolevnggIDMLDhw8/2mciIiLoqtoFCbcSkfb4MQ54eWKD3cYP8pIHatTIEVBVVUVsbCzCL0dw8hAhZaCvh5zsHKSmpaK6ugYPHj6k6rxTp47QnTgRjx8/QW7uMxQUFv3J6y06qHTA+PHj6E0bEBhIhRpJAgIC0BowABmZmZCVkwVR4aFnzkBaUhqPnzxGztOnn7z/xo0dC34+PlyPjeNwJ5lFRUUxYtgw+lBciYpGZVUluLh5MGqOBYYbmWHHvBGoLCuCQEsRSLVuj6QrgfQasspdoD54HKrKS3Hzoh/KXxVCWFwaKj20MHqWBbh4uBF+1Jm+xK+HHgYPLz+ExaXQdcA4jDexhr+TNZITolCcnwMRqdZQ6TEQT27HoPdwfbwufon4s76N2tJjqB5aq6gh9V4sHsZcADcvP1T7DoWIlDwmLbLDteCDdHac+eAWctPvg4dfEP3GTIOojAKeZyTjxvljnPJ6DjdAcX4upFor0+NR/gdQ8aqAc1xYTBrqgydCUk4J92PD8Dgxih4j1+zafxQUOmkg7W4sHl6/yDlHWkoKLi7OqK2pwbQZMxvVXVBAAPvc9qFtu7bQ0tb+4juCi0cADuHZuHTUmbaLi4sbPPwCKMzNRE1VBX0e22sMRLcBI/Es7T7uXAlBdWU5lLr0pr9p6Rrj8a0YPIq/hNz0ZGQ9TEA79X4wcw7B5ml98SIn9YM6yLXrhu46E1D+ugS3IwLxquC9tayz5nB06jUIKYnR9PlJvROLliLimLvpIArzcuBpM/2jberYZxhUNPojN+0h7l49A7x9g3Ya/ak4zE29T88hVqpOfYbgfsxFlJW8RLNmPOg/cQZEJeWQFBWKp3+zMK05EoebYac+EAgSEpKIj70OM3NznD13jlOf6CtXwM3Nhf4DtT5ax0m6uvRZjI+7gYgrkZw8PDzcmGtsjPq6esTExNDnLSr6KhUeSopK0NfXo+/EVyUleF1aiqQ7d+m55HmarDsJklISCAk9w3m/kAFmsLYWMjKzoaiogIEDB+D8hYu4desW533Qo3t33L1zH/cfvmNDEhE+ffv0RuvWCjh//gKKS969b4VatEBK8iMsNTOn74i/J2IF1h0/Hrz8/AgKCqbvn4bUvbsGxo0Zgzt37qK4uAgZWdl4+eIFDvr4oIVQCxhMmfpRgUDe6yNHjsTTp08REhpK3/29e/akz3pCQiJlIyYmBu2BAxF/8yaeP39O793Jk3TpwE0sBTGxsRzxRupz4dw55Dx79oFAkJaWwtAhQ5GZmYWbCTdRW1vLqX+P7hp0Unnr1m2kPH5Mfyd8iWVbVEQEYWEXsX79BjpxlJKUhP/p0+AX4If/aX+YLlyInTt2wMjoD8yeNRuvy0rp8eDgYOzevYeWVf+mHi9evISH+35oDdTCiFGjIdxSiAqJs2fPYcHChTRfq1at4OzkCK7mzTF9ZmOR3EVVFerq6rh2LQbZOe8nC198+L8iw08TCASyuZkZ/devf3+UV1RQ8z1RUA03/7GjvtQFQWZMfxgZ4c7ddw/G/v37QAYh2pFkEObmQWfVLigrL4OVpSWWLTOngxARFgKCgrCz2wgXV1d67scEAlG0rs7OGDd+HD2PDPpXIq/AeN48uLo4Q1NTE9LS0lT1VVZW4mr0VSwxM4OMtAyuXY2mswaiGnm4eWBiaorzFy4g4WY8Wssr0Drx8PCgtLQUhoZGuP/gPn3xkWuQF/2qVSvpg0BuQBMTE9y5ffujAoGcc9DHG0OHDqUmTSEhITi7uGD3rt0QFxfHlSuR9AEnZjti+jp48CDW221EW2VlBAUF0t9JPcjAvcfBAbt27wERP4QlERHEl00eRhMTU/ogdOzQAe7u+ylbBSVFVFRUoLS0DOnpaejTpw9irsVgzTpbvCoppi+thn4jjOPjYkH84zY2a+B79CjnNhw7ZjQOHDiA7KwszDGei0fJyXSgX7T7NF4V5GPfKv1Gtywx6fcbNwP6ZltRV1dLXwDkhb9t9kC07doHU1bshJgsuT+A0pICagVeb9gDdX+a/zWG6MPIYhd81s/Do/h3s+n+E2bDYLk93tTW0lkEv5AwrgUdgt+u5eATFMbmgHto1rwZHQT5Wwhjl8lIVFe8xnRrV8god0ArcRmUvy5CbXU14s+fQIi7HSw8I/80gVeDmOvJQLZ9zmDUVJVhz+VcNOfiRm1VJfgEBPHiWSa2z9ZGbU0lFRyrPSPAy8uHmupKvH3zFqccLfEg9hIW7PBDe3VNVFeWQUCoFa6cdEfw/vWor6ujs4kjRw7D1dUVPgffz9wb4O3ZvRtTp05BawXFL5pvBVqKYfvZxzjnvR0xwQepCKutqaJFNefiwti5NhhiuBhV5a/B36Il7sVcxPHtZtBfthNd+w1Fi1ZiqK6soOfdj7uEk7tXQblL708KhG4DRmHGWjc0a9YcXDy81Cqwb5UBil8+g/bk+Zi0eCNlT6w1ROg5LdNFUW7mJwUCcT/omW/DgAkzqZuDuDfuXbuIY/ZLoWduD4UOatg2awBtz+SlW6EzdQHW6amDj48fC3eehLCENGqrq0DcUkftzRF/7v39+imBYGw8B2ZLl8J0wQLEx9/g3LOfEgjk/XLy+HH00exLn11i6j506BC1PpCJRcy1a9QMTUQ6EXjJKSkwMpoGSSlJnD9zFtW1NXRQIs+uf0AAFi1eAglxCURcvgShli3pIEie79WrLRAUHAx+fn5qzRAQ5IeoqBi9ZnZ2NmbOmo38/HwsWrQQG+3sEBISCuO5czn1V1BoDff9++nzbTxnDkLOnKXHPicQ2rVrh9Mn/dBKRITea+QdvnjxElyLiYGW1kAqBMi7gbybSL3WrlmDw0d8PykQSDuJWLKxsabvWjJRuX37NqbPmIkFpqYwNJyKibqTqAvW6I8/sG3bVgwdOgylZaVwcnRE//79aR0IY4c9jtjt8G4gJulTAsF4zmzs2LEDkRERWLLUDPkv3rs2A/xPQ1tbG7a26+G2b1+j9xN5BxPhRCwHISEh6NunDxUAZCIoJy8HA4MpMDY2/kAgBAQEwn77dloWHcPevsWJ48fpO3iQjg79/c7tW8jMyoLupMmUK3n/L1myBPPmGkNdo3ujejg5OmDatGnYsnkzHJycGx370T9+mkAgFR+kPYi6GIifJiEhgaowf//TeJb7nNMucgOGBgd/IBCIGp85cxbk5eWwfv16kJdi6Jmz9MEjPp4VK1eCPMiTJk3Cpk2bPysQJk6YgH373OisnFgJxowZQ28K4tYg6pXM3O/fvYNly1cgOCSEU7cD7u4YMnQIrCytqG/Ox9sLFy6GYfHSJbh+7Sp98VtaWlGR4uLshC1btuDChYvQHqSNsaPHoEvXLnj06BESE28hLOwSbifdRnZGxkcFQtcuXRF28QKOHDkCn4MHsXnzJsjLy2P27DlYvswc/QcMwLp1tvRh9PBwx5HDh6lA2L/PDV26dIGlhRUkJCXg5OQIR0dHKhCuREZQ05bLXlfISEljyZLFcN3rBgdHR45AUFFRgYWFJe2f9u3bUzfPhPHjgDBX8QAAIABJREFU0atXL/Ts0QNp6WlU6V68eBFPUt/NHC5eOA8pSSlssNuA4JBQDq9B2lrY67qXqtwlS5ciPT0DYtIKWOkehrhzJ3DGcxNUumtBXEYB1VWVdDY6Z6MPWopK4OJhB+rv1jEwRdz5EzjtsJqWu9QxGNy8vHBYPI7jYmi44OcEQsrNaJz12oY/Vu+BuJwSLMe0xYCJxjBctRMBrraIOuUO1X7DkXb3OipL3/nX+QWFsCngAXzWz8XDPwUH+b3nMD2UFL5AfU01BumbotcwXRzbvhyxZw5TgVCc/xSHNy+iYqfX0Ek4tMkU966dx4r9l9BSVBxHNi9C+r14dB0wisZedO47HJOX2OFWRDDuXjsP7cnzICIpQ6+b9TCRWs1O+vlh3ITxePjw0QfvgHVr12Lp0iVQU9NAXv77eJ5PvSxM7I+hS7/hKMp/iodx4bgTFYq0u3F0kN4c8ADp929QC03P4XrU6rJz/jA8S72HNqq9YLzJGzGhvrh4cAen+PYaAz4qELh5eDF7gxcUOqrj4IZ5NOZh0pKNOOe9EwlhJ7Bg50nU1dbCd+tCaOnOhc7UhXBeNumzAoFYBIztvJCVkoTYM77ooaMLde2xcFk2icZV6JtvwyajvqipKsfsDZ7UHbVj7iCMM1mH4dPNcfnYXuRmPMToOavRoqUo1uiqou5PgfQpgeDj5QlFpTZUIKT+ec+Txn9KIJDJDHkmyczR29uHxi4otVHCH0bTQKyWZDAkM8obN27Ay8uTBp0SgeDs7IRu3bphyZKldKB3c3PFqVOnqEDwP3UKJF7J44AHjdmytLSkFgLyjiIDKxEI4uJi2LFzF323tGmjiBs3E+gxMviTiZR/gD8VKQ2JzIp37tiOvn36wtTUFJFR76xZnxMI27ZuwYQJE7B27Tq8elVCn++QM6FYs2YtjvoegbycPDWLa3RXx6ZNm0Duzc8JBPJOCw0Jxov8F9jrthcD+g+AkZERzJeZIyfnKR1IZ8+Zg4TERKxbuw46gweh/8CB0NWdCFdnF8qHjCPEndC9e3d07NwJFRXv4oU+JRAmT54E+63bcCXqCqxtbFBYWMRh4ubqQgXINnt7HDzUWIx/SiDMMTaG2969OOx7BGJi4phioN/IgkAmMuXl72LZHj1Khs3aNfDx8qbW1kmT9ejv16KjUFlZhSmGhhzLucn8+Vi3dg0UlNo0epTX267DNKNpsLffBu+PTBh+RCT8VIFAlDUxl3fq2AnTpxtBQ0MDF85fwDwTky8KBGLy7qamjo4dOuL06VM4d/YsLkdE0IfKx9sH23fuhOGUKXBwdMDWrds+KxA2b9oEE5P5ePHiBZ0pE0uAtIw0tttvh5OLyycFwpWICPDz82HQYB1U19Tg8qUw+r/pgoUIDDiN3Nzn0DeYQhV+TnYWnbkTa8jq1avoA+Dk7EQH1+d/Ccp8lp39UYFguXo1jOcaw9x8GS5cvIiBAwbC1/cwValenp64e+8efWGR2UJiwk2EX7pEBULCzZsIDw+HlZU1mnM1R+z1GBw7dowKhNynT/Hq9StqGSFCQUpaioqkKVMNOQKhqrIKo8aM+eAek5SQQP9+/WFpZQEi4g54HMBaW1uaj7y4iLUiPT2dc3OT34nVhJj/qqqrqLuD+B45AuH8CZzz3gbD1Y7oNWwSNZ+7rdTHUsdAOtMvf1VM699KQhZ5mY85s8LvFQjuVtORHB+OuZsOQbXfMKwcJg/FTj1g7noGrwvz8Dz9EZKiz+DG+eOctn9KIAwxXAqNweMgJCIOfsGWEBaTQqjHZlw8vJsKhIex4fBcOxMqPbSxaKcf/HavQty5o3COLsTtyGAc3mSK+rr3Zk0z5zPo0GMAXhXmobamGjy8fNSKQAQCERZUIJz0w+gx45CS8mFA3HuBoI68/Pwvvh+I6V2xc3eoaY1DD52JKMrPgeeamTSGY9Guk3hd9ALVFWXg4eMHCQo9tHkxbp4/9s0CgcQ3rD0aj6QroQhys4WolDzm2HmjuqoCx+2XwsrnKo7tXIFb4afQtf9IzLHzgrvNjM8KhF7D9Wm+wrxsvKmrB59gCwiLSiLM1xk3L57E/K2HkXLrKpIiAmm+gxsXIPPhTRhZOqHHEN0/4yyaQVhMklp67I11kJfxzhX4KYHg7elJB/gFCxZyRPHnBMIaa2s6wE0YPxFxN+JhajIfNjY2sLa2wZAhQzBixHD06NELBYUFVFyT9yIRCP7+/qiurqJxJkAzZGdlIDQ0lAqE1MePqSmbmNbJDFNSUpK6B4lljlgCiUB48PABnd0Sy8RfExECSoqKyH3+nLMChhwnzywJvhNp1YpOXIhl8EsC4Vp0NHVDLlu2jPrYD3i4o7V8a4wdPx63byXC1/coduzYCRlZGRpU6+jg8FmBQK4fd/06Xrx89y7m4+WjlhQyQ1+/wQ57XV1QUV4BKxsbBAcFwsPDE94+3jQ4d5n5MuriJTyISZ64YMaOHYebCQmfFQgkXwcVFRQVF9O4gYaYEnKSsnIbSEpK0QB6Yn35a/qUQBg7fhx1q4wePQYvCwrQp0/vRgLh0qVL8PA4QIsqKy9HfX3dO4GQm4tJeg0CIZqKORJsTOpF0juBsBYKSkqN6kEsPyR+j9T9xcumXeXwUwXC399cxMxvYKAPaVm5LwoEjW5q0BwwgProQkKCcSksDGGXLlGBcPToUWzavIWaoHbv3vU3gdAGEeHhjWIQiGlm/vx5kJaR/ahJ9lMWhKjISPowEwVLbkoyKJMZEBmo/f1PITMjC/pTptC2PMvJhoOTEw4c8MTWLZsxduxYCAoIIj0tjdb1/MUL1E3xKYFgbWmJ2bNnU7/nxbAw9O7dm84i9AwM4OnhQV0XRJgQ81rSrUQ6o6cC4cYNXI6MgJWVFTXr3oiLxRFfXyoQcrKyYLt+PTy9vD4YRBpcDNeuXuMM/CQTMWUSywGZBfXq3QvVVdWIIKY5M3OUlr6m5RAzIUmkPX+NUCZmMnL+X48Ji8tQF0Pxi2dwt5hKj81Y4wbiu3dcPIYKhB3zdJCf9fEA1QaB4Lh4PN6+fRcs1pA+Z0HYMmMgCp6mYvZ6L3TTHo2VQ9/fc1NWOaDXkIkQEpWAm4UR7hOf9icsCIqde2LRLj+UvSrGoY0L6DmLdxJryDZcOLiDCoSkyBAc3rwAip26Y7nbOZzcY4HYM0fgcq0YiZdO46Dd/Eb1NnMJhZi0POym9vzo/djgYtjn5gZPb58P+s5h925qipWVb93omIy0FFrLy6OopIRabz6WJBXaYe3RG3A1n0hjQWaucaMumgdxYR9k/1YLwjuBcONPgbDuT4HgRU38R7ctgdXBaJzYvRoJF/2oNWWOnSfcrb8sEKZZu8JqXHsqYv6eFu06jTZd+yBony0mmtrCVq8bdW1Ms3KGbJvO2GjU66McyI9EICSEn0bYkT14+5eljMazZ1GhTp7zuPh4zvmfsiCstbGBmbkZJk6ciNi4eMyfNw9r166hIkFnsA5GjByBXr370AlKeFgYuLi5OAKBvE+0Bw9+9w55mkOtEEQgpD15gvj4eBhN/zAmg5jliUDYt28fDvv6fnAPkWeQ/CPP59+XaJJnlzynxBLZ8Ox+zoIQc/WdQCABjMQFSXzpxC08Zuw43E5MxLHjx2C/fQf12RMLKLH0fs6CQFYBRF25An0Dg0ZsGyDbWFtTF8n4CROoOZ/EMCQlJWGNtQ0mT9al8R9EWHwsnT97Frl5z2FqupC6LBsSaS9pN+ljsgLhr+lzrD4nEMgy40thF1FeVgZpGZlGAuHI4SOwXvPeckPcSyeOH6MT0/cuhttU7BB3CknUxbB4MR2n1NQ1vrqOn7y5v/LATxUIJLhCTk6OLvMgM/F1a9air6YmFBQVqY+dBKG0aaMED3d3au4nqvbZs1y47nXBxwTC3n37cOigD7i4msPKygYzpk+H7iTdRi4GasIKDoKnlzciIiNpwAzx65OoVEdHJ7qKgviCSczBw0eP6JJDIhCIT+iApxcCAgPwquQVVWpengegpaUFC0tL5OXl4+SJE3TwJubzmGvRHxUIu3btpl1D4gYM9PQwYOBAaGio4/at23S52oO7d6mJztPz/aBNfFHkwQkI8IenpyeID2vF8uXorNoZs2bNxsIFCzFYZxBV6sQaQUx7hw8dogLBxckJaupqsLffjpraGmptcPgzBuFq1BXcu/+AXouo49at5ZGalkZfVJ8SCG57XWlEMDkv8VYijhzx5QQ2NtxzZFZB4iuIyic+04ZEziPRy0SNz503n16LmJ1HG1thsIEpDlhPp0JBd5EdOvcdhi3T+2Lu5kPIy3yCK6f20eBEUanWdJlhQ/DbnI0H0aZzd5x0sMTLp6l4kZ0KPgEhSLZuC9V+IzByxjKEHtiCJ4nReJb2gBOD8DGBIKXQDkSwEFM7iWSfsmI7bob50/iEBoFgfzYNZzy34u7VcygrfonWHdQxb/NB3Ag7hdjQw9Rnr6Y1mrovzvt8XiCsOhABfoEWOO1sg/ysxxCTbo2C3Axojp2B4dPNEOqxFQ/jLnEsCMSsT3z9JBiKLHsiL/G/DxDkudnv5gYFRQVq2WpI5AW4csVKWFisQmZGBnr16cs51mfUH8jPSqGxBG1Ue8DI0hnO5hPx9PE9bA1JpoGVNy76USsHWYqa+SCBBjDKKHeCyVZfGlcR7GaL0qKXKHtVQNmZOYfCZ4MxivPfL01+lvoAczf50L45um0ppBTbYfLSLbh8wg3Xg31guv04nb2F7rdD1wEjMWL6Mjj9xcVQWV6GkP0bOPUuLX4J0mfEMhCyzw7p92+ivr4WErKKSL4Zhfq6GmiOnYn/sXcd4Fyub/huR4UiUUa7ZLYoGQ3tPWhqaVgJRVGERCENFRpGIoWUdtoKIUV70R6a2rv/9TzOT3SoTqfOcfp/z3V1Hef3rfd73vd73/t91m3qvBRP7t9B9tHd7JqiOI6+k2aj6yg7LLcfxC4gijehOIQLGQcL7z/CaTlq162Pbas88eTBHQ7cJJGXl0PSocMM1nfs3FkMIFSvXg0TJ00u/I2C67RaamFZQABiNmzkBZv88M2aN2MXKQH9OXNcsXRpAPvtw0JCcO36NQYIC/38+Npp06ZzbELwymBs3LiRAcLmTXGcHj5r9mxcuZLDmWC046T4BfL3fw0gmE+ehDkurtiwcSNs7e0L21pXXp7HlW779jAdM7owCJoAwsXz59mff/BggduB5Oy585jn6cHzJwXq0VxJpnWy5NKcGBoSAiVFRc7+IgsHgQMCRiKAQFZackWILBz5+flcw2Pb1gTExG7Ctm1b2SqhoKDALk5a+Lt07sxxU5TqR/PIlCk2PBeTm4OsC2TVuXjxIipXqQKych78w01C7XWeOZPjzMjlTK4hkUt0qLEJFi/yx959e2E3bRoePPicRkjzVfdu3eHm4c6bOxKytDRu1AjSMtLcpz6+Pjh8OIljCAi0kAXhwoWL3M9kmaY4g6JBil8CBLrn2rAwGBoa8Iaymlg1RKxby1YTK+sp/EyyiNAYorE7dvz4Yss7xcPMcHRA8MqV8Jjr+Z1L//ed9q8CBAq4IF/Yrdu3OYNBRloaAcuXw99/EYyHDMGYMaMZKFAUKXUofWwEFBxnOEJTTR3t9fTYVEYWhD2798CBdtljxsJzrgd/LK9fv2LkShkBy1esYI0Qup4+bRpbF6iuwfro9Vi7NoJ9+oMHDeZBR6i6Ro3qsLS2RmrqMbYSLPb3h5FRF27rkaQkuMxxg0rz5li3LoLbTmibgnDIX0iTBgUplmRBEAEEUffQYGuno4NKlSsjOTmZsxjevn/HEcsi8fTyZnPjmlWrGQhQuykIkILUlgYsQ22Z2hz/QGbPAiT8CdEbN8DDYy4P5KDAQHYf0LPIxbFs+TIsXrIEvXr2wlwPypb4hNt37nLEs62dHfbu3YemFKQYFIikpCS4zvk8KdMiT2iW/Jkii8GXQ42DFOXk4TyreJBir549GOAUBCmOx7nzBXUoais2xnCHRVBWaYkHt6+ilpwScs9kIMjBBG17DMPgKfM4WI/qIlB9AzLfH9lcAKCUW2jDwnc959tToKLfJCMOkhtk4wVpOQVUk5TmPP0nebcxf5w+dPuNgbHtAniadsDDW1eKWRCMRtqiyzBLPLh9HTVq1UbFSpUQ5DAMNy8VBMeSiX1qwDb2bT/Ju8UR7oc3rYH5gigoq7ZG/v27DHik5ZWKWRBOHEhAhKc5FJppYVrgTmxY6IDU7eug2Lwlxriu5Oc8fXgP1SRqIS5gFnKyU2E6OxjN2xgwEKLnvnyWj3VeVsi7fon1b2VpATtbW3TqbFQscpnSHCkt2MZmKg4c/LzYFQUIZIpsWwQg+O25iZfPHjP4oLZfPXucn5X/4C56T3CGwUAzXiAJIIjXkMIS6z5cd4LaNcxhEdp0NUbezSs4dWQXtq/yRAM1bXbVUH+R+VQk3mMN0VCtLUbMWMw1DSqLiXO/rJw5gkEfuQsG2Xjj44f3qFRZjKPil9oOQn7eTQYWcvWb43n+58n7UuZRxCx2QK9xM2EweALXSKAdN73DrIGqePPiKSqLVcP8rZdQvmIFhLlNwsmDW7g5dRurceApAYz7t3L5vV49f4r5Y/UK29tIqwPGzA5iFxdlcBCAJeE0x7VrWe8znZwLo97JgtCkaRPcK+IypMVy3jwvLPL3Z3cCuRHqyNZBSEgIz0vVa1RH4PLl6NChA7veKFf+1u1bHJ8gKysLcmfQQkR1PKqKiXFgoZW1Nc89ZCGglDvKsacCWdu2bef0aPrO9+/bi6DAoBItCIVBilsSOBBbJIoKCrz46ujoYNzYsdi6vSBDgwHChQscCEjZZiIZPWYc3r57g5DVayAhUYNi7VgXU2iDlJKC9u3agwLoakjU4Dm0YoWKmOPuhvVR6xEaGsJxXgQq+EICHGfOYqyZGceO2dva4Un+E+TnPwWZ0LsYGfHmkOZYclVQPRv/hf7wXbiQ517a+JEluFPHjsjJzUHVKlV5LqQ6FSKRl5NDbMxGVKtWHQ8fPkCXrt340LixY+Dr61tikGJcbAwMDQ2LBSlSzNyiRf4FdQvq1sWjR48YvFhYWPH9CSBQ1oaBvgFoQ1WzVk1el/KfPuVNXkkAgQJD14aHMViidr9+/Qamo0cXZqY0adKUQaGd/TTsSSxuzZvv7YUJEyZgwYIFXOPhZ8q/ChDIaiAvV48R65u3r5B6LB13797hXQQt5PTvS6EsAxokFStUwJP8fDaVUcQqDUzyvxOKo/+vJi4OExMTODo4YNLkScWC5egDp0WdJlpCrOzrqlIFsrK1QbUZ6EM4lnqM0avIH1W0PfQsykogIf+VloYGKlepzIsmtY92dpS6SP8VnUfWEAIt9O9rQud9KdQ+aie1gWIu1NRVsX//QR7k5MenKP5q1atz2s3LV6/Yh7ckYCmWLy8ARWyNkaqJD58+gtwitLOnYB4aiHSMgpLk5WRxJDkV169fY12KjtHfpZnsSnsPenfqF+qPojnONEnQ82jCJXNk0cwHCoirWq0WmrbWx/Xzx/Ek7yZHs1PmQpVqNTitroaUDK6cPMq++c8FeMpBXKLgeSTP8x9x6iTtzCkLQiQ0ibzIf8S7cVo0aMH9RFkM4tXZ5MzHqohBsrY8GmnqchrjgxtX8PJZ8cIwdD5FzpPSyTTOEffi1SFZWwHS8oq4fi6T++Ptm5dcTImi/GkxJPM3+bhpl0rXcPvLlYNYtRqo11gd8o3UcC4lEY/zbvBCXLmqGGrWUUJDzfZ4dPs664TuIcrfpuCnxN272MxMQJaE+mz6NHue0AYNHsJjpqiIxjABYFEeNh2nTBJK65Su1wA52cfY9UIWAs5uqVQZ4pLSaKHTFa9fPkXu6TSO0RCZ3MltULmKGOuD3vP1i+dcoEqsmgT/VlSovgK5uapWk4KarhGePXqI3DOp/F70LLqOrD/0vEbq2hwn4NS3KQMX0nHRwld0X9pNUeYCZTtQn1Iq6qtXL3D9bAbHTYgWnmoSNVnXr18+/1z8qVw57ntJ2XpoqNYOt6+cZvBVtOATpVpXqVYdFcpTltKHYmOBgqQpKKxV6zaFhZJolydyr4nem74fcvtRZpGSUn1oqKshOSWZfdOib4PmIokaEgzUtyYk4M7dOxy9Tv1Ec5loA5J98iQio6I4AJuEYnpoPtDUUENaRiauXLnM3yrNa5ISElx5r6QaAzR/0j1pMSpa+I2+Ifo+aQ6l30U7e7ofzXMlzcUEXCQkpaDbrj0oXfPg4UOF2Wii+0nXrAUJKQlsjo9ni2fSkSP8HAIyRYXuRXM6/U6gxNCwIypWLI9jaelspRS5Q0gn1EYCK/SOIqF3ou+icydDTlmkYkUPH30OOBRlj9G1JLSwk1B2iHi1aoVrSFG3i0SNGgzgRXOw6Duj9n/Z188oA05CgtcAWjfoOPUR6YHWARrj1PY3r19z1l5xIR1LQVNDHW/fvMPZc2dZFyKh2iY0vsjK/GWhpMOHKJ1fEd2698Clv1kr6Ms+/lcBwp9G3E/4gdIGtdu25ejQfn378KAyMOiIF69K9kv9hEf+67egD2N9VCRnQ1AAG5kvKfOAMi7IPEcono4Z6Ovz/1tYWbFlQJD/tgbatGqDipUrsJWLhCailppaePj4MRfx+a+Jdo9haNmpP66eOwGdHkMZAPiadeQU0LImNNFrt23D9TyKBrX9SDvJV01+9Fo1a6FHzx6c6UDFc6RryWBzfCxbgtq0boPmKs0xbZoD4jf/uRbBjzz3V19DufkUoJlxPIPN9LSTJrfK6T+qDP7q5/9O96eN65Mnj9mF9KVQdgZlYCxZGvDNDehf1clvBxDIj0NmJipmQtG8FMFPKTG/sxDiJj8UlS+liNdTp06xm4N28IQ6KeWHS0Xn5SEjMxP79u376QPpd9av8G7/jAaUmmmhVZdBkJKty+6CMyl7cfVM2jdrOfwzrft1T7G0sGBX4PsP73nnu2HjBk61oyBmKytLDsQm18T5C+excWPMf4b7gczvY0aP5qBFitCnyrWHDh/+U1bFr9Ps/8edaY4na+GvqEj52wEEGhK0YJLLgMz5Rc3Yv/NwIXMWmZDJLPhlWpPoGA2golXCfmd9CO/239QAuXvIZUAuDopF+H8RdiN8/FjMZC6yCtGx/+q3S+Z8mpdoARPmnv/eaP4tAcJ/rxuEFgsaEDQgaEDQgKCBsqUBASCUrf4QWiNoQNCAoAFBA4IGyoQGBIBQJrpBaISgAUEDggYEDQgaKFsaEABC2eoPoTWCBgQNCBoQNCBooExoQAAIZaIbhEYIGhA0IGhA0ICggbKlAQEglK3+EFojaEDQgKABQQOCBsqEBso8QKDqUkRiURJLFeUJU/XDm7du/e1iJX+3N4gKmSpziapz/d37/azrm2hqo0VLXRxMiEKDZupQbKKCpO0bmZ74vyQy8sp48fQRXr0oqGBZVMSqVedSuY/u3canT8XJVv7JdyxfrgIUGjbD7RtX8f7ttwtzmdq64/zJVJzLPIZ+Y6fgYlYaMg59ru3/T7ZdeFbJGqDKplNtbLBz104uSDV40ED07NGTT14TEoKU1FRBdYIGflsN/KsAYfDgQfDz9cWQIcY4nplZTMlUa5y40YlLgSq2HjlyBJZWU7gMMtXdJhKiNm3a4OWrl1xQxNV1DsLWFufrFt2QanATq2O7du242hyRL1HpTKqRkJycwtwGI0YM58JCVAudyD6WBgQw8RKVx6Q8XmIiIyrSNm3aFqNnNhliDA8P4iooh4pUavTgISZxSdy9G40aNyosU0w5zsErV8HH1/cfHUxjHeah84AR8Jg8GMbmjmikogl/RzN0NxmPNh17FJS+FRfn9yba3fdv32KMfsO/1cY5K+Nx/mQaNqzw/q779Bo5GWPs52Joa9li51NpVE3dzpjqFcRldqns756NYQjzK2BCU2qqihmL1qGmjCyX+S1foQJmj++Dq+cKuBO+FKXGKpjmGwqZugpcjrlylapMUEQlXg9vj+EyzF0GjsSL50/x8f17XMzOQGSAJ3LPZfGtxKtLYGXiGdaTZa+WfC0J3WfgBDv0H22Ft29eo7KYGPbGrkXIAidEpt4AlZGma0iIKyAmyAfb1gVi89mnOLA5CjuiVmNexA5kHNgFH/vR36Wzn3lS8pEkHDqcBHcPjz+VZ/6Zz/mn70Vkbd7eXsXqglA+fgtVte9uioa6Otavj0LU+mjMmzePqZqJxrdVy5ZMSBS9YcN330s4UdDAf00D/ypAMDE2hq+PD4yNhyItI61Qd0S04eHhjiFDBmP6dAfm5LawsEDgikAQY+N8Ly8YGxvDedZs3LlzmxduotWMiIwsUf9Ua7t1m9aQqyOHOnVk4eriwsyNxOZFLIY9e/TAxEkT4erqyiQZ06bZ80TZr/8A5lsnitzko0dRqXIlLFmyFPMXLODntG3Thtm7qFojTRRU0IQISbZt34akw4fx7v07LFzoz+cS0KAymWfPFnDNf68QCxoVfaJa5EWpk+l6AkpU5vVLnvKi9y4NINBCVle5MWrK1IGx+XTcuZ6LrWtX8EKbvGcz30K2rhKaaLTBq+fPcCErDS+efa4NXkexAZpraePpo4e4mJ3Ox2rKyKFeo2aw9Q7C3RtXEb1iPp49eYhrF05/9XX7mFpg7PR5GKJZnIdCUloWUzyXQ16pIcIXukKrfSd0GWQK1/F9kXf7Gmy8gqHcuAXCF7qwZaGZlg6SExNw5XTJlTPFqtdAi1a6qFZDEqptOkCv12DEr1nCbIR3rueg1/BJMOgzFItnToCMnCIGT7TFzSuXMHOUEbdfr+cQ2M4P5n6YPbY3LpwsKHHca8RkjJnmjsTYtchMSoSUjCxePnuK1H1bEXXsNu5cv4ItYQF8LpEX5ZzN4t9+BkAgEFVfWZkraBIbXlEh7otGDRsg9+q1ry786amp2H/wIOa4uf3pPCoJSIbgAAAgAElEQVQ6pqaqCrKQXb58BdmnsguLjxEjqY62Nhcky829yiyqRBxE+iESISKgIYva3bt38e7de2YpJCGWPQL3dH5aWnox66C6mhrf7+Onj9BQ12CwTqyqJLRpIJ4PohemexYV4jgQF6/GDKFMAARg7Jgx8PKax4x/IqEiYlu3bWNGRqr0R99361atQYypVIFUJPQsIuOhdyGQERm1ngECCdMp79/Hc8iXAIFIkxo1bIScnJxiG4nv/d6F8wQNlCUNlEmAQGWBV60MxtP8p0x/SYQXMRs3oqaUJCZNNkdwUBByc3IwwtSUP2CaJGkR/ZKcpiRFE23y4UOHMJj4xv8wD85xdYGVlRU66HbApStXEBezES1UVZlYJC09He5uc2BkZMQTY02pmlDX1ORbh4WGQlu7LUaOHIUTJ0/ybyKe9fRjx3D7zu1CPu+/2unKSopwdHRkOtjQ0DCm8hSRiNCkT1wLbVq3gq/vQmZuLE1KAwhnjyfzJfXqN4FH6FZcyM6Az9TP3PJqOgaY5OwLabl6vKhlHT2AYE97vMh/gk79R2KY9QxU/4OIaEOgD3ZGBaPnCHOYmE9HDcmafM3L589wM+cCZo0uMMmWJqUBhEYttOASFIvY1f7YtnYFVFq1h73PajbJH9y6HvY+axDi44L98QWWI7IwkIuBavh/S4wGjsZIO1d4WgzBlTMFfTfVKxj6vY0ZqJA1YsnmVCZYsurdGvj0EX4xSUykVK4c8OTBfXhZD+Xr/OOOQky8GuwG6zEhEAkRRZHViADC6fSkwnOLtuvvAgQ9vQ6wtrJG0yaNMdnCAunpGYVjcNTIkRgxYgTExcWYGZAAZmlSGkCgCpxUptvCwpy/QSKcIZC+ag2x90lg6ZLFzPxH38XzZ8+RfeoUzC0smGnUn6iKtbTw9u2bAgKx1GOwtLICAQAvLy+oqDTn7/bC+QsYZ2ZWCHKJ0Y7YDoluXUJSgu+roaXFTY/ZuAEtVFpgReAKLF8RWOx1aMEmwELMiURjTCICCHXrKfzp1YkNc9LESdy+WtLSbOkbP34C0jPSQZZNourlEravXvHxgGXLvwsgEO3uuHHjsHLlSvgvWvytYSgcFzRQpjVQJgGCiooKItaGYz/zis9kBcbHxaGFigrMLS0ZIPj6+SI0LJwpoon7m0qRfm0nLeqFrwGEYUOHQlpaBp6eniBK3F69++ATPuF0djZztd+4cQM2NlPQvp0uruTmYG9iItNC67Rr/6dOJoCgpKyE168K2MZo5+K3cCEv9KWJdK1aqF+/AZydZqB169bM5nXyxAn4+vkj734eVJo1h+MMB6irqePho4dIT0uH9/wFuHqtgKe+JKEddsMWWkg/tBP1GjSBnGJDZCbtwbMnBUxmJQEEYuebF7EbNSQkscLNDi1a62CQmR38ppvhQlYqnJaux6P7d+FjZ4qGKi1RtVo1nMs4UmjhWLEjE1cvnoGPrel3Df7SAEJzLR24rdmCGSO64tqFU6ij0ADOy9bj1csXSAhfxmDBVFcZ796+hZS0LLOnvXr5HE8ff6YELq0BpQKEPsawHdAebTv1wpBJ03Dq2GHMtxmBKmLiiDp2C7ui16CKuDj0ew7CSB1F3uku25aB5/lP4Dis058eRwChipgY3r15w8devniGVV7TkbJnC3qPNEfuhdPIOZeFzv1HIPf8KZzLLABupQnterXbasNh+jTUrVeXx/y+vfuwIigQlStV5sVt/LhxTB9+/fp1RK9fj4jIqB+yIJArLuvkCZw4cQIzZs5kdyDtqnv07AlNDS2mA6dd9LXrV7HQzw+ZJ07CZOhQDBs6DJ6eHvCcOw8fPr6Hm5sbuwhNR4/BgvnzMaB/P7i5ueP9xw9szduyZQtmzHTiV96yOZ5dgTEbYxAaHob+ffvB1a2AbnzH9m1QU1PD4kWL4b+4+OJL3xtZ21xcXRCxrsCSKAII796+K1Qn0cZ36doVjo4OmGZvjy2bt2D7jh2YO9eDd/3jxpsx5XGbVq0xbdo0DBo0kN+XiHC+x4JAm43JkydjWUAAvOYXWBoFETTwX9VAmQQIqqqqiFwXgW1bt2K26xzW7aa4WN59WFha8Qc8e5YLko4ewUJfH+jotEN2djb6Dxz4zX74GkC4f/8BalSvxnTSVtZTEBMbCwIrhw4eQOS6KKSkpmDx4kUIDl7J/tqD+/ejStUqaK/b4U/PpQmrfIXyiFi3jo99eP+BQQZNtqXJ6pUr0a9fXyaZWhcZyX5PkSmVXBm0YyTLydqICMTGxSEv7/433/dbJ5QEECjoLyL5Om5fvYQHdwsWuAbN1XH80B4Ez7XDFK8g1KvfGLtjwvHwzg1kHzuE5/mPCx/10wBCy3bwWJMA+yEGuJlzHrXlFeG8fAPrcnPIItj5rMao9kr8u+381ZBXaoCju+OxzMXqW6+N0gBCx/7D8SjvDmpI1eLYhGkmHXEr5zwoTsJshhciFs2FRC1pDBhrDa8pI3Em4wgWxR3B4/t34TSqgF++qBBAeHT/Ng4mRPPPRBGdfmg36/ZHJO1YCpSUlJn9LyJiHeI3b+bdr46ONjZER7MFi1xekZGROHDgEAOYb0lpFgQFhXo4lpqKyebm2LZtO9q3b8cuNT19A7i6zGbX3vjxZhwkHBuzER8+fGSAQFYAKUlJjBo9hq0E6yPXMb3xeLMJSE1JYVrjCxcuoHy58mjarCnv0tvqtONmEkBo2qQpW+m+ZEns26c36tVTQEpKCrKyi8eZGA8ZwnTnBw8dwsU/KG9FAKFo3M/9e3mIXL+eAYKdrS00iP3y4UNsiotD7doymDrVFsHBQUhJToa1zVQYDx7Mm5FVq9d8F0Bo2bIl09dTGzO/8q1/q0+E44IGyoIGyiRAaNKkMUJDQnDu3DlMnDSZJ734TZtQv74ymzDJgrB16zZ4zJ2Lxo0bISwkBK9evYZBx47f1OnXAAKZBj99Avz8fJGeloFx48fDzW0Om1jz8vLYx0u+2MOHk2AydBjiN8VBSUkRPXv2xt17xX2iP+Ji6N+3L6Y7OKCObG32vRIL5ZqQULZcDDMxxlRbO0hJSvAxip4OXxvBPtS/I6UDhGuIXbmQF0CRkNXh2sWzqKOgjO4mZtDrNQRi4uKID1mC+JDFvKCS/CyA0FSjDVxXxmPpLAuk7duG+s3U4bgoHPduXsOuDSGw910Nx+FGuHc9B/Wbq8PBPwyXT5+E95Rh31RJaQDBoI8JWwJU2+phqMUM7IhejcjF7nAOWI+2nXtxbAXxw8vI1cPBrRuwZOZkLNuWzm6NqQMKFrkvAUJpLoZvNrKEE6bb22P0mDH4+PEDj4O9e/dh/fpoVKlSGZ6ec9G5U2fcf3AfFy5c5F347sREPvdrUhpAoIV6b+JuTDa3wM5du9idQEDdwLAjvL3mcTwAfZ8EYgkUVK0qxgCBXAHkdpgwYSLKlS/H3zIFAJuZTUBm5nGEr12LpMOf6cbfvH2LtLSCGCQCCGJVxdCtR48fUU+xa77mYiCAYGNtDQUlZb5mU2wsW2Rs7ezZMhIXFwePuZ7o0b07li0LYGvllxYEsipER0f/9myTf7sjhBv8ZzVQJgDCiBGjkJFZ4D8lqV6tGvz8/DhSWLtdO1AkMVkNyDxoZTUFQYEroKGhwb5Jmoj2Ju5BOZT72wBBFIOwyH8h+vfvDzs7e4wbOxbqGuqY6+HBbRtiPAR169ZjMyJNmDNnzoSn5zxOeaLdEv0jd0JaaiqDhiHGJoXvRW39Hu74llpacJvjitZt2vD9XGa7coYGxSDodegAV1cXtGjRgjZisLKyxpatCT88AEsCCFXFq2HN/gtYv9wLezaGcDxBhQoVOYCRYj4o2p8WHfrN0j0A9ZupwnFYZ7x5/aoQIDy4dwcekwbyeSLgUFojRS6G4W3li50iW08ZjosjeFH2tTNFh+4DMMnFHxtWzMfptCOw912Dx/fvwWPyQI4/WLTpCK5dPPe3AIIoBoEa4r0uEbJ1FbF0lhXGOXqifPmKnH1AMtRyJh7cvYE5EwbAdl4gVLX1sMhxIrKPHUS58hU4q+Xdm1ccg0DxHgtsRxYZB++/qZOvdSgx5A3o1x8OjtOhqKjIsQHDhg/HiRMn2W9uYW6O8ePGooaEBM6cPoORo0bhXl7paa0EEA4lJWGup2ehK4LGKlnSrly6hKm2tojbtAldu3YFWbk66OtjxPBhMDUdhdFjxuLypcvYv28vrl2/wQCBYnZ69+6NAQMHcQbS5vh4nD5zmgE3cdefPn0WM5xm8rPILURjSsRASgChQvny6NOv/59UQFaK1i1bwdfPDyuCgoodP3hgP+rJ18UsFxdsjInhYyKA0KBho2LnkjuSAMIUK2soKhcHCGPHjeMNCLkG+w0YgIkTJ8Bp5kysCAwqBAgU77RxQzQHRLq4uHLbRd/1iOEjMN97HlsOZ812+eHvUrhQ0EBZ0ECZAAg3blznyGWReHl7Q05OHvM8PXHh4gWOGqbdCgGJs+fOgsyJlOXw5MkTXLxwEQYGBkhOTsZI02/7vL9mQdDV1cXlKzmoVbMm0tKO4dKlyxxwlZGRjgkTJ3HzCLQkbNkCJ2dnngRiNmyEmroqMtLTISVVk6PJradMwf69e1FbtjYuXbxY+F7xmxMQFBz03Xzu9ZWUMcp0FFsS9uzZU+y65k2bYdjwYdi7by+OHDn6w2OpJIBAC7+J5Uz0HjEJN65cwO1rl9GitS787MfhyYO7mO4fjkcP7uFl/hO07dwTR3fFc0ofBfCRzFwaBS3dLjh3IoWzH6KXeX21fX1GWWD8DG9cOVPc/TJn4iD0HGYGEwsHnD6WBDnlRnj7+hXsBumCIgX7j52C4VZOHO/w4mk+VFvrYldMKMJ8nL+pD6NBozHStvQgRboBBWq6BsUi7+Y11KpTF8Fzp+PQ1vV87xFTXNHdZAwCZlvh5uXzcFiyDpI1ZXAhKx11lRviQnY6gtxtGSB8+vQBt69e5usY0Matxd5Na7/Zxu85Qa+DLnr17IWQsDAG0EWFYmpatFDhzJuHjwpiTkoSAgjValTH7du3ObCSZPv27QgMXonw0FDOOEhNTUGHDh1wOOkIbG1tISYmztYECiQkF4GMjAyb1IcOG85WtojwcI6DIFApU7s2xyCMGDkKgwcNgufcuRxDk5GRgZZaLbEnMRGef2QIfA0g7NubyDEIlBn0ZbrwqewsjkdymjULYWEFQasigHDm9OcsGrIQEviwtbUpESDodtBjQDDF2pqzGijNWk5ejmMt5nkVjGMC7SOGDWegfubMGXY9+vot5GP2drZwdnZGWFgYpjs4fk8XCucIGiizGvhXAYKykhLIZ0f1A4pKZuYJ3L1zF/r6etDU1OAUKTKpi7IOKHff0EAfjRo3hpKCAqcPZmZm4kKRxbg0jVevXh3dunbF4aSkwnQodXU1NG3aFLt378Hz5wVR6JS1UE1cnOMIKDWRTLYioUmO0r0IQMjKysLQ0BCa6mq8I9q3/wBnPnQ1MkL1GtWLNYPSxLKyssqUSZJS/zTbdeTAPlFmAzVaQkoazVvqoKlWW1SpIo5rl84gNTEB796+QUs9IzRWb41KFSvjQtYxnD9xjIMWRSKv3AiNVVuya4gyGdIPfr34DwVPUsYCTbxFJXnPFq490KJ1ezTV1MGjvNvISj6A65cLUkWrVBWHlm4nyDdoimrVJXDjyjmcTkviGIJviZxiA46rOJWWVBg/0UxLm1M7k3bEFl6u12MQZyRQ21L2buUYAhJKDyU3xOXTmbh7Ixf1GjZlEKXcpAUe5d1FdupBPtahxyDQjl8knwDcuHyOAxLLipAZ/cuxeuPGTTb7N6hfH/oGBqA0Qhq7R44kI/dqLiqUrwB1dXWotlDB+w8fYG1lhYuXLsLcwpJfi6xg9E1R/QpLC3P+dm2m2oK+P0oP1tTSRF05eZy/eIFrkZw/f56vMzQ0YGsgxRJ8KV26dOHYhnPnz/8pXbh3716cyXTyZBYHG5JQjISWpiZ/w0Vl8+bNaNq0GZo1bcoxHCQG+vrsLtu9ezenaOrp6UNDQ43nljev33DMxOkzZwpvQwHFBJwou4MCiMntSEJWjvbt2xfGbZSVPhbaIWjgRzTwrwKE72mwyAQpSvEreg1N2jRRvf/wHjVr1sTiRYs4L/tLIeuEx1wPxG/e8j2P/KFzaBEgUyntEH8noXQ/mrDJVVC0DoPod3I//BNCVg0KuBPtcIuNgz8W8G+5Mn51O2k8kl6ojSWN11/9/F91f3qvihXoO/s8BihjYJazE1sBNDU1MXLECDg7z0Z4xFpemG2mWCMp6Qg6djTEoIEDMXHiJGzf+RkoEnikf/S9fFnf41e9x1+9L33Tf7V9V3NycCztGNdeKKn6619tg3C+oIF/UwNlHiB8r3IoJYv8rlS/4Eshf2LU+vVIT0//3tsJ5wkaEDTwFQ3IyEhjvpc3mjRtytUhKTtn0ZLFuHXrNho0aMAxNA0bNMTrN685op8C+ihb4HcXsj5QddenT/9cEvx3f3fh/X4/Dfw2AOH36xrhjQQNlG0NUJVF8tETAKfMiaJCWRXycnU5gJLiDQQRNCBo4L+nAQEg/Pf6TGixoAFBA4IGBA0IGvjlGhAAwi9XsfAAQQOCBgQNCBoQNPDf04AAEP57fSa0WNCAoAFBA4IGBA38cg0IAOGXq1h4gKABQQOCBgQNCBr472lAAAj/vT4TWixoQNCAoAFBA4IGfrkGyjxAqFK5MheqKYnKmfKUqRws1Xkvq7nUv7wHqTS1ZE3IyClwwR6iHZasVZv/fv3qxT/x+H/9GdJ16qFSlSpc8fBbvAM/2ljZekqoISmNnPPZqC2vgGoSUsg9l/WjtxOu+0UaqFNHFvLydZnMqkb16sw+SXMEZVNQIbXvoYT/RU0Tbito4D+ngX8VIGhra8N01Ej4L1qE3NzilMXEx2BrO5WrsVFd+8TEPYU0rqRl4qknBjsq+fo0P5+5EKiCYUmipKTEhVtCQsNx9uznamiGBgbo1asXVq9ejUuXL2PAgAHo3asXlixditN/lGe1mTKFK8YR8cGzp89wPDMTG2Ni0a2rEfr06YNLly5x+0mISIeop1evWcPkTv+UGA0Zi+7GY7ncccsORtBo3xER/q44k3EUNWvXwThHby5KI5Jnjx8ixMeZyxsTayHJy2dPceLoPhw/vJsX2SGTHKDQkHRfIFRBMdzPBU8elvxeYjUkMXHmAi4jfLYIZXFfU0soN1PDstkFFfZ+hQyzngXpOnUR6uOMl8/y//Yj2hv1h0rr9ogJWoBnf7BUEgdEi1btMWtMAQ10a8PusOnb9m8/66/eQKKGBLy85yEqMgrJzIz4ewgt4iNHDEe7L6jTqYR58KpV3/2S48ePg9m4ceigb8BVWufNnYt69erh8pXLmDFjJvMnCCJoQNDA92ngXwUIJsbG8PXxgbHxUKRlFLC5icTezg4ODtO5uJG4uDjUVFXRp09/JnWytbGB4wxHZjnMOpmFjoaG2JKQAIcZM0p86+bNmyMiPAzr1q3DkoBlhed4zfNEx44dMXmyOU6dPo19iXugqaXF/PRmEybyebEbN0JPTw/Hjx9HkyZNuPZ8eHg4Hj9+Ajs7WwYCxiZDuVRs4p49qFChPN+PAMc/JUQc1G+MFfwdzKDf2wQtO3TGMhdrpB/YgbrKjbFs23EuT/zqeUHxltvXriDIwxar953Fi2dPmapYoVFztj7MmdAfF7MzMMxqFlrpGaGBihqePLjPZYMD3Wzw+MG9El+Lqu1tyMzDmvkzsXvDmsJz5qyMR0MVTYzRb/jL1NFj2ARI15FH3Er/n2I1GWrlhM79R2DW6J54cPcmt3t2YAzUtPUwqasm0z7r9x6CQWpSv+ydSrtxHdk6yMhIw8yZToiMivrHn/+rHkglixf6+aJbt24oyp2wadMmrAkN++7HTp8+DXZTp6KeohKD4sqVK8Pe1ha9evfi7/LM2YIy3YIIGhA08G0NlEmAQKQrS5YsARErtdPVBS3woaEhyLt3D+bmlkzHqqiggDY67ZhpsGLFSmhQX7nURZkIl1YsX8aLuYPjDC4Nm52djdA1a9g1QXz3RDlLhC/v3r7DJ3yCSgtVLrNKAIH4IJo0aw4pKUmuGEeg5FhqKmztbPHyxUu2GCzw8cGunTtRvnw5vh/xNHxLqIw0laVt0rgxv09UdDSbQknExcTQuEkTqKupIi/vPvbu21eqG+WrAKF+YyyOT8Ucs744l1l8xxmelINNaxZhS1gAlBq3gO+GA1g5bzr2bYrgNjRs0RLz1+3C/s2RCPKw/9brIDL1BqKXezMPAVkmCIjY+4RAvHoNeFoao7vJeKi27YAXT58idW8Cju6OZ/IlEqPBYyGnWB93rueifde+eHj3NjYGL4B25z4gDm6FBk0hp1Qfe+MikJJYUDJbqUkLdDMez6ySV86exOFt0Xj75jUUGzWH0eAxOJeZCv1eg/Hm9UtsDl2K65fOMuujmo4hehiPxcuXL3D76hVUqlQZ65fNLXy/YdZO6NRvJGaN7vHTAALxBDRs0AD1G9RnUiGyQhGrIAntnom2nOiVaTxu3batVNbPrwEEWgwHDhiA/v374f2799iwcSMOHTqE5y9eMJmS6chR6KCny2OXxt72HTsZGKu2UMWYMaYgS1sikYxJy2DtunVMJU5skUOGDEEnQwNcvHgJ6yKjmIeEvo12Ojro3r0bjhxNxrChJtxPbh4eXE2RaNAnmE3gstMrAgOLsUka6OsxWyqRSwUGBbMORACBvoVOXYyKjTXiOxk/dizv/rt07oQqVasiJCQUR44eRcWKFdBSqxUmmI2HuLgYWxR1ddujroJi4T0cpk1D/wH9SwQIxNx65/YdhIaH4/794sWevjnghRMEDfzmGiiTAKFp0yYICw3lhdjCyop3AvGbNjFgoMU3ODgIMTExcPf4PKl/rZ9o4vT28mLa6HWRkfDz84W5uQVmznDE8cwTsLC0hPnkybCwMEfy0WT07NUTY8aMwcFDhwsBgoqqOpPMREdH4ejRZGZ6IxdIyJoQtGvfDmYTJmBl8MrvAghEZ0tkUMSO16lTR1Bd+5iYWAYZROE8YEA/aLdty9YNmojnuHtg69atpQIE7U59YNDHGJtW+6OpZltmNYwPXYKcs1moW78xAhLSkbxnMx7eu81qOpV2GJlJiQg7dJkJji6fPsmLMxEwLbA1xaXsAlfNXwUIy7Zl4GBCNDR1O6OZZhtsCVuO1vpGuH7lAg5vjUaPYRNxOj2JF3CdLn0QscgNibEFu8NZK2LQSq8LEx0dP7wHio1VEB+yGL1HToZaWz12fdSQrIX6zdQw1qAJ3r19DYWGzaCp2wkGvY3ZOrLQYTyePXmE9kb9YOkRwPpKP7gL6jr6yH/4AA5DDaHVwQh284P5OXdv5KCVfje8e/sWo9p/XlCGWTujUz+yIHwGCIMnTUczjTbwd5iA7sPGQ7VNB3hZDf3m9EBjt3+/ftBt3x4GhgaQlJDA8hWBCF65kvt64MD+TBtOfV2pYkX4+C7E+uj1PwQQJppNgLOzEw4cOMBMos2aNoP9tGnYtn075nt7Ycjgwdi6bTsMDPQZkBKx0qb4eOzcsQOysrX5Ojrnw8ePMDEZyuREa8PDGMTGxMaiS+fOqFK5CoYOH4579+7BbPx4zPVwZ7/+gYOH2HpGJc337Elk0qVVK1fye4waZcpMjyKZ4egAe3t7pKSkYsDAgcUAgoG+AQMbkWyKi8O7Dx+wLmIts6wmbN0KdXUNVK5cCR309Jn2PHD5cohXE2eXS98+fSAuJg65unW/CyA8uJ+Ha9euwdR0NM6eO/fN/hROEDTw/6SBMgkQiNI1at06xMdv4sWRhKhlNdQ1eDEngDDNfjpSjqXAaaYTVFRUeMGeNn16qX3n6uLCk9/Fixehp6+HLVsSmHExfnM8pk13wNGkJKaPnmpni7jYWJzIzMTY8WYMEIhO+vqNG5CQqME7L7PxZmjXvj27GLp1747oqPVw83DHxAkTvwkQKHbB1cWVKWSfPX2KlStX8QT++MkTTJ40EcOHD4d0LWnk5OYwYDh16jQePXpUuNss6QVpV1ylqhhev3zB7HmVKlfhv8m6QgBh+bbjeHj/Lu+uSXZErsKOyECEHrrEAaCvXr5Abbl6ePLwPjwtjJFz7uQPAQSngPV4lv8Imu07Q0KqJi5mHwcF98Wu8sehhPWoJVsPDVpooGEzdej1GoS713LhPrlggSCA0LJDJyydZcXWhapi4szWSAs9UVLbDmoPnU69MXG2H+ZaDMG545+tIZYeyyArr/AngJC8ewtCfZ0webY/9HsNwRAtaYya6opBE+xh1kUF7169hktwLOo1aFoMIAycYIeug0bDZVwfPLx3i9tXRUycLQ3Pn+ajipgYWyJePH3y1bliqIkJptrYcDliWlCXLF3C1NxECU7+9kkTJ0JaRgY3b9yE70I/ZB7PxKNHj/HqD6tKSTf/mgUh6+QJ5OTkwsrKmjkQMtKOIWztWsyfvwAXz59nMDDbxQWKikpIOnyQQTKxLBKdube3N1avCYGry2yYmJgwQLh56yZOnjjBDIfE7Ni0SRMMHjwEQ4yNcSwtjQHCvHme8PP1RfCq1cx4+fbtWwYMRDPtM38Bx7PY2toh5+rnGCPjwYNhY2ODjOMZsLOfVgwg9OndB3fufmbjnDljJm7ducMA4fSpU7CwtMLYsWPh7DST3Qj9+vZFUFAg9PUN2EpBVNLDhw1FHfnvAwj03VN8wmwXV3ZZCiJoQNDAZw2USYAgihkgNjh7XvTLIX5THJo3bQrzPwDCsmXLsTEmBg7Tp/GEdu3qNRh07Fhq39rZ2cHG2prpnGkCpp15feX67MqIiIxESvJR5OZcRXR0NCytLNn83LFTZ+a119XVxdZtBTsXZWUldOzUBYMHDWSAoKqmBjtbW/adEkELMRZ/zcUwdaoNLxqPH3Y1ZboAACAASURBVD9mTvv09Ax2fVC7wsPCmP2OfLDeCxbg6tVrfExkiv6RgUsA4XtcDDVry8E1OA4nUw4i3HfWDwEEWli7DR6NWrLy2BOzFu279kHVatVh3VsbzbTawMJtCYhx8dXL56hVWx43Lp2F44guhQCBggBH6SoVMjZSm2y8gjiA0td+NAdg2ngFYqXXDKTs3lSojtIAgtukQbhy+jjGzfBG35EWGKQhhbEO89DNeBxGaBcsIPTOTTW0iwGEtp16o+dwMyyZORn5j37c7DzL2RkTJ05g19g8Ly+czMrm/iR2Uf+FCzF48GDk5lyBl/d8phOmBe5bUfZfAwi3btzAloQtsLSy5nc7sH8frl69iqm2drh04QIH33p5e4OIzc6fPYuptras64X+Cxlcx8dvRuvWrbBxwwYGCI0aNURAQABu377NbgqRLF60GHGbNv1hQfCAopIyPnz8eyymX3MxkJWAAMJcDw/Eb0lg5sj53t5QVFYGUa8vXuSP5i1UOZtp9qxZsLK0gHw9hcL2fs3F8CPflHCNoIH/Fw2USYBQr25dBAauAJHB9OzVm/nZo6IieYdCux6yIFBGQd/+/bmfDh7Yj/Llyn8VIJiOGsW7i9evXyE2Ng59+/Vl0769/TRIS9fC7NmzeTdFJlEpKSlmpJtiY4PxY8cVxiCoNG+OhIQtSDuWhtyrV3nyb9S4MbTbaiMgYCnIdXD7zp2vAgTyN/fs0QNt27YBmVOlpaWxb/9+bN++HadPn4KRUVeepCnDghaLHbt2IS42jn3FP5LK+b0AoYaUNKYvDEW16hKYPrQAaP1VFwNZDlyCYjmuYOZIIyyMTcKnTx8xQlsBtvNXQbFxc6xwnYKnTx5iml8oPn14D4dhnQsBQhO1lhhr0Ljw2xMBhPyHD7F4ptlfBghOI7vjZu75YgDB1M4d/cdaY1Q7Zbz/8A5uqzajflO1YgBBrFp1SNaSRd7tawxoflRqSkmhR48e0NLSRKeOHTlgbndiInbu2Ilz586he/fuaNlSi/uakOXOXbuQsCUB6RkZpdJFfw0gXL50EcnJKTC3sMDLly+RnZWFPbt3w2XOHAYI4WvXwnXOHNSRlUVm5nFYWlqxWX3f3kQ4OTljbUQELC0tMM3engHCh/cfsHXrFkw2t8COIlTNIn2QBYEsDsoN/hyAKi8nj549uuPjHzEVRZkctbS00L5dO9y6dYtdBiTfAxCcZjpjd+KeYgCBMo+WLwuAmroGnj59Cg93d5iNHwe5uvUKu23M6NGwtrbi7zIz87Org04gKw7pinT//8A2+aNjWbju/1MDZQIgJCQksAlWJBS5PHzECIwbOxbLli1DbVlZmJgYw9FhJmI3xWKe51yMGjUK69ZFsmthhqMjm+G/ZkEgv+vqVauQ/yQfJkOHYs2a1ZyV0LNnL1iYW3BgV1sdbZ6YaRFPTU5h60KbNm0KAQK1b46LC0aOGom7d+6iWfNmDBDev/+A0JA16Nq1Kwc/fk+QIi0WFABGvmDK2Hj95g27T2iSql69OpSVlNBSS4utGRStHhgYVOqi8bWh+y2AkHMuC5dOZ6JBM3Wo6xggbrU/4lYtRIceg6Ch3RGdBw5H7vnTHMOwe+MavHhaehqhSqv28AjZipyzJ9nc7xN9gHeoZp1VMHKqKwx6D0GEvzvaGfVG2069cPX8KTgM6/TDAKFBcw3IKTZEN+OxkKwlja3rgrkWArk3yDVREkDo2G84JrssZPfHo7w70OnSCx8/fCoGEMxmLoBSExUscTLHo7yCuI2/I1TLQ7l+faiqtID1FCt2G82aPQsvXryEmJgY6isrQ01VDVOmWCNx314sWODDpvqShABCVtYJHNi/H2fOFETkE5CkANfZzs48BikOoFatWhg0cCC7vlavXoP1kZEg193OnTuhoaGBVq1a8sK/eUsCTmWdYBdX0uHD6NevP6qKVWWAcP78BRw9moT7efexPjqaF9IOHXTZGnL3bkEMQmkAQV9PryAG4QPFIIxi64lICIBQtgHRQA8aPKQYQKC4nPVR6wvPPXP2DC5QcGTEWpQEECjDiIKWz545i9RjqTAdZQp5ebliLgYKUk5NTsbOnTuQcTwT0Rs2sMWO5M6tW3jw4D5GjjJF9qlTf6ebhWsFDfx2GvhXAcKA/v3h7u4GcfFqxRQ7Z84cHDx4kBfdps2a8c5527ZtsJlqy+dR1DqlLWrr6HAU89s3b+DrtxCrVq8utYNq1qyFTZticT8vDyZDhyE0JAS0kxk0eDAokvnjx0/8t0iSDh3C8czjUKinACVlJWjrtCs8lp11kq0ZtMi3at2aJ/rOHTsheGUw11kgq8SVnJwyMVjkFBvAK2IP5k8dgYtZxetELN+eyQsryYf3H3E2MwWrvR1AdRKcl29AY1WtwnegQL6ZI7vi3s3i9SqKviSlMzr4h2Nn9Boc3BLF7gGKh5gzoR8H9Vm4LYWMXF08ffyQYyQe593FnIkFViB731A0UtGAVZ/WhbeUlJbF5NkL8fTJIwS5T2UAQ4t7mN8cZBzcAYs5S6DbYwDKFWkEZSVsDPLBBKcFcJs0EHev52CEjQtnUIzRa8BnTnT248DG9+/fokLFSvzb6A71C+8yY0kUyJrhPLoH8m5dKxP9KGqEtLQMUlOSi7Xpw/v3MB09mq1MWzbHc3Eg+maOHTvGboR79/LYCrc2PBwNGzVkkCwjI42pdvbYvHkzDA0MsXixPwPTWzdvoW69uhg6bDgXG+pq1AVeXl5sbaN7EjAebGzMu/9RI0eyi0+zZas/6YiCMpcsXswAgdILiy6+VFvEysoS6WnpGDV6NF9bvVp1eHi4o2/fvsXude7cGc48CgoMhJu7Ow4dOsxZFQTU1TU1Ub58BY5HGDduLAczv3pZkBXTQk2t8D5kiXR3m8OZE5UrV8GAgQMYXNWpUwdnTp9i9864ceNx8dKlMtXXQmMEDfzbGvhXAcL3vHzDBvXx7t173Lx1608mdklJKSgq1OPAQwq2a9dOB7K1Zf90W3IbUHri1Wtla7L/nvf/nc4pX6ESGqlqIvfcKbx/V5Di908LAQLKinh0/y6qS9SEuas/B286/OFW+afb87OfR9VFmzRqhBevXuH69euFt69VsxaaqzTDk8eP0by5CgcWTrYwR2LiXqirqTHYffPmLaytLKHSQgXjzSbgyh9FhWiBpXModoKAb2nWjZ/9Ln/lfuTSkJSU4GqJ3+uKm+XkBOsp1li0aDEW+vtzXJIgggYEDXzWQJkHCN/bWRQ34DPfG+3b6/7pEgpe8pw3j7MFBPn/1oBYNQl4ReyiuNc/MiXEsMBmDC5kp/7Wimnbpi3WrF6JBw8esLtj//79cHKahQcPH2DBfG9Os6RgWAUFBSxZshRBwcF/Kzj2v6DMTh07cdDx/gMHioGp/0LbhTYKGvgnNPDbAARSFu2eipYUFimQdhS0O6D4AkEEDVCKIrkrXj57jtwLWYXFmn5nzdB3oaSoxLVAjqYcRX7+08JaC1TESaW5CuTqyOFQ0iEGBv8P3wq5CUm+1+LwO48P4d0EDZSkgd8KIAhdLGhA0ICgAUEDggYEDfwcDQgA4efoUbiLoAFBA4IGBA0IGvitNCAAhN+qO4WXETQgaEDQgKABQQM/RwMCQPg5ehTuImhA0ICgAUEDggZ+Kw0IAOG36k7hZQQNCBoQNCBoQNDAz9GAABB+jh6FuwgaEDQgaEDQgKCB30oDZR4glKdUpHLlSky7ojQlSt8qywVO/u02UmGgihUr4e3b11yBkv7R31QCuVDKlUOF8hWY/fFnCqUTErvkm1cvC1gmK1XG61ev+O+KlSpxeqGQYvYzNf7370Xfk1jVqnj1+jV/c1QKmgolkVCpZSo6JoigAUED/x8a+FcBQv36ykx0RGRFXxKlEO98586doKikyIsXlT1OS/tcKlivQwfmUpCUlMT9+/dx9OjRr1ZKbKGiAk0uzVoeb9+9Q86VKziemcm9LCMjA6MuXVChYoXCXn/37h0/r27dumjQoKAML5HXUKGZ9PR05D99ykQ8RNC0fccOPt6lc2eUr1CB20KTqba2NtRUVVFLRhrXcq8iLT2duef/SdHvMxTahj0RudQd2p37oEFzdcQG++LW1UtMWdxUoy0UGjVjBsbbVy/j5NG9XAr5Z4hez8HMubDI0QwaOoboO9qKWRnbGPZChx4DsGredDx5mPczHvXd96hbVx66uh24vC7xePxOQrTkioqfWQzp3a5cvoKM48e/e2GvV68eFnh7M4fDtWvX4TJrFvT19Znm3GWOK5c6FkTQgKCB/w8N/KsAwXjIEPj6+sB4iAnSj2cU0/hQYxN4zvNgUhgqA1upYkUMHTYCly5fgojDgXbnV3OvQrVFC4SEhmKet3epvWZjMwUzZ8zg84nI5tnzZ0xiE7xyJXS0tREXF4uXL14g734Bve/zZ8+YlGb06NHo168fzp87BympmqhStQo2RG/AHHd3HNi3D5UrV0IHfQO+ZuuWLVzy2dzcnBn83N3dead+/foNEIX1suXLsSIw8B8dWURv3HnACHhMHgxjc0c0UtGEv6MZzh5PRiv9bjCfsxhvX7/Egzu3oNRYBb7TxuBcZspPaWP/MVPQd4wVJnRuztwHU72CMEpXGf1GWzOjot1gva9yO/yURnxxk25du2L58mUICwvDPK/Sx8uvePavvuf6yHXQ09fHndu3GQSTxG+Kx7IVK767KmKjRo2we9dODB06DCdOnmTCsG7dumKqzVQmWFpXhEjpV7+PcH9BA4IG/l0N/KsAwcTYGL4+PjA2Hoq0jLRCTUhISGChnx9027eDuqYW2rZpg6CgQJw7exYWltYICloB3fa6aNJMhQl3iIBFtYVKoUWgJJXaTp2KGTMcoaGhhffv3yEiIoJ39211dNC4USPExGxEeFg4U+OKhMzfq1euRBejLmjYqICGOP3YMeQ/zcfwESOxIXo9gxfdDnp8bMe2bfiET8zmuHPHDuTl5WHkyFEMOsTFxVFXvi4uXrr4l3q8ebNmqF6jOo4fz/yTOb51q5bMAili9Svpxl8DCAFb0/H4/j0snD6OKZjr1FXGi2f5eJb/iG/VxrAHDPsORc7ZbOzdtBbPnhRYFqqK10DnASPRolV7pOzdgpS9Cfj4h+lZWr4eeo+0oPJ0TKSj13PQTwcI1pYWCI9Yh2fPnhV7ZckaEhg0eCBCw8JL1XH3bt0YIISHh2Ou57wSz3OaOQOysnUQvT4ax9I/j0vtNm0xYuRw7D9wEBLVa+Dc+XOFY66jgSEGDOiPbTt2oK6cPDJPnMDpM6f5/jpttTF8+DDcy7sHH1+/QpcYgV4CyekZx9GpowHU1NWxZk0IsrKzIS4mht69ejJJ0oqg4GLtlJKSRM/uPVCzplSxYxuj10Omdm2YW1ji8uXLfA2NYfpHZGKVKldkcEyWrrDwCBw5eoTPIZKm4UOHoUULFaajXhawlAGCyMLWo3t3hISsgaODQzGAQNwHvXv1hqSEBLNJ5ueXzvT5lwa9cLKgAUEDZUIDZRIgNG7cmJkciYTJbMJELqG8KS4O9ZWUMMncHMHBQdibuBfTHBy+W4kigKCmpomHjx7AztYWjo4OcJrpxAQvBBD27duH8LURfE9iiDyZdRJLFi1Gt+7dMGbMWNSsVQsLfX1x4OBBTJ48GXv27C4RIAQFBSMwcAXv3qZMnfrdbaQTCXCoqDSHhpo6Jk6aiLry8vCc5421EWtRtUoVtkRoamhgwsQJqC0jAwfHmdiSsKXUZ9AuXrf7ACx3tUZX43Fo0EwNIQuckHv+FGKzHiDUZxa2rStu1aCFfeAEOwyZaI+rF89AXrEhbl69BF9bU3x4/w4284Kg0rodrl8+zy6L/fGRCPV1Ru26SpjuF4aaMrLIf/wAyk1a4PHDPEzo1BxtO/aEqZ0b0zt37DcCXQeNgrfNSDy8d+ur+iErEZnNmzZpit69e6F3797sUho82Jh5BOj3Zs2aYsSIEWjdqhWSU5IxyrSAIbAk+RpAaNSwERISNqMcyjF9eMOGDbHQfyEW+i/C+HHjMN/bG1dyrqBG9eqQk5NDTFwcLCwsYWtjgxkzZvAxGWkZ1JKuheDglXBzd4O7mxtTENMYk5WtjTev32CkqSkv4NWqVcOZU6dAcTYPHz9iyvPjx4/Dy9ubrVXbtiYwN0Jt2TrFXkVDQx1RkZHMRlj0GAGEBg0aYOnSANy6c4dB2qXLl3Hjxg1sTdjC+sm9WsDGWaN6DQayKampCFm9BvoGeuz+opLLr9+8ZrrnbwGENq1bY+XKYG6HiYkJjib/HMvTX/pghJMFDQga+GUaKJMAQVVVlfnft2/fjtkurvzym+JimVHO3NKK+d9dZrtg5+7dGDxoEE+iNLmFhZe+c/wSIPTr2xerVq3EwoX+SEpKYoDw8cNHPH32lJ93P+8+Jk6aBKeZM9Gvfz/cu3uX4x2qiolh+bLlcPPwwMED+0sECIl7EnnBCAgIwJKAAEw0mwBJKUlkZGRg167d+PCxZNY4apORkRGIKvfjp4/YvGULsrOzkZqahi6dO6FTx47Q0dHBmzevEb95M7KzTyE5JRX5+U9KHSCSNWUgJVMHd65fQQ2pWqgmIYW7N3IhISWLwF3HsdrLEbs3hmCYlTOqVBXHhaw0nDi6F8u2puNMRjJC/WZBt+sAjHXwhPvEAXh8/y6WbE5FVIAnEuMiYGLugC6DTNlKoK5jiOl+oVg6ywK3ci9iyrwVIMpmAgg1JGtBRl4B1y6eRnXJWqhZuw5u5V7C+3dvS207LTxjRpuio6EhGjdugrS0Y9i3/wDHDrx89QqjTU1haGDAO+A9iYlMb0wL7Neotr8GEMjfPsVmCiwtLHH6zBkGqRRT0q//AKwMDkbTpk1gbGKCDrod4OY2h/tn2rTp2Lc3EfgEjDczYxDj6OjIAGFT/CZs2bwZuTm5CA0LhbKSMiabT4af30L4L1rEAOHc2TM4c/oMu7PIfUZj7MqVHEgTyAgKgrKyMlq1blNMR00aN8aSxYtQR04Ordu0LTxGAEHfwAD5T57g/R/cIz4+vlgXGckAgb6TadOm4dGjx9iakIApU21w+NBhZGdnISQkBKtWrYa39zwmPPsegNC8eTP4+fgyQDAzM0P26QKLiSCCBgQN/B4aKJMAgQIKIyLWspVghpMTazo+Lg70u7mVJU+c8+cvwO49e+Dn6wNDQ0NcOHcenYyMSu2VLwECmXaXLQvA/AU+SE1JYYCwccMGzPfx5XtQBPeTx08YjBh1NUJbbR0OcCSOe9oJEn98WFhoiQBh27ZtcHFxQVBQEJavCGRXBMVJrIuMwqzZs0uly92WkABtHW1uj/Os2bzrpGBJktSUZN4d7t+3D86zXXhX+HciyquKS2JdSg4DhF0b1mDFjhOQka+HlMStCHKbirVHr2KZixUObduABioamL1iI7avX4Mrp4/DcdFauE8ciIvZ6dDtNgB2PqsxukN99Bs7BV0GmsLZtBu7LoZZOqHTwBEMEH5EyLUUGxODChXKMxsn6Y+YOclkPnDgAB4Ht27dgqPjDCQdOYLXr19/8zFfAwjLli7F4MGDoKCkzG6A4MAVMDA0hLubOwMHAomDhhjzIp6ddRI7du7EiuUrEB29HinJyZgwaTJq1arJ8SoEEG7cuA4PDw8eS6K2EZhZsWIF3Nw9CgDCmTPc15FRkcVcSDTW6DkUHEiBsUWFfiOzPoGXoscIIMjJy8PBwbHQUkBuGKJpJoBA59rZT+Pxdzw9HbNdXPD61WssWx6A6dMdELdpE/T09BAeFvpdAIHbISnJ38UTAiVChsM3x59wgqCB/5IGyiRAoOyGVStX4vHjxzAZOownUlooaPIlsygtDGfPnMU4MzPWNe3ky5crD4OOHb8LIDx+/JB3gBMmTICFpSXy7uUxQAgLDcNs1wKLhUjWrFrFMQj1GzTkn8zGjcVMJyfY2dnDzs6WfcXt/4hB2LN7F169fAlfXz9ERUVh9+7dmGxhwQvEkaRDOHYsHU7OzqUChIb168PO3h5tWreCvLw8R9oHLF+OlOQUSNeqBftp09CypRbk6tTBiRMnEBgcjNTUYz/s+92YmYeYYF/ErfJHdUkpTF8YhvxHD7HC1RrhR3IQ7GmPffGRaKyqBZegOEQvX4CcM5lwD9kKtwn9cf7kMVCmgu38VTDVVYLRkHEYNN4GjsO7IP9hHsZM94SOUZ8fBgji4mLsozc2NgYFz71/9w4RkZFISNjK8Qdk9id/Ou2Mb9+5jWUByzmW5erV0jNFvgYQCPwNGzoU9Rs25EU1Yu1a1jf19axZzvjw4SO6GBmhWbNm2Ju4h+nDFyzwQcKWzTh//gJMhg6Furo6WxQIIJCLzMdnATw952H5ihV/Gps0rk9nZ8HW3h5btiQUO16pUkUoK9dHlcqVcebs2WLHqlatCiVFRU4/LHqMYxBkavM3Qq6FokIA4fq163CcMYOMHchIS4OLqyvy7t1FZFQUWz2iN2xk4OXn61sMIHTu1IkBu4uLKwcDi4TcYdSOylWq4Mb163j2/Pl/ae4T2ipoQNDANzRQJgAC8c/n5F4pbGpWVjasra05W8HWzo452ymKevWaNQhYtozjAHr17sUL9Y3rN3hXTzvL7wEItLuiIEiz8ePw4uUr9OnXF6oqLRggHD58GBs3buR20G7oZFYW3Oe4oXuP7uxrlpKSgtn48Rw0OGnyZEyxskJ7XV2OY3jx6iWWLlmMI0eOwsp6CtZHRqJBw4bw9fXFlStX2J2RmLj3qwBBpACKO+jSpQtatWzJ/6XMh5WrVjHQqK+sjM6dO7M/2bCjIdzdPRATG/tDA336wnAoNWmOTasXI//RA4ydPpfjCgJmW2BB1D48e/IIm0OXQqOdIXoMM4OTaXe8evoUC+OO4OCWKKQd2IGuQ8ZApWU7WPZuhWaabeG8bAMDjnu3rmGEtTMqVqnywwCh6Et16miIdu3aoVOnTlBUVGId3Ll7l3P2e/XqhbZt26CrkRFu3rqF/gMGlqoPEUCgVNT4+Hg+7+PHTzh1+jT69umNWbNmgcbj+fPnMcfVFU/yn6BX7z4IDgyEvr4e3OfOhZaGJoYOG4pN8fGwtp6CHdu3gdIDyXVA6bfkkiKAQItp4p7dyM29Cj8/Pwa8FENCQYhZWVkMfEsDCAQQ42Jj2C1RT1Gx2PuoqrbA2rAwjoOop6hUeIwAAgGplatW4969u/z7zZu3eBzHb4orESDs2LGDg38TExPZgmBvZ4tGjRsXAwiUBpyWmsouHHonik2gGI0G9etz8GLDBg1gbmGBnbt2/9A4FC4SNCBooGxqoEwAhE+fPuJDkcI9zs7OvCMjH7CEhCTKVyjPO+ax48bzzlFBQRFrw0LRsFFDvHj+gqO5KTDQw9OzVC1PnWrDaY5Un4BqF6SkpMJ59mzk5uainbYOYuNiQAFxIlMw/XeBjw8M9Q14wicTKtVmoEXax9eHJ2HKSqCdGZmN3394j8qVKmGyuQX7w6l+QlDgCqipqeHF8+eQlJJit0hQcHCJRZ9Kari4mDgUFBX42ffv51HMWaHQMxXq1cP9B/fx8GFB1sFfFYVGzWExZwmUmzTHm9evUaWqGNYuckNiTCj0exlj4iwfNrWLiVfH0d2buW7Bxw8fMNJ2Drobj8HLF884biFisQd2R69CjZrSsHBbgpa6XfD61Uu+jrIjKD7hZwgFq5L1pGbNmux+IVO5SGhXTYs0mb1p516aiAACnf/mzRs+jd4xcEUgx7BErouApqYWZ4dUrFgBlhYW2L5zF1RbqGLjhmiOJXlw/wHk69ICHgdLa2u01GqJqMh1DBwpdqWeQj0ej3Pc3DCwf38GBzQ+6HmVK1WG65w52BgT81WAQO9CY0tRUfHPQYrq6oiKikQd2TqoXedzAOOG9evRsVNHHuM0TkkovsbWzh5rw8Nw7fp1jo0ByhVaEAgUOE53wJQpVmw1oYwgaitZ7jL/qBNC95nt7PS/9u49Kqo6gQP4dxRBEo1ER0UFgUEsSgU3BVERV9DN9ZHvJ/hC3bBVC800QxTXB2mtCgLiu/KkHbVos9xEEalVCBHk/UpAiAoUBQQU2fO7HMYGpKZONMPM9/efzn38fp97OfOde38PeHl5SX+nq9esQUTEZ9IQSBF8RVARnRRFfxgWClBAdwQ0GhDUYRw4oD+qa2qkwNB41j0xFO1ZOztpKJr4shDDrsRsfY2L2E8EC3XeUatTp59vI760HAYMgPjCiY6JabK7VR8r2CpsEHkxShpeqY1F3tsKFtbPIunKRVRXVSqraGj8FBxdPJCTdh0/FOSqVL1zl+6wcxyKxG8uoOLebZXPbOwHSf/OTv5WG5v7q3WysrSEea+eiI2NU4YQIyMjaaiqeNrg7DQEBw6EI2TfPmze8i/p2osZB8Vno0a6Yl/IPgQEBGBvUP1rBfEoXgxJNTJsj8tff62V94F4MtXTvAdifsOXfMM8JmJExmh3j1915QYUoEDrEtD6gKAup/hV+e6undL8CI1LRWUFNvr7N3nPq+6xuR0FJk2cgDfWrJFGjjg6OkpPm2bPnYOMjEzMmT0LS5YskfqMDBk8BHfv3oXnfC/p1YIul1FuozBjxnQEBQUhUcdmpdTl68a2UUBdAZ0JCOKXvJhUSASFxkUM+RK/csT4eRYK/B4B8cpo8OAhsLO1RV5+PlJSU6R+BKKI1wBi+KmNlTVycnKQkpaK5OTk33OaVrWP+JsTT0fEKw0WClBA9wR0JiDo3qVhiyhAAQpQgAKaE2BA0Jw9z0wBClCAAhTQWgEGBK29NKwYBShAAQpQQHMCDAias+eZKUABClCAAlorwICgtZeGFaMABShAAQpoToABoZG9GM8upvhVd/Ihsa2Y8rasrH6RJxYKUIACFKCALghobUDo2lsB53FzYWTcAUW56Yg79xGqKu+1qLlM1gavLvfBajy6SQAACJRJREFUcBcXTJs5U61zzZg+DR4eHtI89YViiV0WClCAAhSggA4IaG1A6PsXV0z22Qwzc2sU52XgkN9ClBS27MQzYh4FsULj3j178P6Hx6XLa9jeGAqH4Zi+KhBdzC3h69ELVZWPF6URy/Ge++Is/uHjg8jICzpwS7AJFKAABShAAUArAkLX3jYw62GJspJifJ+TCrE2Q0OZtHwLFAOcmwQEo6dM0FPxAmQyIC81AQ9q7iv3MTZ5GuYKe9TVPsJ3yXF49OghDAyNIO9tg3u3SyHvZYXqqgoUZCSq3AOe8+ZBLAs9fuJEaRlhUZz+7olpK7aipOgmelj3w2oPC5WAIBbc2b51q7Si4KTJk1WOJz6ztrZGaUkpbhXWH4+FAhSgAAUo0BoENBsQZG0wYckGPO/igY7PyFF57w4O+i3Grcz6GepEeVJA6G03EBOX+aFbH1vIIMOtzGQc3LgI1ZX3YP2CEyYsfRtdelpKazfkpyXi8GZvyC0UmOm7E3W1gKm8Bx7WVCE+8gwiwjYrz3Xyo49QXlGOFStXSdPlitK5uwXMeljAzLwPZvq+g7XjFCoBQWyzxNsb69a9qVwSuuGAYkre4KC9uPK/q1ixamVruB9YRwpQgAIUoIAkoNGA0HeQK+b7heHK2eP4NDQATuPmIivhMn7Mf7yWfeOA0NbAEF5+YXB0m4TjO1ZC1tYAk5dvQtKlz3Fsqw+Wv3sGfZ4bhPe3LoepvBcmLnsLlz4Ox7WoT+G95Shkbdrgk5AAOI2dAYt+/RHoPQYFmQkSRkL8tzh67Bje+/fuJisu9h8xDgv9DzwxIMyZPRvbtm2Fbd9+qKp6/CTDxWUozpw+jZjLMU2eLvD+owAFKEABCmizgEYDgnV/Z8z324/ivCxEnwpHaXE+bmUm/eIrBvH0YIH/AZg8bYa02AsQ7xjsndxRWlyAE7t8pcDRtm07ZMRHS58NdB2PzPjLOHskUAoI2YlXELZ2Fga5T8MCvzB8GrYF546+I12jjPQ0KRwEB9evwvfz8ksBYeqUKQgM3IHJL0/FtevXlLtZ9emDhQsW4Nr1BJw6dVqb7wPWjQIUoAAFKKAioNGAIPoF9HvRDcMne8PKfhAqykrxwbYVyLoWraykeIJgO9AZB9+u76Ro099ZCgjF+VmIO3dSud398jI8fFCDeeuDkZsch+tREcrPyn76HjXV96WAkHDxMxzf8U9Y2r+I1WH/xZdHdyEidJO0bXTURVyKjsamzQGorq5WOyB4eXpiS0AAbBQKaWlqFgpQgAIUoEBrF9BoQGjAMzTugB5W/TBn7W6UlfyIoFWTlK5OL3li7PzXELp2FopyUtHNsq8UEAwM2yNg9osq/hZ2DlgUcBjlZaUIXOym8pnCYZgUEMSQyfd8/oZRs17Fyz7+OLV7Ay6cCJK2Dd23D3K5HIu9vVFSWqp2QFi2dCl8fV+DwtZOZR9HBweEhoQgMfE6Fnkvae33CutPAQpQgAJ6JKDRgDDAdTzGzHsd6fHRMJWb43lnd3x1fA++PByovARidIPv/vMoKbyJopvpOLP3bbhNWwr3eStRkJGE3JQ42A4chpup8fhw23LM9N2FoRM8kZMUi1tZN9BvsBsSoz9H8jfnpIBg2P4p5KcnQm6pkDo1BnqPRvnt+mWgXUeMQGhoCKZMmYrklBRlHZbuOCF1VDS3skNW4hX8dCsX/wnfgtvFBTAzM8PBA+HIysrG676+KrfOiBEjcOrjj5GUlAi3v47Wo9uKTaUABShAgdYuoNGA0M3CFgNHToC5jb00gqEoNxUxnxxG7cMHStd2hu3xnLM7ulvaSh0Hv4l4H7W1DzF4zHTILfvC5Oln8EPBd8i8dgkZcVHo0Kkzhrw0C117KWBs0hHFedlIj72ANgYGUkDIuRGLuyXF0qRLyTFfIiP+kvJc3eTdsHfPbuTl5eH11auV/z/Gy1caTtlQKu/eQUJUhHScYcOGSfvMX7AQCQn1nR0byqqVK7Bu3Tr4b9yEvcH1TylYKEABClCAAq1BQKMBQQCJUQVGxiZSKHhQ/XgEgDp44jWDQTtDVN+vQN2jWpVd2hkZo61BO1RXlkudHhteMYgnFFEnQ6WQUftAtb+ATCaDy1AX2Ns/i9Cw/epUAUOdnNGzdy9ERESgqqpKZZ/I819BzIUwZeo0FBQUqHU8bkQBClCAAhTQBgGNB4Q/C0F0Spy7djeiTh/A5VPhf8ppxROJmpoa3LlzB3Wo+1POyZNQgAIUoAAF/ggBvQkIkLWBiWkXVJbfwaNGTw7+CEgegwIUoAAFKKBLAvoTEHTpqrEtFKAABShAgRYWYEBoYWAengIUoAAFKNAaBRgQWuNVY50pQAEKUIACLSzAgNDCwDw8BShAAQpQoDUKMCC0xqvGOlOAAhSgAAVaWKBJQDA2NkbHjh2loXliiB4LBShAAQpQgAL6J9AkIIx0HYlXXlmG3NybCNsfhuzsbP1TYYspQAEKUIACei7QJCCYmppizpzZeGv9eoSH7ceGjRv1nIjNpwAFKEABCuifQLN9EHJzsnH+/Hks5iqE+ndXsMUUoAAFKKD3As0GhOzMTERfjpYWIWKhAAUoQAEKUEC/BJoNCMk3klBUVARPr/koLCzULxW2lgIUoAAFKKDnAs0GhIkTxmPXrp0w6WCCw0eO4I21b+o5FZtPAQpQgAIU0B+BZgPCB8eOwcHBASdOnMTZL87iytWr+qPCllKAAhSgAAX0XKDZgJCRloarsbGY5+mJujouVazn9wmbTwEKUIACeibQ/CiG7GxERkZikbe3npGwuRSgAAUoQAEKNAkIXbt0wZixY7Bj+3YcOngI6zdsoBIFKEABClCAAnom0CQguI8ejTVrViM1JQ3BIcFIS0vXMxI2lwIUoAAFKECBJ6zF0B6dOnZCeUUFKioqKEQBClCAAhSggB4K/B8mCTwCgJpAEAAAAABJRU5ErkJggg==;" vertex="1" parent="1">
                    <mxGeometry x="420" y="130" width="320" height="275.7" as="geometry"/>
                </mxCell>
            </root>
        </mxGraphModel>
    </diagram>
</mxfile>